{
.formatVersion = 3;
DisplayStrings = (
"\"",
"/che-kannada ೃ"
);
classes = (
{
code = "ka-kannada.below kha-kannada.below ga-kannada.below gha-kannada.below nga-kannada.below ca-kannada.below cha-kannada.below ja-kannada.below jha-kannada.below nya-kannada.below tta-kannada.below ttha-kannada.below dda-kannada.below ddha-kannada.below nna-kannada.below ta-kannada.below tha-kannada.below dha-kannada.below da-kannada.below na-kannada.below pa-kannada.below pha-kannada.below ba-kannada.below bha-kannada.below ma-kannada.below ya-kannada.below ra-kannada.below lla-kannada.below la-kannada.below va-kannada.below sha-kannada.below ssa-kannada.below sa-kannada.below ha-kannada.below";
name = BELOW_BASE_MARKS;
},
{
code = "ka-kannada.below.following kha-kannada.below.following ga-kannada.below.following gha-kannada.below.following nga-kannada.below.following ca-kannada.below.following cha-kannada.below.following ja-kannada.below.following jha-kannada.below.following nya-kannada.below.following tta-kannada.below.following ttha-kannada.below.following dda-kannada.below.following ddha-kannada.below.following nna-kannada.below.following ta-kannada.below.following tha-kannada.below.following da-kannada.below.following dha-kannada.below.following na-kannada.below.following pa-kannada.below.following pha-kannada.below.following ba-kannada.below.following bha-kannada.below.following ma-kannada.below.following ya-kannada.below.following ra-kannada.below.following la-kannada.below.following lla-kannada.below.following va-kannada.below.following sha-kannada.below.following ssa-kannada.below.following sa-kannada.below.following ha-kannada.below.following";
name = BELOW_BASE_MARKS_FOLLOWING;
},
{

glyphs = (
{
color = 5;
glyphname = "a-kannada";
layers = (
{
layerId = "181B3FD6-98F3-4D7B-8C67-56E528B8E974";
shapes = (
{
closed = 1;
nodes = (
(536,387,l),
(504,437,o),
(527,531,o),
(595,554,cs),
(712,593,o),
(778,462,o),
(778,360,cs),
(778,183,o),
(601,0,o),
(419,0,cs),
(168,0,o),
(11,173,o),
(45,410,cs),
(55,482,o),
(102,560,o),
(187,560,cs),
(301,560,o),
(313,474,o),
(295,387,c)
);
},
{
closed = 1;
nodes = (
(118,414,o),
(129,392,o),
(146,387,cs),
(171,380,o),
(215,382,o),
(224,422,cs),
(230,446,o),
(215,470,o),
(188,476,cs),
(161,481,o),
(122,470,o),
(119,433,cs)
);
},
{
closed = 1;
nodes = (
(595,387,o),
(670,402,o),
(670,357,cs),
(670,345,o),
(668,320,o),
(655,320,cs),
(519,320,o),
(295,320,o),
(161,320,cs),
(117,320,o),
(93,325,o),
(93,297,cs),
(94,145,o),
(279,79,o),
(414,79,cs),
(566,79,o),
(667,180,o),
(712,284,cs),
(740,349,o),
(731,470,o),
(640,470,cs),
(622,470,o),
(595,458,o),
(595,437,cs)
);
}
);
width = 818;
}
);
unicode = 3205;
},
{
color = 5;
glyphname = "aa-kannada";
layers = (
{
layerId = "181B3FD6-98F3-4D7B-8C67-56E528B8E974";
shapes = (
{
closed = 1;
nodes = (
(614,388,l),
(665,388,o),
(689,388,o),
(731,388,cs),
(777,388,o),
(824,388,o),
(872,388,cs),
(932,388,o),
(991,375,o),
(991,323,cs),
(991,285,o),
(992,135,o),
(992,113,cs),
(992,103,o),
(996,70,o),
(996,60,cs),
(996,22,o),
(972,6,o),
(941,6,cs),
(924,6,o),
(905,15,o),
(905,42,cs),
(905,91,o),
(910,122,o),
(910,168,cs),
(910,221,o),
(910,249,o),
(905,285,cs),
(900,320,o),
(881,320,o),
(860,320,cs),
(808,320,o),
(683,320,o),
(631,320,c)
);
},
{
alignment = -1;
ref = "a-kannada";
}
);
width = 1036;
}
);
unicode = 3206;
},
{
color = 5;
glyphname = "i-kannada";
layers = (
{
attr = {
color = 1;
};
layerId = "181B3FD6-98F3-4D7B-8C67-56E528B8E974";
shapes = (
{
attr = {
fill = 1;
fillColor = (0,255);
};
closed = 1;
nodes = (
(584.741,164.401,o),
(637.376,140.475,o),
(653.326,118.145,c),
(683.631,146.855,o),
(709.151,178.756,o),
(713.936,237.771,cs),
(723.506,352.611,o),
(669.276,459.476,o),
(568.791,484.996,cs),
(514.561,499.351,o),
(457.141,473.831,o),
(457.141,443.526,cs),
(457.141,411.626,o),
(485.851,386.106,o),
(482.661,320.711,cs),
(481.066,239.366,o),
(442.786,173.971,o),
(364.631,173.971,cs),
(294.45,173.971,o),
(280.095,232.986,o),
(280.095,293.596,cs),
(280.095,384.511,o),
(337.516,418.006,o),
(337.516,443.526,cs),
(337.516,480.211,o),
(235.435,523.276,o),
(162.065,486.591,cs),
(96.67,454.691,o),
(77.53,374.941,o),
(87.1,317.521,cs),
(98.265,252.126,o),
(146.115,185.136,o),
(82.315,185.136,cs),
(55.2,185.136,o),
(40.845,213.846,o),
(40.845,250.531,cs),
(40.845,381.321,o),
(40.845,559.961,o),
(240.22,559.961,cs),
(319.971,559.961,o),
(363.036,529.656,o),
(394.936,484.996,c),
(425.241,532.846,o),
(498.611,559.961,o),
(589.526,536.036,cs),
(731.481,499.351,o),
(764.976,379.726,o),
(753.811,248.936,cs),
(745.836,142.07,o),
(705.961,83.055,o),
(701.176,68.7,cs),
(694.796,51.155,o),
(717.126,-6.265,o),
(709.151,-66.875,cs),
(701.176,-124.295,o),
(682.036,-148.22,o),
(656.516,-173.74,cs),
(637.376,-192.88,o),
(586.336,-162.575,o),
(595.906,-141.84,cs),
(615.046,-98.775,o),
(637.376,-82.825,o),
(646.946,-28.595,cs),
(653.326,8.09,o),
(646.946,32.015,o),
(635.781,25.635,cs),
(615.046,12.875,o),
(595.906,-1.48,o),
(552.841,-1.48,cs),
(514.561,-1.48,o),
(447.571,28.825,o),
(447.571,76.675,cs),
(447.571,113.36,o),
(479.471,164.401,o),
(544.866,164.401,cs)
);
},
{
attr = {
fill = 1;
fillColor = (0,255);
};
closed = 1;
nodes = (
(477.876,60.725,o),
(511.371,38.395,o),
(552.841,38.395,cs),
(573.576,38.395,o),
(627.806,49.56,o),
(627.806,79.865,cs),
(627.806,124.525,o),
(568.791,124.525,o),
(543.271,122.93,cs),
(519.346,121.335,o),
(481.066,106.98,o),
(479.471,86.245,cs)
);
},
{
attr = {
fill = 1;
fillColor = (0,255);
};
closed = 1;
nodes = (
(310.401,252.126,o),
(321.566,202.681,o),
(367.821,202.681,cs),
(430.026,202.681,o),
(436.406,284.026,o),
(436.406,320.711,cs),
(436.406,344.636,o),
(422.051,410.031,o),
(385.366,410.031,cs),
(316.781,410.031,o),
(310.401,331.876,o),
(310.401,282.431,cs)
);
}
);
width = 796;
}
);
unicode = 3207;
},
{
color = 5;
glyphname = "ii-kannada";
layers = (
{
layerId = "181B3FD6-98F3-4D7B-8C67-56E528B8E974";
shapes = (
{
closed = 1;
nodes = (
(835.436,285.978,o),
(858.014,285.978,o),
(882.098,291.998,cs),
(903.17,298.019,o),
(916.717,310.061,o),
(916.717,331.134,cs),
(916.717,388.331,o),
(907.686,445.529,o),
(907.686,504.232,cs),
(907.686,522.294,o),
(903.17,559.924,o),
(948.326,559.924,cs),
(984.451,559.924,o),
(990.472,535.841,o),
(987.462,513.263,cs),
(982.946,480.148,o),
(963.378,388.331,o),
(963.378,322.102,cs),
(963.378,248.348,o),
(1118.414,307.05,o),
(1118.414,167.067,cs),
(1118.414,106.859,o),
(1098.846,73.744,o),
(1062.722,60.198,cs),
(1029.607,46.651,o),
(985.956,45.146,o),
(954.347,63.208,cs),
(891.129,99.333,o),
(904.676,173.088,o),
(904.676,200.181,cs),
(904.676,228.78,o),
(892.634,242.327,o),
(865.54,242.327,cs),
(748.135,242.327,o),
(633.74,242.327,o),
(514.829,242.327,cs),
(498.272,242.327,o),
(498.272,285.978,o),
(517.839,285.978,cs),
(614.172,285.978,o),
(712.01,285.978,o),
(808.343,285.978,cs)
);
},
{
closed = 1;
nodes = (
(951.337,132.447,o),
(984.451,100.838,o),
(1023.586,111.374,cs),
(1053.69,118.9,o),
(1065.732,139.973,o),
(1065.732,167.067,cs),
(1065.732,188.14,o),
(1049.175,203.192,o),
(1026.597,209.212,cs),
(994.988,218.244,o),
(951.337,206.202,o),
(951.337,167.067,cs)
);
},
{
alignment = -1;
ref = "i-kannada";
}
);
width = 1159;
}
);
unicode = 3208;
},
{
color = 5;
glyphname = "u-kannada";
layers = (
{
layerId = "181B3FD6-98F3-4D7B-8C67-56E528B8E974";
shapes = (
{
closed = 1;
nodes = (
(1008.576,572.732,o),
(1023.699,516.779,o),
(1023.699,491.071,cs),
(1023.699,394.287,o),
(1038.821,361.018,o),
(1020.674,241.551,cs),
(1004.039,126.62,o),
(932.964,-4.945,o),
(813.497,-4.945,cs),
(681.932,-4.945,o),
(651.687,116.034,o),
(651.687,205.257,cs),
(651.687,256.673,o),
(668.321,308.089,o),
(666.809,359.505,cs),
(663.785,462.338,o),
(625.979,477.46,o),
(585.148,475.948,cs),
(473.242,471.411,o),
(461.144,215.842,o),
(408.216,122.083,cs),
(382.507,75.204,o),
(335.628,1.104,o),
(235.82,1.104,cs),
(122.402,1.104,o),
(40.74,97.887,o),
(40.74,208.281,cs),
(40.74,315.65,o),
(86.108,457.801,o),
(139.036,510.73,cs),
(202.551,574.244,o),
(325.042,550.048,o),
(329.579,469.899,cs),
(332.603,413.946,o),
(290.261,351.944,o),
(226.746,359.505,cs),
(198.014,364.042,o),
(178.355,386.726,o),
(169.281,410.922,cs),
(161.72,435.118,o),
(210.112,469.899,o),
(223.722,451.752,cs),
(229.771,444.191,o),
(229.771,429.069,o),
(241.869,426.044,cs),
(253.967,423.02,o),
(269.089,426.044,o),
(272.114,441.167,cs),
(275.138,453.265,o),
(266.065,475.948,o),
(243.381,481.997,cs),
(214.648,488.046,o),
(182.891,480.485,o),
(151.134,447.216,cs),
(111.816,406.385,o),
(92.157,324.724,o),
(92.157,271.795,cs),
(92.157,182.573,o),
(131.475,79.74,o),
(238.844,79.74,cs),
(390.069,79.74,o),
(412.752,291.455,o),
(436.948,407.897,cs),
(453.583,488.046,o),
(495.926,560.634,o),
(583.636,560.634,cs),
(629.003,560.634,o),
(684.956,524.34,o),
(701.591,462.338,cs),
(721.25,388.238,o),
(684.956,315.65,o),
(684.956,241.551,cs),
(684.956,147.791,o),
(734.86,84.277,o),
(811.985,73.692,cs),
(898.182,63.106,o),
(952.623,134.181,o),
(975.307,211.306,cs),
(990.429,261.21,o),
(987.405,376.14,o),
(975.307,416.971,cs),
(964.721,454.777,o),
(951.111,471.411,o),
(943.55,500.144,cs),
(934.476,534.926,o),
(928.427,572.732,o),
(981.356,572.732,cs)
);
}
);
width = 1070;
}
);
unicode = 3209;
},
{
color = 5;
glyphname = "uu-kannada";
layers = (
{
layerId = "181B3FD6-98F3-4D7B-8C67-56E528B8E974";
shapes = (
{
closed = 1;
nodes = (
(277.539,562.254,o),
(329.769,522.077,o),
(329.769,472.526,cs),
(329.769,410.921,o),
(307.002,357.352,o),
(244.058,346.638,cs),
(211.916,341.281,o),
(171.74,346.638,o),
(142.277,377.441,cs),
(130.224,390.833,o),
(179.775,451.098,o),
(191.828,439.045,cs),
(203.881,426.992,o),
(206.56,414.939,o),
(227.987,414.939,cs),
(249.415,414.939,o),
(282.896,426.992,o),
(282.896,453.777,cs),
(282.896,475.204,o),
(257.45,497.971,o),
(237.362,503.328,cs),
(211.916,510.024,o),
(186.471,500.65,o),
(158.347,463.151,cs),
(110.135,400.207,o),
(108.796,309.14,o),
(108.796,282.355,cs),
(108.796,203.341,o),
(163.704,65.4,o),
(258.789,65.4,cs),
(430.211,65.4,o),
(408.783,258.249,o),
(461.013,408.243,cs),
(487.798,485.918,o),
(522.617,546.183,o),
(617.703,546.183,cs),
(691.36,546.183,o),
(736.894,487.257,o),
(736.894,420.296,cs),
(736.894,353.334,o),
(720.823,282.355,o),
(720.823,218.072,cs),
(720.823,160.486,o),
(734.216,61.383,o),
(810.552,61.383,cs),
(874.835,61.383,o),
(905.637,92.185,o),
(927.064,151.111,cs),
(947.153,197.984,o),
(979.294,334.585,o),
(988.669,374.762,cs),
(1010.097,463.151,o),
(1050.273,530.113,o),
(1152.055,530.113,cs),
(1284.638,530.113,o),
(1334.19,389.494,o),
(1334.19,255.571,cs),
(1334.19,187.27,o),
(1312.762,121.648,o),
(1315.441,31.92,cs),
(1316.78,-25.667,o),
(1229.73,-29.685,o),
(1233.748,31.92,cs),
(1236.426,74.775,o),
(1248.479,114.952,o),
(1257.854,160.486,cs),
(1277.942,266.285,o),
(1298.031,440.384,o),
(1160.09,447.08,cs),
(1126.61,448.42,o),
(1063.666,445.741,o),
(1039.56,390.833,cs),
(976.616,248.875,o),
(1018.132,-20.31,o),
(803.855,-20.31,cs),
(738.233,-20.31,o),
(671.272,25.224,o),
(663.236,132.362,cs),
(653.862,251.553,o),
(744.929,448.42,o),
(601.632,459.134,cs),
(470.388,464.49,o),
(458.334,255.571,o),
(430.211,163.164,cs),
(400.748,70.757,o),
(355.214,-2.9,o),
(244.058,-2.9,cs),
(95.404,-2.9,o),
(23.085,208.698,o),
(44.513,331.907,cs),
(59.244,422.974,o),
(124.867,558.236,o),
(230.666,560.915,cs)
);
}
);
width = 1375;
}
);
unicode = 3210;
},
{
color = (255, 153, 153, 255);
glyphname = "rVocalic-kannada";
layers = (
{
layerId = "181B3FD6-98F3-4D7B-8C67-56E528B8E974";
shapes = (
{
closed = 1;
nodes = (
(289,208,o),
(286,169,o),
(257,66,cs),
(243,14,o),
(194,6,o),
(147,6,cs),
(83,6,o),
(29,54,o),
(42,117,cs),
(50,156,o),
(93,177,o),
(118,177,cs),
(153,177,o),
(184,139,o),
(184,101,cs),
(184,76,o),
(166,80,o),
(156,98,cs),
(150,110,o),
(140,121,o),
(124,123,cs),
(95,127,o),
(85,101,o),
(90,83,c),
(99,60,o),
(127,50,o),
(143,50,cs),
(172,50,o),
(216,66,o),
(226,107,cs),
(248,196,o),
(247,411,o),
(226,499,cs),
(216,540,o),
(172,556,o),
(143,556,cs),
(127,556,o),
(99,546,o),
(90,523,c),
(85,505,o),
(95,479,o),
(124,483,cs),
(140,485,o),
(150,496,o),
(156,508,cs),
(166,526,o),
(184,530,o),
(184,505,cs),
(184,467,o),
(153,429,o),
(118,429,cs),
(93,429,o),
(50,450,o),
(42,489,cs),
(29,552,o),
(83,600,o),
(147,600,cs),
(194,600,o),
(238,590,o),
(257,540,cs),
(291,454,o),
(296,360,o),
(293,294,cs)
);
},
{
closed = 1;
nodes = (
(315,41,o),
(418,46,o),
(466,114,cs),
(512,179,o),
(494,442,o),
(462,519,cs),
(451,545,o),
(441,592,o),
(481,592,cs),
(526,592,o),
(531,557,o),
(535,528,cs),
(538,503,o),
(535,497,o),
(533,468,cs),
(529,386,o),
(542,150,o),
(494,82,cs),
(418,-26,o),
(321,2,o),
(268,50,cs),
(211,101,o),
(260,102,o),
(268,132,c)
);
},
{
closed = 1;
nodes = (
(592,600,o),
(616,663,o),
(642,662,cs),
(653,661,o),
(664,656,o),
(659,626,cs),
(650,568,o),
(589,536,o),
(536,536,cs),
(417,536,o),
(443,536,o),
(377,536,cs),
(336,536,o),
(336,600,o),
(377,600,cs),
(417,600,o),
(455,600,o),
(536,600,cs)
);
},
{
alignment = -1;
pos = (484,0);
ref = "uMatra-kannada";
}
);
width = 866;
}
);
unicode = 3211;
},
{
color = 5;
glyphname = "e-kannada";
layers = (
{
layerId = "181B3FD6-98F3-4D7B-8C67-56E528B8E974";
shapes = (
{
closed = 1;
nodes = (
(582.433,600.064,o),
(786.479,390.648,o),
(786.479,232.244,cs),
(786.479,108.742,o),
(700.565,-8.047,o),
(593.172,-8.047,cs),
(497.862,-8.047,o),
(426.714,77.867,o),
(411.947,115.454,c),
(390.469,77.867,o),
(354.224,0.007,o),
(240.119,1.35,cs),
(130.042,2.692,o),
(40.1,55.046,o),
(40.1,173.178,cs),
(40.1,234.929,o),
(68.291,289.967,o),
(135.411,289.967,cs),
(213.271,289.967,o),
(265.625,248.353,o),
(261.598,189.287,cs),
(258.913,136.933,o),
(214.613,115.454,o),
(171.656,115.454,cs),
(140.781,115.454,o),
(107.221,135.59,o),
(100.509,167.808,cs),
(96.482,186.602,o),
(127.357,202.711,o),
(135.411,194.656,cs),
(148.835,181.232,o),
(156.89,167.808,o),
(174.341,167.808,cs),
(211.929,167.808,o),
(202.532,222.847,o),
(181.053,234.929,cs),
(127.357,264.462,o),
(70.976,232.244,o),
(70.976,179.89,cs),
(70.976,103.373,o),
(168.972,68.47,o),
(230.722,68.47,cs),
(320.664,68.47,o),
(371.675,131.563,o),
(402.551,204.053,cs),
(403.893,206.738,o),
(410.605,206.738,o),
(411.947,201.368,cs),
(426.714,131.563,o),
(488.465,72.497,o),
(564.982,68.47,cs),
(679.087,60.416,o),
(739.495,130.221,o),
(739.495,244.325,cs),
(739.495,345.006,o),
(598.542,508.78,o),
(497.862,508.78,cs),
(448.192,508.78,o),
(429.399,489.986,o),
(393.154,487.301,c),
(304.555,487.301,o),
(362.278,600.064,o),
(426.714,600.064,cs)
);
}
);
width = 827;
}
);
unicode = 3214;
},
{
color = 5;
glyphname = "ee-kannada";
layers = (
{
layerId = "181B3FD6-98F3-4D7B-8C67-56E528B8E974";
shapes = (
{
closed = 1;
nodes = (
(860.312,103.373,o),
(699.223,-8.047,o),
(593.172,-8.047,cs),
(497.862,-8.047,o),
(426.714,77.867,o),
(411.947,115.454,c),
(390.469,77.867,o),
(354.224,0.007,o),
(240.119,1.35,cs),
(130.042,2.692,o),
(40.1,55.046,o),
(40.1,173.178,cs),
(40.1,234.929,o),
(68.291,289.967,o),
(135.411,289.967,cs),
(213.271,289.967,o),
(265.625,248.353,o),
(261.598,189.287,cs),
(258.913,136.933,o),
(214.613,115.454,o),
(171.656,115.454,cs),
(140.781,115.454,o),
(107.221,135.59,o),
(100.509,167.808,cs),
(96.482,186.602,o),
(127.357,202.711,o),
(135.411,194.656,cs),
(148.835,181.232,o),
(156.89,167.808,o),
(174.341,167.808,cs),
(211.929,167.808,o),
(202.532,222.847,o),
(181.053,234.929,cs),
(127.357,264.462,o),
(70.976,232.244,o),
(70.976,179.89,cs),
(70.976,103.373,o),
(168.972,68.47,o),
(230.722,68.47,cs),
(320.664,68.47,o),
(371.675,131.563,o),
(402.551,204.053,cs),
(403.893,206.738,o),
(410.605,206.738,o),
(411.947,201.368,cs),
(426.714,131.563,o),
(488.465,72.497,o),
(564.982,68.47,c),
(677.744,60.416,o),
(767.685,171.835,o),
(731.44,271.174,cs),
(697.88,359.773,o),
(610.624,456.426,o),
(543.503,468.508,cs),
(527.394,471.192,o),
(540.819,428.235,o),
(513.97,385.278,cs),
(491.149,349.033,o),
(444.165,336.952,o),
(406.578,345.006,c),
(340.8,357.088,o),
(284.419,421.523,o),
(295.158,510.122,cs),
(305.897,589.324,o),
(421.344,649.733,o),
(489.807,653.76,cs),
(540.819,657.787,o),
(551.558,598.721,o),
(524.71,589.324,cs),
(483.095,575.9,o),
(437.453,575.9,o),
(402.551,562.476,cs),
(364.963,549.052,o),
(340.8,534.286,o),
(340.8,488.644,cs),
(340.8,447.029,o),
(368.99,413.469,o),
(411.947,406.757,cs),
(487.122,396.018,o),
(481.753,473.877,o),
(481.753,519.519,cs),
(481.753,531.601,o),
(484.437,539.655,o),
(496.519,538.313,cs),
(602.569,527.574,o),
(718.016,421.523,o),
(762.316,323.528,cs)
);
}
);
width = 833;
}
);
unicode = 3215;
},
{
color = 5;
glyphname = "ai-kannada";
layers = (
{
layerId = "181B3FD6-98F3-4D7B-8C67-56E528B8E974";
shapes = (
{
closed = 1;
nodes = (
(796.479,115.454,o),
(710.565,-8.047,o),
(603.172,-8.047,cs),
(507.862,-8.047,o),
(436.714,77.867,o),
(421.947,115.454,c),
(400.469,77.867,o),
(364.224,0.007,o),
(250.119,1.35,cs),
(140.042,2.692,o),
(50.1,55.046,o),
(50.1,173.178,cs),
(50.1,234.929,o),
(78.291,289.967,o),
(145.411,289.967,cs),
(223.271,289.967,o),
(275.625,248.353,o),
(271.598,189.287,cs),
(268.913,136.933,o),
(224.613,115.454,o),
(181.656,115.454,cs),
(150.781,115.454,o),
(117.221,135.59,o),
(110.509,167.808,cs),
(106.482,186.602,o),
(137.357,202.711,o),
(145.411,194.656,cs),
(158.835,181.232,o),
(166.89,167.808,o),
(184.341,167.808,cs),
(221.929,167.808,o),
(212.532,222.847,o),
(191.053,234.929,cs),
(137.357,264.462,o),
(80.976,232.244,o),
(80.976,179.89,cs),
(80.976,103.373,o),
(178.972,68.47,o),
(240.722,68.47,cs),
(330.664,68.47,o),
(381.675,131.563,o),
(412.551,204.053,cs),
(413.893,206.738,o),
(420.605,206.738,o),
(421.947,201.368,cs),
(436.714,131.563,o),
(498.465,71.155,o),
(574.982,68.47,cs),
(734.728,63.1,o),
(795.137,257.75,o),
(728.016,385.278,cs),
(685.059,463.138,o),
(628.678,507.437,o),
(540.079,494.013,cs),
(436.714,479.247,o),
(407.181,408.099,o),
(391.072,389.306,c),
(380.333,408.099,o),
(372.278,433.605,o),
(358.854,457.768,cs),
(332.006,508.78,o),
(285.022,526.231,o),
(225.956,526.231,cs),
(154.808,526.231,o),
(90.373,471.192,o),
(130.645,404.072,cs),
(150.781,370.512,o),
(93.057,343.664,o),
(63.525,370.512,c),
(47.416,387.963,o),
(40.704,417.496,o),
(40.704,440.317,cs),
(40.704,550.394,o),
(133.33,612.145,o),
(228.641,598.721,cs),
(326.636,583.955,o),
(372.278,508.78,o),
(393.757,463.138,c),
(420.605,514.149,o),
(467.589,579.927,o),
(570.955,579.927,cs),
(754.865,579.927,o),
(796.479,389.306,o),
(796.479,241.641,cs)
);
}
);
width = 837;
}
);
unicode = 3216;
},
{
color = 5;
glyphname = "o-kannada";
layers = (
{
attr = {
color = 1;
};
layerId = "181B3FD6-98F3-4D7B-8C67-56E528B8E974";
shapes = (
{
attr = {
fill = 1;
fillColor = (0,255);
};
closed = 1;
nodes = (
(50.786,527.112,o),
(95.857,608.529,o),
(188.905,599.806,cs),
(273.231,592.536,o),
(351.74,531.473,o),
(300.854,434.063,cs),
(284.862,402.078,o),
(231.068,354.1,o),
(203.444,323.568,cs),
(167.097,284.313,o),
(119.119,236.335,o),
(119.119,179.634,cs),
(119.119,77.862,o),
(248.515,57.507,o),
(322.663,89.493,cs),
(382.272,114.209,o),
(405.534,136.017,o),
(405.534,191.265,cs),
(405.534,208.711,o),
(449.151,256.689,o),
(454.966,229.066,cs),
(470.959,150.556,o),
(543.653,50.238,o),
(611.986,50.238,cs),
(702.126,50.238,o),
(726.842,141.833,o),
(677.41,239.243,cs),
(664.325,263.959,o),
(680.318,274.136,o),
(709.396,274.136,cs),
(761.736,274.136,o),
(777.728,213.073,o),
(777.728,172.364,cs),
(777.728,85.131,o),
(696.311,3.714,o),
(609.078,3.714,cs),
(494.221,3.714,o),
(469.505,57.507,o),
(417.165,106.939,c),
(377.91,40.061,o),
(319.755,0.806,o),
(210.714,0.806,cs),
(138.019,0.806,o),
(37.702,63.323,o),
(40.609,141.833,cs),
(43.517,242.15,o),
(175.82,332.291,o),
(226.706,388.993,cs),
(265.961,431.155,o),
(249.969,524.204,o),
(178.728,524.204,cs),
(148.197,524.204,o),
(116.211,506.757,o),
(110.396,483.495,cs),
(101.672,447.148,o),
(129.296,445.694,o),
(159.828,445.694,cs),
(191.813,445.694,o),
(196.175,423.886,o),
(188.905,406.439,cs),
(178.728,381.723,o),
(148.197,374.454,o),
(124.935,374.454,cs),
(84.226,374.454,o),
(50.786,423.886,o),
(50.786,461.687,cs)
);
}
);
width = 818;
}
);
unicode = 3218;
},
{
color = 5;
glyphname = "oo-kannada";
layers = (
{
layerId = "181B3FD6-98F3-4D7B-8C67-56E528B8E974";
shapes = (
{
closed = 1;
nodes = (
(202.93,607.399,o),
(208.876,603.435,o),
(204.912,609.381,cs),
(177.166,649.018,o),
(151.401,694.601,o),
(151.401,738.202,cs),
(151.401,801.622,o),
(218.785,821.44,o),
(272.295,821.44,cs),
(307.969,821.44,o),
(331.751,821.44,o),
(335.715,791.712,cs),
(337.697,775.857,o),
(321.842,767.93,o),
(311.933,767.93,cs),
(278.241,767.93,o),
(216.803,736.22,o),
(218.785,694.601,cs),
(220.767,652.982,o),
(234.64,621.272,o),
(248.513,611.363,cs),
(276.259,589.562,o),
(359.497,601.453,o),
(369.407,516.233,cs),
(383.28,379.484,o),
(149.42,322.01,o),
(149.42,179.316,cs),
(149.42,78.241,o),
(278.241,58.422,o),
(353.552,90.132,cs),
(413.008,113.914,o),
(434.808,135.715,o),
(434.808,191.207,cs),
(434.808,209.044,o),
(478.409,256.609,o),
(484.355,228.863,cs),
(500.21,149.588,o),
(573.539,50.495,o),
(642.904,50.495,cs),
(732.088,50.495,o),
(755.87,141.661,o),
(708.306,238.772,cs),
(694.433,264.536,o),
(710.287,274.446,o),
(740.015,274.446,cs),
(791.544,274.446,o),
(807.399,213.008,o),
(807.399,171.389,cs),
(807.399,84.187,o),
(726.142,2.93,o),
(638.94,2.93,cs),
(523.992,2.93,o),
(500.21,58.422,o),
(446.699,105.987,c),
(407.062,40.585,o),
(349.588,0.948,o),
(240.585,0.948,cs),
(167.256,0.948,o),
(68.163,62.386,o),
(70.145,141.661,cs),
(74.109,236.79,o),
(208.876,341.829,o),
(268.332,405.249,cs),
(321.842,462.723,o),
(302.023,500.378,o),
(270.313,532.088,cs),
(258.422,545.961,o),
(284.186,389.394,o),
(141.492,389.394,cs),
(86.,389.394,o),
(40.417,431.013,o),
(40.417,490.469,cs),
(40.417,559.834,o),
(84.018,599.471,o),
(151.401,603.435,cs)
);
},
{
closed = 1;
nodes = (
(93.927,516.233,o),
(95.909,434.977,o),
(173.202,434.977,cs),
(196.984,434.977,o),
(220.767,456.777,o),
(226.712,476.596,cs),
(230.676,490.469,o),
(232.658,500.378,o),
(232.658,512.269,cs),
(232.658,545.961,o),
(220.767,553.889,o),
(196.984,561.816,cs),
(183.111,565.78,o),
(135.547,571.725,o),
(111.764,540.016,cs)
);
}
);
width = 848;
}
);
unicode = 3219;
},
{
color = 5;
glyphname = "au-kannada";
layers = (
{
layerId = "181B3FD6-98F3-4D7B-8C67-56E528B8E974";
shapes = (
{
closed = 1;
nodes = (
(350.424,771.767,o),
(620.994,755.116,o),
(889.482,755.116,cs),
(1010.198,755.116,o),
(1087.207,732.222,o),
(1145.483,623.994,cs),
(1170.459,576.124,o),
(1187.109,532.416,o),
(1191.272,463.733,cs),
(1199.597,322.204,o),
(1130.914,203.57,o),
(1003.954,203.57,cs),
(931.109,203.57,o),
(856.182,257.684,o),
(835.368,307.635,cs),
(804.149,382.562,o),
(808.311,476.221,o),
(914.458,476.221,cs),
(949.84,476.221,o),
(995.629,455.408,o),
(991.466,395.05,cs),
(987.304,340.936,o),
(918.621,328.448,o),
(895.726,340.936,c),
(897.808,286.822,o),
(937.352,245.196,o),
(999.792,243.115,cs),
(1116.345,238.952,o),
(1155.89,347.18,o),
(1151.727,447.083,cs),
(1147.564,522.01,o),
(1110.101,605.262,o),
(1072.637,640.644,cs),
(1008.117,701.002,o),
(912.377,696.84,o),
(831.206,696.84,cs),
(706.327,696.84,o),
(581.449,690.596,o),
(454.489,690.596,cs),
(433.676,690.596,o),
(375.4,694.758,o),
(389.969,655.214,cs),
(414.944,596.937,o),
(379.562,542.823,o),
(319.204,522.01,c),
(317.123,540.742,o),
(258.846,549.067,o),
(210.976,549.067,cs),
(117.318,549.067,o),
(102.748,542.823,o),
(69.447,542.823,cs),
(42.391,542.823,o),
(25.74,603.181,o),
(56.96,603.181,cs),
(142.293,603.181,o),
(263.009,596.937,o),
(312.96,592.774,cs),
(340.017,590.693,o),
(369.156,599.018,o),
(369.156,628.157,cs),
(369.156,667.701,o),
(310.879,690.596,o),
(275.497,690.596,cs),
(223.464,690.596,o),
(131.887,682.27,o),
(81.935,682.27,cs),
(15.334,682.27,o),
(46.553,771.767,o),
(81.935,771.767,cs)
);
},
{
alignment = -1;
pos = (11,0);
ref = "o-kannada";
}
);
width = 1232;
}
);
unicode = 3220;
},
{
color = (255, 153, 153, 255);
glyphname = "anusvara-kannada";
layers = (
{
layerId = "181B3FD6-98F3-4D7B-8C67-56E528B8E974";
shapes = (
{
closed = 1;
nodes = (
(29.801,399.778,o),
(94.325,575.439,o),
(221.908,575.659,cs),
(341.017,576.54,o),
(430.744,486.578,o),
(440.043,311.392,cs),
(448.744,141.172,o),
(375.874,-6.948,o),
(239.02,0.113,cs),
(78.596,7.701,o),
(31.363,163.216,o),
(30.547,295.765,cs)
);
},
{
closed = 1;
nodes = (
(63.068,220.756,o),
(97.386,88.875,o),
(233.245,90.09,cs),
(355.664,91.368,o),
(388.022,199.359,o),
(386.082,313.303,cs),
(384.939,420.627,o),
(348.042,532.049,o),
(225.226,534.081,cs),
(112.738,533.996,o),
(78.064,417.331,o),
(72.054,327.618,cs)
);
}
);
width = 471;
}
);
unicode = 3202;
},
{
color = (255, 153, 153, 255);
glyphname = "visarga-kannada";
layers = (
{
layerId = "181B3FD6-98F3-4D7B-8C67-56E528B8E974";
shapes = (
{
closed = 1;
nodes = (
(27.279,562.689,o),
(56.989,597.09,o),
(102.335,597.09,cs),
(127.354,597.09,o),
(161.755,576.762,o),
(168.009,542.361,cs),
(177.391,484.506,o),
(144.554,450.105,o),
(92.953,456.359,cs),
(61.68,459.487,o),
(33.534,476.687,o),
(30.406,517.343,cs)
);
},
{
closed = 1;
nodes = (
(63.243,501.706,o),
(74.189,487.633,o),
(97.644,487.633,cs),
(116.408,487.633,o),
(133.609,500.142,o),
(133.609,523.597,cs),
(133.609,542.361,o),
(121.099,556.434,o),
(103.899,557.998,cs),
(78.88,561.125,o),
(63.243,543.925,o),
(63.243,523.597,cs)
);
},
{
closed = 1;
nodes = (
(30.406,149.88,o),
(61.68,170.208,o),
(89.826,173.335,cs),
(135.172,178.026,o),
(169.573,148.316,o),
(169.573,104.534,cs),
(169.573,59.187,o),
(141.427,34.169,o),
(96.08,34.169,cs),
(52.298,34.169,o),
(30.406,63.878,o),
(30.406,106.097,cs)
);
},
{
closed = 1;
nodes = (
(55.425,84.206,o),
(72.625,63.878,o),
(94.517,63.878,cs),
(119.535,63.878,o),
(136.736,81.079,o),
(136.736,102.97,cs),
(136.736,127.989,o),
(121.099,142.062,o),
(97.644,142.062,cs),
(71.062,142.062,o),
(55.425,127.989,o),
(55.425,104.534,cs)
);
}
);
width = 200;
}
);
unicode = 3203;
},
{
color = 5;
glyphname = "ka-kannada.base";
layers = (
{
attr = {
color = 1;
};
layerId = "181B3FD6-98F3-4D7B-8C67-56E528B8E974";
shapes = (
{
attr = {
fill = 1;
fillColor = (0,255);
};
closed = 1;
nodes = (
(287.216,570.247,o),
(287.216,549.985,o),
(287.216,536.477,c),
(275.959,536.477,o),
(264.703,535.352,o),
(251.195,536.477,c),
(262.451,522.97,o),
(279.336,482.446,o),
(279.336,450.928,cs),
(279.336,417.158,o),
(269.205,376.634,o),
(246.692,350.744,c),
(277.085,350.744,o),
(327.74,350.744,o),
(358.132,350.744,cs),
(375.017,350.744,o),
(402.033,348.493,o),
(402.033,324.854,cs),
(402.033,302.341,o),
(391.902,291.084,o),
(369.389,291.084,cs),
(334.493,291.084,o),
(299.598,291.084,o),
(261.326,291.084,c),
(318.734,260.692,o),
(353.63,190.901,o),
(353.63,136.869,cs),
(353.63,45.691,o),
(273.708,-0.461,o),
(194.912,-0.461,cs),
(121.744,-0.461,o),
(42.949,53.571,o),
(39.572,142.498,cs),
(37.32,211.163,o),
(76.718,260.692,o),
(130.75,291.084,c),
(103.734,291.084,o),
(59.833,291.084,o),
(13.681,291.084,cs),
(-7.706,291.084,o),
(-2.078,350.744,o),
(18.184,350.744,cs),
(42.949,350.744,o),
(87.975,350.744,o),
(113.865,350.744,cs),
(162.268,350.744,o),
(238.813,362.001,o),
(238.813,425.037,cs),
(238.813,480.195,o),
(209.546,536.477,o),
(151.012,536.477,cs),
(112.739,536.477,o),
(67.713,535.352,o),
(24.938,536.477,cs),
(4.676,536.477,o),
(18.184,599.514,o),
(45.2,599.514,cs),
(127.373,599.514,o),
(206.169,599.514,o),
(287.216,599.514,c)
);
},
{
attr = {
fill = 1;
fillColor = (0,255);
};
closed = 1;
nodes = (
(95.854,101.974,o),
(135.252,60.325,o),
(194.912,59.199,cs),
(264.703,58.073,o),
(299.598,112.105,o),
(299.598,159.383,cs),
(299.598,219.042,o),
(268.08,279.828,o),
(201.666,279.828,cs),
(142.006,279.828,o),
(95.854,219.042,o),
(95.854,159.383,cs)
);
}
);
width = 403;
}
);
},
{
color = 5;
glyphname = "kha-kannada.base";
layers = (
{
attr = {
color = 1;
};
layerId = "181B3FD6-98F3-4D7B-8C67-56E528B8E974";
shapes = (
{
attr = {
fill = 1;
fillColor = (0,255);
};
closed = 1;
nodes = (
(92.028,-0.934,o),
(19.097,23.863,o),
(4.511,77.832,cs),
(-12.993,147.846,o),
(32.225,195.981,o),
(103.697,210.567,cs),
(156.208,220.778,o),
(197.05,217.861,o),
(256.853,204.733,cs),
(278.733,200.357,o),
(288.943,247.033,o),
(291.861,267.454,cs),
(302.071,343.303,o),
(302.071,417.693,o),
(283.109,499.376,cs),
(272.898,540.218,o),
(229.14,556.262,o),
(199.967,556.262,cs),
(183.922,556.262,o),
(156.208,546.052,o),
(147.456,522.714,cs),
(141.622,505.21,o),
(151.832,478.955,o),
(181.005,483.331,cs),
(197.05,484.79,o),
(207.26,496.459,o),
(213.095,508.128,cs),
(223.305,525.631,o),
(240.809,530.007,o),
(240.809,505.21,cs),
(240.809,467.286,o),
(210.177,429.362,o),
(175.17,429.362,cs),
(150.374,429.362,o),
(106.615,449.783,o),
(99.322,489.166,cs),
(86.194,551.887,o),
(140.163,600.021,o),
(204.343,600.021,cs),
(251.019,600.021,o),
(294.778,589.811,o),
(313.74,540.218,cs),
(369.168,400.189,o),
(299.154,271.83,o),
(334.161,207.65,cs),
(356.04,168.267,o),
(510.655,187.229,o),
(533.993,204.733,cs),
(596.714,252.868,o),
(561.707,462.91,o),
(529.617,540.218,cs),
(493.151,633.57,o),
(582.128,651.073,o),
(596.714,556.262,cs),
(608.383,459.993,o),
(634.638,229.53,o),
(561.707,172.643,cs),
(498.986,123.05,o),
(350.206,147.846,o),
(335.619,140.553,cs),
(288.943,117.215,o),
(302.071,-0.934,o),
(134.329,-0.934,cs)
);
},
{
attr = {
fill = 1;
fillColor = (0,255);
};
closed = 1;
nodes = (
(264.147,131.801,o),
(264.147,146.388,o),
(264.147,147.846,c),
(262.688,153.681,o),
(194.132,165.35,o),
(115.366,159.515,cs),
(81.818,158.057,o),
(23.473,133.26,o),
(27.849,90.96,cs),
(32.225,50.118,o),
(84.735,29.697,o),
(134.329,29.697,cs),
(194.132,29.697,o),
(255.395,50.118,o),
(264.147,125.967,cs)
);
}
);
width = 612;
}
);
},
{
color = 5;
glyphname = "ga-kannada.base";
layers = (
{
attr = {
color = 1;
};
layerId = "181B3FD6-98F3-4D7B-8C67-56E528B8E974";
shapes = (
{
attr = {
fill = 1;
fillColor = (0,255);
};
closed = 1;
nodes = (
(413.07,536.257,o),
(381.369,536.257,o),
(348.083,536.257,cs),
(336.987,536.257,o),
(371.858,483.95,o),
(382.954,466.514,cs),
(451.111,365.07,o),
(538.29,162.182,o),
(538.29,38.548,cs),
(538.29,5.261,o),
(516.099,-2.664,o),
(487.568,-2.664,cs),
(470.132,-2.664,o),
(465.377,14.772,o),
(465.377,22.697,cs),
(465.377,157.427,o),
(409.9,319.103,o),
(359.178,439.568,cs),
(346.497,469.684,o),
(322.722,504.555,o),
(306.871,536.257,c),
(259.319,536.257,l),
(207.012,453.833,o),
(142.025,311.178,o),
(115.079,214.489,cs),
(111.909,201.809,o),
(94.473,135.236,o),
(89.718,117.801,cs),
(80.207,84.514,o),
(75.452,2.091,o),
(38.996,2.091,cs),
(10.465,2.091,o),
(0.954,17.942,o),
(0.954,46.473,cs),
(0.954,132.066,o),
(92.888,323.858,o),
(148.365,401.526,cs),
(180.066,444.323,o),
(249.809,536.257,o),
(233.958,536.257,cs),
(211.767,536.257,o),
(94.473,536.257,o),
(70.697,536.257,cs),
(10.465,536.257,o),
(-3.801,599.659,o),
(56.431,599.659,c),
(451.111,599.659,l),
(451.111,544.182,o),
(451.111,563.203,o),
(451.111,536.257,c)
);
}
);
width = 539;
}
);
},
{
glyphname = "gha-kannada.base";
layers = (
{
layerId = "181B3FD6-98F3-4D7B-8C67-56E528B8E974";
shapes = (
{
closed = 1;
nodes = (
(554,600,l),
(554,598,o),
(554,563,o),
(554,536,c),
(495,536,o),
(418,536,o),
(360,536,cs),
(348,536,o),
(390,529,o),
(390,471,cs),
(390,432,o),
(345,390,o),
(294,399,cs),
(259,405,o),
(234,442,o),
(233,479,cs),
(232,522,o),
(268,536,o),
(253,536,cs),
(184,536,o),
(104,536,o),
(35,536,cs),
(-8,536,o),
(-15,600,o),
(37,600,cs)
);
},
{
closed = 1;
nodes = (
(264,456,o),
(278,439,o),
(301,439,cs),
(325,439,o),
(353,451,o),
(351,479,cs),
(348,514,o),
(313,523,o),
(291,516,cs),
(268,509,o),
(261,494,o),
(263,474,cs)
);
},
{
closed = 1;
nodes = (
(632,514,o),
(654,529,o),
(673,529,cs),
(728,529,o),
(748,415,o),
(748,371,cs),
(748,321,o),
(733,255,o),
(668,261,cs),
(631,265,o),
(698,219,o),
(698,154,cs),
(698,62,o),
(649,-2,o),
(572,-2,cs),
(472,-2,o),
(430,45,o),
(378,105,cs),
(361,125,o),
(353,124,o),
(341,109,cs),
(289,45,o),
(246,-2,o),
(164,-2,cs),
(59,-2,o),
(13,90,o),
(13,181,cs),
(13,234,o),
(52,271,o),
(100,271,cs),
(142,271,o),
(190,242,o),
(192,186,cs),
(194,132,o),
(142,107,o),
(112,117,cs),
(99,122,o),
(95,125,o),
(95,109,cs),
(95,72,o),
(147,70,o),
(171,70,cs),
(251,70,o),
(293,93,o),
(323,137,cs),
(331,149,o),
(336,177,o),
(336,192,cs),
(336,207,o),
(331,246,o),
(355,246,cs),
(381,246,o),
(375,209,o),
(378,192,cs),
(387,140,o),
(423,83,o),
(472,70,cs),
(530,55,o),
(636,72,o),
(646,145,cs),
(659,244,o),
(601,303,o),
(584,322,cs),
(566,342,o),
(530,390,o),
(487,463,cs),
(463,504,o),
(480,508,o),
(517,508,cs),
(586,509,o),
(587,336,o),
(643,336,cs),
(666,336,o),
(698,356,o),
(698,380,cs),
(698,432,o),
(632,450,o),
(632,495,cs)
);
},
{
closed = 1;
nodes = (
(66,171,o),
(80,154,o),
(103,154,cs),
(127,154,o),
(155,166,o),
(153,194,cs),
(150,229,o),
(115,238,o),
(93,231,cs),
(70,224,o),
(63,209,o),
(65,189,cs)
);
},
{
alignment = -1;
pos = (319,0);
ref = "drop-kannada";
}
);
width = 748;
}
);
},
{
color = 5;
glyphname = "ca-kannada.base";
layers = (
{
layerId = "181B3FD6-98F3-4D7B-8C67-56E528B8E974";
shapes = (
{
closed = 1;
nodes = (
(686.266,579.541,o),
(697.696,570.016,o),
(720.554,545.253,cs),
(735.793,530.014,o),
(771.986,480.486,o),
(771.986,436.674,cs),
(771.986,370.003,o),
(752.937,356.668,o),
(709.125,307.141,c),
(739.603,265.234,o),
(762.462,236.66,o),
(762.462,183.323,cs),
(762.462,84.269,o),
(684.361,-1.451,o),
(579.592,-1.451,cs),
(472.918,-1.451,o),
(404.342,93.793,o),
(383.389,133.796,c),
(362.435,97.603,o),
(339.576,-1.451,o),
(192.899,-1.451,cs),
(88.13,-1.451,o),
(2.41,57.601,o),
(0.505,173.799,cs),
(0.505,318.571,o),
(248.141,362.383,o),
(248.141,493.821,cs),
(248.141,537.633,o),
(192.899,558.587,o),
(154.802,560.492,cs),
(112.894,560.492,o),
(95.75,533.823,o),
(95.75,509.06,cs),
(95.75,457.628,o),
(156.706,446.198,o),
(175.755,484.296,cs),
(185.28,503.345,o),
(213.853,503.345,o),
(213.853,480.486,cs),
(213.853,444.293,o),
(185.28,402.386,o),
(120.514,402.386,cs),
(82.416,402.386,o),
(50.033,434.769,o),
(46.223,474.772,cs),
(42.413,518.584,o),
(70.986,594.78,o),
(152.897,594.78,cs),
(221.473,594.78,o),
(286.239,562.397,o),
(286.239,478.581,cs),
(286.239,356.668,o),
(51.937,328.095,o),
(51.937,192.848,cs),
(51.937,109.033,o),
(147.182,76.649,o),
(200.519,76.649,cs),
(301.478,76.649,o),
(360.53,120.462,o),
(360.53,215.707,cs),
(360.53,223.326,o),
(360.53,257.614,o),
(371.959,274.758,cs),
(381.484,288.092,o),
(394.818,288.092,o),
(394.818,269.043,cs),
(394.818,249.995,o),
(387.198,236.66,o),
(387.198,225.231,cs),
(387.198,129.986,o),
(493.872,74.745,o),
(552.924,74.745,cs),
(642.454,74.745,o),
(720.554,93.793,o),
(720.554,202.372,cs),
(720.554,270.948,o),
(667.217,295.712,o),
(604.356,295.712,cs),
(585.307,295.712,o),
(556.734,295.712,o),
(552.924,295.712,cs),
(530.065,295.712,o),
(530.065,341.429,o),
(554.829,341.429,cs),
(592.927,341.429,o),
(625.31,339.524,o),
(665.312,339.524,c),
(699.6,339.524,o),
(733.889,383.337,o),
(731.984,438.579,cs),
(730.079,493.821,o),
(686.266,535.728,o),
(646.264,535.728,c),
(579.592,535.728,o),
(514.826,535.728,o),
(448.155,535.728,cs),
(417.677,535.728,o),
(415.772,600.495,o),
(448.155,600.495,cs),
(484.348,600.495,o),
(587.212,600.495,o),
(623.405,600.495,cs),
(631.024,600.495,o),
(665.312,600.495,o),
(671.027,600.495,c)
);
}
);
width = 772;
}
);
},
{
color = 5;
glyphname = "cha-kannada.base";
layers = (
{
attr = {
color = 1;
};
layerId = "181B3FD6-98F3-4D7B-8C67-56E528B8E974";
shapes = (
{
attr = {
fill = 1;
fillColor = (0,255);
};
closed = 1;
nodes = (
(757.168,148.232,o),
(696.287,-4.838,o),
(543.217,-4.838,cs),
(466.682,-4.838,o),
(402.323,50.824,o),
(383.189,89.092,c),
(353.619,50.824,o),
(299.696,2.12,o),
(195.33,2.12,cs),
(31.823,2.12,o),
(2.253,181.282,o),
(0.514,299.563,cs),
(0.514,421.324,o),
(75.309,558.739,o),
(210.985,558.739,cs),
(280.562,558.739,o),
(310.133,480.464,o),
(299.696,426.542,cs),
(289.26,377.838,o),
(244.034,348.267,o),
(204.027,348.267,cs),
(176.196,348.267,o),
(144.887,362.183,o),
(127.492,395.232,cs),
(106.619,433.5,o),
(130.971,482.204,o),
(164.02,426.542,cs),
(188.372,384.795,o),
(244.034,395.232,o),
(247.513,454.373,cs),
(249.253,483.943,o),
(228.379,503.077,o),
(200.548,503.077,cs),
(59.654,503.077,o),
(37.042,336.091,o),
(49.218,235.204,cs),
(57.915,162.148,o),
(94.443,76.915,o),
(197.07,64.739,cs),
(297.957,52.563,o),
(350.14,104.746,o),
(364.055,162.148,cs),
(371.013,193.458,o),
(386.668,193.458,o),
(393.626,160.408,cs),
(405.802,97.789,o),
(457.985,61.261,o),
(531.041,61.261,cs),
(630.189,61.261,o),
(722.379,144.753,o),
(715.421,282.169,cs),
(710.203,409.147,o),
(598.879,536.126,o),
(539.738,536.126,cs),
(409.281,536.126,ls),
(390.147,536.126,o),
(365.795,600.485,o),
(407.541,600.485,cs),
(482.337,600.485,o),
(590.182,600.485,o),
(664.978,600.485,c),
(664.978,584.83,o),
(664.978,560.478,o),
(664.978,536.126,c),
(706.724,468.288,o),
(757.168,370.88,o),
(757.168,283.908,cs)
);
},
{
alignment = -1;
pos = (344,10);
ref = "drop-kannada";
}
);
width = 758;
}
);
},
{
color = 5;
glyphname = "ja-kannada.base";
layers = (
{
attr = {
color = 1;
};
layerId = "181B3FD6-98F3-4D7B-8C67-56E528B8E974";
shapes = (
{
attr = {
fill = 1;
fillColor = (0,255);
};
closed = 1;
nodes = (
(676.171,625.886,o),
(676.171,562.354,o),
(664.151,562.354,cs),
(626.375,562.354,o),
(633.243,562.354,o),
(561.125,562.354,cs),
(521.632,562.354,o),
(595.467,524.577,o),
(595.467,431.854,cs),
(595.467,260.144,o),
(341.336,333.979,o),
(260.632,440.439,c),
(260.632,459.328,o),
(258.915,481.65,o),
(258.915,502.255,c),
(306.994,392.361,o),
(531.934,296.203,o),
(531.934,459.328,cs),
(531.934,514.275,o),
(525.066,562.354,o),
(423.757,562.354,cs),
(404.869,562.354,o),
(387.698,562.354,o),
(370.527,562.354,cs),
(339.619,562.354,o),
(267.5,625.886,o),
(341.336,625.886,cs),
(348.204,625.886,o),
(329.316,625.886,o),
(664.151,625.886,cs)
);
},
{
alignment = -1;
pos = (-40,0);
ref = "o-kannada";
}
);
width = 738;
}
);
},
{
color = 5;
glyphname = "jha-kannada.base";
layers = (
{
attr = {
color = 1;
};
layerId = "181B3FD6-98F3-4D7B-8C67-56E528B8E974";
shapes = (
{
attr = {
fill = 1;
fillColor = (0,255);
};
closed = 1;
nodes = (
(303,549,o),
(303,564,o),
(303,536,c),
(295,536,o),
(299,536,o),
(291,536,cs),
(286,536,o),
(276,529,o),
(285,518,c),
(361,449,o),
(411,362,o),
(411,260,cs),
(411,130,o),
(351,-1,o),
(206,-1,cs),
(62,-1,o),
(1,136,o),
(7,260,cs),
(14,404,o),
(104,482,o),
(156,518,c),
(167,529,o),
(166,536,o),
(157,536,cs),
(130,536,o),
(68,536,o),
(40,536,cs),
(-23,536,o),
(1,600,o),
(37,600,cs),
(121,600,o),
(218,600,o),
(303,600,c)
);
},
{
attr = {
fill = 1;
fillColor = (0,255);
};
closed = 1;
nodes = (
(62,166,o),
(107,71,o),
(215,71,cs),
(348,71,o),
(379,158,o),
(379,260,cs),
(379,353,o),
(320,482,o),
(231,482,cs),
(121,482,o),
(62,354,o),
(62,260,cs)
);
},
{
alignment = -1;
pos = (352,0);
ref = "uMatra-kannada";
},
{
alignment = -1;
pos = (643,0);
ref = "uMatra-kannada";
},
{
alignment = -1;
pos = (612,-4);
ref = "drop-kannada";
}
);
width = 985;
}
);
},
{
color = 5;
glyphname = "tta-kannada.base";
layers = (
{
attr = {
color = 1;
};
layerId = "181B3FD6-98F3-4D7B-8C67-56E528B8E974";
shapes = (
{
attr = {
fill = 1;
fillColor = (0,255);
};
closed = 1;
nodes = (
(468.383,587.552,o),
(491.32,599.556,o),
(507.841,600.256,cs),
(623.482,605.15,o),
(686.934,507.158,o),
(671.739,409.974,cs),
(661.971,347.499,o),
(625.966,318.392,o),
(600.217,307.648,c),
(645.378,283.355,o),
(677.588,239.207,o),
(679.533,160.677,cs),
(682.469,58.744,o),
(603.4,4.369,o),
(509.611,4.536,cs),
(436.53,4.201,o),
(362.473,92.091,o),
(355.007,105.566,c),
(350.199,88.813,o),
(328.136,56.158,o),
(297.463,31.415,cs),
(270.803,9.599,o),
(233.807,3.895,o),
(202.143,2.555,cs),
(180.116,1.623,o),
(151.089,3.152,o),
(131.583,7.843,cs),
(63.426,21.508,o),
(21.091,109.361,o),
(18.469,171.312,cs),
(14.739,259.42,o),
(52.179,287.209,o),
(110.211,317.248,c),
(104.624,351.49,o),
(129.711,410.477,o),
(109.949,453.773,cs),
(97.828,479.464,o),
(83.304,496.778,o),
(41.479,507.42,cs),
(20.596,512.053,o),
(1.264,512.614,o),
(0.331,534.641,cs),
(-1.767,584.201,o),
(46.359,587.618,o),
(78.547,576.568,cs),
(128.924,559.392,o),
(177.946,509.059,o),
(179.694,467.758,cs),
(181.733,419.574,o),
(142.123,377.902,o),
(166.692,351.359,cs),
(178.23,339.435,o),
(214.14,338.197,o),
(239.911,315.842,cs),
(265.682,293.488,o),
(265.704,260.389,o),
(265.937,254.882,cs),
(268.151,202.568,o),
(228.716,156.766,o),
(171.747,166.767,cs),
(125.908,174.481,o),
(89.277,225.338,o),
(112.542,262.181,c),
(112.484,263.557,o),
(102.789,264.526,o),
(93.385,258.611,cs),
(75.954,246.84,o),
(44.371,211.025,o),
(63.28,155.28,cs),
(91.732,69.597,o),
(160.683,69.758,o),
(205.764,79.941,cs),
(290.477,98.697,o),
(320.721,166.177,o),
(317.108,251.531,cs),
(316.292,270.805,o),
(363.099,272.786,o),
(366.727,252.252,cs),
(371.097,149.001,o),
(405.208,92.52,o),
(498.029,82.658,cs),
(540.998,77.581,o),
(632.944,88.369,o),
(632.26,169.71,cs),
(631.983,241.414,o),
(587.907,272.648,o),
(556.921,287.886,c),
(534.894,286.954,o),
(522.387,289.183,o),
(490.723,287.842,cs),
(453.553,286.269,o),
(456.379,349.83,o),
(471.522,350.471,cs),
(494.984,350.085,o),
(512.998,348.089,o),
(533.59,350.34,cs),
(621.581,356.822,o),
(645.538,475.064,o),
(599.794,513.124,cs),
(551.122,555.196,o),
(546.665,530.183,o),
(503.696,535.26,cs),
(475.987,538.224,o),
(469.665,557.265,o),
(469.199,568.279,cs)
);
},
{
attr = {
fill = 1;
fillColor = (0,255);
};
closed = 1;
nodes = (
(206.936,215.147,o),
(218.977,223.932,o),
(222.233,244.757,cs),
(226.516,273.901,o),
(197.991,296.139,o),
(175.964,295.207,cs),
(151.184,294.158,o),
(139.959,266.099,o),
(140.717,248.203,cs),
(141.766,223.422,o),
(168.389,213.516,o),
(187.663,214.332,cs)
);
}
);
width = 680;
}
);
},
{
color = 5;
glyphname = "dda-kannada.base";
layers = (
{
attr = {
color = 1;
};
layerId = "181B3FD6-98F3-4D7B-8C67-56E528B8E974";
shapes = (
{
attr = {
fill = 1;
fillColor = (0,255);
};
closed = 1;
nodes = (
(587.668,599.581,l),
(587.668,576.038,o),
(587.668,568.603,o),
(587.668,536.386,c),
(514.56,536.386,l),
(491.017,536.386,o),
(473.669,530.19,o),
(502.169,512.843,cs),
(565.364,475.669,o),
(704.145,351.757,o),
(722.732,231.562,cs),
(738.841,129.955,o),
(650.863,-6.349,o),
(529.429,-6.349,cs),
(445.169,-6.349,o),
(378.257,46.934,o),
(360.909,84.107,c),
(343.561,54.368,o),
(303.91,2.325,o),
(233.28,2.325,cs),
(80.868,3.564,o),
(16.434,108.89,o),
(16.434,246.432,cs),
(16.434,331.931,o),
(61.042,393.887,o),
(119.281,449.647,cs),
(134.15,464.517,o),
(206.019,507.886,o),
(224.606,519.038,cs),
(238.236,527.712,o),
(232.041,533.908,o),
(224.606,533.908,cs),
(181.237,533.908,o),
(96.977,531.429,o),
(58.564,531.429,cs),
(-5.87,531.429,o),
(-30.653,599.581,o),
(58.564,599.581,cs)
);
},
{
attr = {
fill = 1;
fillColor = (0,255);
};
closed = 1;
nodes = (
(73.433,168.367,o),
(109.368,77.912,o),
(209.736,77.912,cs),
(297.714,77.912,o),
(328.692,115.085,o),
(347.279,165.889,cs),
(355.953,188.193,o),
(373.3,190.671,o),
(381.974,165.889,cs),
(396.844,121.281,o),
(452.604,56.846,o),
(526.951,56.846,cs),
(617.407,56.846,o),
(683.08,149.78,o),
(683.08,231.562,cs),
(683.08,240.236,o),
(674.406,284.845,o),
(662.015,292.279,c),
(655.82,277.41,o),
(608.733,208.019,o),
(550.494,208.019,cs),
(497.212,208.019,o),
(467.473,241.475,o),
(466.234,273.692,cs),
(463.756,352.996,o),
(529.429,349.279,o),
(590.146,349.279,c),
(590.146,429.822,o),
(441.452,525.234,o),
(360.909,531.429,cs),
(308.866,535.147,o),
(239.475,493.017,o),
(206.019,464.517,cs),
(140.346,409.996,o),
(73.433,352.996,o),
(73.433,256.345,cs)
);
},
{
attr = {
fill = 1;
fillColor = (0,255);
};
closed = 1;
nodes = (
(500.93,271.214,o),
(517.038,246.432,o),
(539.342,243.954,cs),
(562.886,241.475,o),
(580.233,252.627,o),
(592.624,268.736,cs),
(605.016,284.845,o),
(593.864,320.779,o),
(569.081,325.735,cs),
(544.299,330.692,o),
(513.321,320.779,o),
(505.886,289.801,cs)
);
}
);
width = 725;
}
);
},
{
color = 5;
glyphname = "nna-kannada.base";
layers = (
{
attr = {
color = 1;
};
layerId = "181B3FD6-98F3-4D7B-8C67-56E528B8E974";
shapes = (
{
attr = {
fill = 1;
fillColor = (0,255);
};
closed = 1;
nodes = (
(266.449,600.66,o),
(357.09,564.716,o),
(368.029,564.716,cs),
(382.095,564.716,o),
(439.917,600.66,o),
(499.303,600.66,cs),
(621.2,600.66,o),
(679.023,527.209,o),
(694.651,381.87,cs),
(704.027,289.666,o),
(699.339,197.462,o),
(699.339,105.258,cs),
(699.339,80.254,o),
(696.214,45.872,o),
(666.521,47.435,cs),
(639.953,47.435,o),
(635.265,97.444,o),
(635.265,120.886,cs),
(635.265,144.328,o),
(643.079,174.02,o),
(646.205,197.462,cs),
(660.27,325.61,o),
(679.023,472.512,o),
(554.,533.46,cs),
(505.554,556.902,o),
(458.671,541.274,o),
(416.476,519.395,c),
(443.043,495.953,o),
(458.671,467.823,o),
(458.671,420.94,cs),
(458.671,366.243,o),
(425.852,331.861,o),
(368.029,331.861,cs),
(322.709,331.861,o),
(282.077,378.745,o),
(280.514,420.94,cs),
(280.514,466.261,o),
(286.765,489.702,o),
(322.709,519.395,c),
(257.072,538.149,o),
(150.803,555.339,o),
(83.603,472.512,cs),
(28.906,405.312,o),
(42.971,309.982,o),
(80.478,331.861,cs),
(139.863,366.243,o),
(238.319,330.299,o),
(236.756,253.722,cs),
(235.193,209.964,o),
(205.5,180.272,o),
(171.119,167.769,cs),
(142.989,158.393,o),
(91.417,159.955,o),
(71.101,183.397,c),
(71.101,159.955,o),
(72.664,125.574,o),
(74.227,99.007,cs),
(78.915,36.496,o),
(83.603,-13.513,o),
(83.603,-71.336,cs),
(83.603,-97.903,o),
(72.664,-96.341,o),
(47.659,-96.341,cs),
(28.906,-96.341,o),
(-2.35,-86.964,o),
(0.776,-51.02,cs),
(3.901,-13.513,o),
(7.027,36.496,o),
(11.715,80.254,cs),
(19.529,141.202,o),
(35.157,202.151,o),
(35.157,258.411,cs),
(35.157,277.164,o),
(22.655,300.606,o),
(17.966,319.359,cs),
(-25.791,500.642,o),
(105.482,600.66,o),
(221.128,600.66,cs)
);
},
{
attr = {
fill = 1;
fillColor = (0,255);
};
closed = 1;
nodes = (
(325.834,391.247,o),
(363.341,367.805,o),
(386.783,375.619,cs),
(411.787,383.433,o),
(418.038,405.312,o),
(416.476,430.317,cs),
(414.913,452.196,o),
(396.16,486.577,o),
(372.718,486.577,cs),
(350.839,486.577,o),
(319.583,466.261,o),
(322.709,430.317,cs)
);
},
{
attr = {
fill = 1;
fillColor = (0,255);
};
closed = 1;
nodes = (
(92.98,225.592,o),
(108.608,205.276,o),
(138.301,205.276,cs),
(167.993,205.276,o),
(192.998,224.029,o),
(194.561,249.034,cs),
(196.124,277.164,o),
(172.682,292.792,o),
(149.24,292.792,cs),
(116.422,292.792,o),
(92.98,270.913,o),
(92.98,242.783,cs)
);
},
{
attr = {
fill = 1;
fillColor = (0,255);
};
closed = 1;
nodes = (
(887.763,559.692,o),
(996.446,554.365,o),
(996.446,457.403,cs),
(996.446,382.817,o),
(944.235,321.017,o),
(867.518,321.017,cs),
(798.26,321.017,o),
(770.556,366.834,o),
(724.739,416.913,cs),
(667.201,484.041,o),
(602.205,543.71,o),
(453.033,553.299,c),
(482.867,576.741,o),
(488.195,579.937,o),
(509.505,599.117,c),
(668.267,599.117,o),
(750.311,388.144,o),
(853.667,380.686,cs),
(898.418,377.489,o),
(936.777,411.586,o),
(936.777,457.403,cs),
(936.777,513.875,o),
(877.108,579.937,o),
(847.273,599.117,c),
(858.994,599.117,o),
(866.453,599.117,o),
(887.763,599.117,c)
);
}
);
width = 997;
}
);
},
{
color = 5;
glyphname = "ta-kannada.base";
layers = (
{
attr = {
color = 1;
};
layerId = "181B3FD6-98F3-4D7B-8C67-56E528B8E974";
shapes = (
{
attr = {
fill = 1;
fillColor = (0,255);
};
closed = 1;
nodes = (
(317,349,o),
(332,376,o),
(328,422,cs),
(323,481,o),
(278,536,o),
(247,536,cs),
(219,536,o),
(109,536,o),
(81,536,cs),
(33,536,o),
(26,600,o),
(81,600,cs),
(184,600,o),
(239,600,o),
(340,600,c),
(340,584,o),
(340,554,o),
(340,536,c),
(326,536,o),
(338,536,o),
(327,536,cs),
(289,536,o),
(358,513,o),
(380,412,cs),
(388,377,o),
(372,334,o),
(354,315,c),
(389,289,o),
(423,232,o),
(423,168,cs),
(423,37,o),
(275,4,o),
(190,4,cs),
(83,4,o),
(-31,76,o),
(8,194,cs),
(31,264,o),
(96,227,o),
(73,191,cs),
(26,118,o),
(68,37,o),
(202,37,cs),
(268,37,o),
(394,94,o),
(387,207,cs),
(386,230,o),
(356,294,o),
(338,289,cs),
(315,282,o),
(289,250,o),
(218,246,cs),
(127,241,o),
(54,282,o),
(54,352,cs),
(54,394,o),
(123,429,o),
(190,416,cs),
(268,400,o),
(275,349,o),
(296,349,cs)
);
},
{
attr = {
fill = 1;
fillColor = (0,255);
};
closed = 1;
nodes = (
(179,393,o),
(137,375,o),
(124,357,cs),
(98,322,o),
(143,284,o),
(176,279,cs),
(229,272,o),
(275,289,o),
(275,328,cs),
(275,338,o),
(255,362,o),
(223,375,cs)
);
}
);
width = 423;
}
);
},
{
color = 5;
glyphname = "da-kannada.base";
layers = (
{
attr = {
color = 1;
};
layerId = "181B3FD6-98F3-4D7B-8C67-56E528B8E974";
shapes = (
{
attr = {
fill = 1;
fillColor = (0,255);
};
closed = 1;
nodes = (
(493.81,536.028,o),
(492.257,526.708,o),
(504.684,518.941,cs),
(624.294,447.486,o),
(726.817,344.963,o),
(726.817,197.392,cs),
(726.817,82.442,o),
(663.129,9.434,o),
(548.179,9.434,cs),
(420.802,9.434,o),
(380.414,107.296,o),
(371.094,119.723,c),
(358.667,104.19,o),
(322.939,3.22,o),
(186.242,3.22,cs),
(32.458,3.22,o),
(-25.017,164.771,o),
(10.71,270.401,cs),
(49.545,382.244,o),
(176.922,472.34,o),
(234.397,514.281,cs),
(263.911,536.028,o),
(220.416,536.028,o),
(203.329,536.028,cs),
(161.388,536.028,o),
(116.34,536.028,o),
(74.399,536.028,cs),
(26.244,536.028,o),
(-11.037,599.717,o),
(66.632,599.717,c),
(554.392,599.717,l),
(554.392,562.436,o),
(554.392,548.455,o),
(554.392,536.028,c)
);
},
{
attr = {
fill = 1;
fillColor = (0,255);
};
closed = 1;
nodes = (
(51.098,132.15,o),
(86.826,71.569,o),
(190.902,71.569,cs),
(280.998,71.569,o),
(326.046,99.529,o),
(355.56,178.752,cs),
(360.22,191.179,o),
(364.88,195.839,o),
(380.414,172.538,cs),
(422.355,108.85,o),
(467.403,66.908,o),
(535.752,71.569,cs),
(633.614,77.782,o),
(694.196,135.257,o),
(694.196,233.12,cs),
(694.196,362.05,o),
(523.325,531.368,o),
(388.181,531.368,cs),
(232.843,531.368,o),
(51.098,388.458,o),
(51.098,223.8,cs)
);
}
);
width = 728;
}
);
},
{
color = 5;
glyphname = "na-kannada.base";
layers = (
{
attr = {
color = 1;
};
layerId = "181B3FD6-98F3-4D7B-8C67-56E528B8E974";
shapes = (
{
attr = {
fill = 1;
fillColor = (0,255);
};
closed = 1;
nodes = (
(462.83,566.02,o),
(462.83,561.203,o),
(462.83,535.511,c),
(441.956,535.511,o),
(388.967,535.511,o),
(376.121,535.511,cs),
(369.698,535.511,o),
(361.669,530.694,o),
(369.698,522.665,cs),
(406.63,488.945,o),
(438.744,456.83,o),
(470.859,415.081,cs),
(501.368,376.544,o),
(592.895,254.508,o),
(588.077,140.501,cs),
(584.866,69.849,o),
(551.146,-4.015,o),
(470.859,-2.409,cs),
(337.583,0.802,o),
(255.691,207.942,o),
(133.655,207.942,cs),
(13.225,207.942,o),
(30.888,50.58,o),
(146.501,24.888,cs),
(188.25,15.254,o),
(194.673,-13.649,o),
(136.867,-7.226,cs),
(77.455,0.802,o),
(21.254,53.792,o),
(16.437,113.204,cs),
(10.014,190.279,o),
(61.397,241.662,o),
(125.627,248.085,cs),
(284.594,265.748,o),
(356.852,79.483,o),
(470.859,79.483,cs),
(511.002,79.483,o),
(528.665,118.021,o),
(528.665,153.347,cs),
(528.665,235.239,o),
(494.945,320.343,o),
(445.167,390.995,cs),
(398.601,458.436,o),
(326.343,535.511,o),
(310.286,535.511,cs),
(229.999,535.511,o),
(132.05,537.117,o),
(51.763,535.511,cs),
(-28.524,535.511,o),
(-2.832,599.74,o),
(51.763,599.74,cs),
(180.221,599.74,o),
(345.612,599.74,o),
(462.83,599.74,c)
);
}
);
width = 589;
}
);
},
{
color = 5;
glyphname = "pa-kannada.base";
layers = (
{
hints = (
{
horizontal = 1;
place = (310,-20);
target = down;
type = TopGhost;
}
);
layerId = "181B3FD6-98F3-4D7B-8C67-56E528B8E974";
shapes = (
{
closed = 1;
nodes = (
(299.22,394.956,o),
(260.302,421.899,o),
(251.321,457.824,cs),
(245.333,483.27,o),
(248.327,514.704,o),
(279.761,532.667,cs),
(282.755,534.164,o),
(279.761,535.66,o),
(275.27,535.66,cs),
(200.428,535.66,o),
(127.082,535.66,o),
(52.239,535.66,cs),
(-0.151,535.66,o),
(-31.585,600.025,o),
(52.239,600.025,cs),
(227.371,600.025,o),
(401.006,600.025,o),
(576.138,600.025,c),
(576.138,553.623,o),
(576.138,556.616,o),
(576.138,535.66,c),
(511.774,535.66,o),
(447.409,535.66,o),
(383.044,535.66,cs),
(374.063,535.66,o),
(415.975,525.182,o),
(415.975,472.792,cs),
(415.975,420.403,o),
(384.541,393.459,o),
(335.145,394.956,cs)
);
},
{
closed = 1;
nodes = (
(374.063,427.887,o),
(380.05,454.83,o),
(380.05,478.78,cs),
(380.05,507.22,o),
(362.088,525.182,o),
(335.145,526.679,cs),
(308.201,529.673,o),
(288.742,508.717,o),
(288.742,480.277,cs),
(288.742,450.34,o),
(308.201,418.906,o),
(344.126,423.396,cs)
);
},
{
closed = 1;
nodes = (
(646.491,487.761,o),
(709.359,490.755,o),
(709.359,469.799,cs),
(709.359,415.912,o),
(706.365,363.522,o),
(706.365,323.107,cs),
(706.365,279.698,o),
(704.868,237.786,o),
(700.377,191.384,cs),
(689.899,92.591,o),
(628.528,-0.214,o),
(525.245,-0.214,cs),
(453.396,-0.214,o),
(406.994,35.711,o),
(354.604,82.113,c),
(323.17,34.214,o),
(249.824,-1.711,o),
(173.484,-0.214,cs),
(76.189,1.283,o),
(4.34,85.107,o),
(4.34,179.409,cs),
(4.34,258.742,o),
(76.189,284.189,o),
(124.088,276.704,cs),
(167.497,270.717,o),
(201.925,234.792,o),
(201.925,191.384,cs),
(201.925,127.019,o),
(145.044,95.585,o),
(113.61,92.591,c),
(137.56,62.654,o),
(195.937,55.17,o),
(231.862,59.66,cs),
(336.642,73.132,o),
(348.616,171.925,o),
(348.616,263.233,cs),
(348.616,278.201,o),
(369.572,276.704,o),
(369.572,242.277,cs),
(369.572,216.83,o),
(365.082,170.428,o),
(372.566,147.975,cs),
(381.547,119.535,o),
(433.937,73.132,o),
(496.805,73.132,cs),
(591.107,73.132,o),
(671.937,122.528,o),
(671.937,239.283,cs),
(671.937,266.226,o),
(668.943,294.667,o),
(664.453,323.107,cs),
(650.981,399.447,o),
(653.975,394.956,o),
(647.987,465.308,cs)
);
},
{
closed = 1;
nodes = (
(68.704,128.516,o),
(101.635,124.025,o),
(125.585,138.994,cs),
(143.547,149.472,o),
(155.522,164.44,o),
(155.522,189.887,cs),
(155.522,215.333,o),
(134.566,237.786,o),
(107.623,239.283,cs),
(53.736,242.277,o),
(31.283,180.906,o),
(50.742,152.465,cs)
);
}
);
width = 710;
}
);
},
{
color = 5;
glyphname = "ba-kannada.base";
layers = (
{
attr = {
color = 1;
};
layerId = "181B3FD6-98F3-4D7B-8C67-56E528B8E974";
shapes = (
{
attr = {
fill = 1;
fillColor = (0,255);
};
closed = 1;
nodes = (
(66.078,120.45,o),
(147.833,59.951,o),
(245.938,69.762,cs),
(306.436,76.302,o),
(386.556,112.274,o),
(386.556,179.313,cs),
(386.556,225.095,o),
(422.528,226.731,o),
(433.973,185.853,cs),
(450.324,128.625,o),
(510.823,77.937,o),
(569.686,71.397,cs),
(698.858,56.681,o),
(752.816,179.313,o),
(752.816,292.134,cs),
(752.816,326.471,o),
(746.276,391.875,o),
(715.209,449.103,cs),
(674.332,525.952,o),
(625.279,540.668,o),
(600.753,558.654,cs),
(579.496,575.005,o),
(607.293,602.801,o),
(633.454,602.801,cs),
(749.546,602.801,o),
(783.883,403.32,o),
(787.153,303.58,cs),
(792.058,177.678,o),
(754.451,2.723,o),
(592.577,2.723,cs),
(463.405,2.723,o),
(420.893,122.085,o),
(409.447,144.976,c),
(404.542,118.815,o),
(353.854,1.088,o),
(249.208,-2.182,cs),
(113.496,-7.087,o),
(7.215,74.667,o),
(0.675,169.502,cs),
(-7.501,295.404,o),
(100.415,324.836,o),
(165.819,359.173,cs),
(206.696,380.429,o),
(247.573,431.117,o),
(245.938,483.44,cs),
(244.303,524.317,o),
(203.426,561.924,o),
(151.103,557.019,cs),
(103.685,553.749,o),
(95.51,525.952,o),
(95.51,499.791,cs),
(95.51,485.075,o),
(106.955,475.264,o),
(120.036,475.264,cs),
(154.373,475.264,o),
(151.103,512.871,o),
(167.454,512.871,cs),
(187.075,512.871,o),
(195.25,503.061,o),
(195.25,486.71,cs),
(195.25,439.292,o),
(147.833,408.226,o),
(106.955,408.226,cs),
(66.078,408.226,o),
(25.201,439.292,o),
(25.201,483.44,cs),
(25.201,557.019,o),
(75.889,592.991,o),
(138.022,599.531,cs),
(219.777,607.707,o),
(299.896,573.37,o),
(304.801,488.345,cs),
(309.707,416.401,o),
(252.478,378.794,o),
(195.25,347.727,cs),
(147.833,321.566,o),
(66.078,280.689,o),
(66.078,207.109,cs)
);
}
);
width = 788;
}
);
},
{
color = 10;
glyphname = "bha-kannada.base";
layers = (
{
layerId = "181B3FD6-98F3-4D7B-8C67-56E528B8E974";
shapes = (
{
closed = 1;
nodes = (
(594.327,530.367,l),
(620.821,508.056,o),
(644.527,475.985,o),
(643.132,422.997,cs),
(641.738,379.769,o),
(620.821,339.331,o),
(588.75,312.837,c),
(634.766,290.526,o),
(651.499,233.355,o),
(651.499,184.55,cs),
(651.499,109.251,o),
(573.411,79.968,o),
(509.268,79.968,cs),
(468.829,79.968,o),
(408.869,86.94,o),
(371.22,85.546,cs),
(360.064,85.546,o),
(354.487,79.968,o),
(351.698,64.63,cs),
(332.176,-35.769,o),
(272.216,-94.335,o),
(148.112,-94.335,cs),
(65.841,-94.335,o),
(0.303,-44.135,o),
(0.303,25.586,cs),
(0.303,72.996,o),
(43.53,125.984,o),
(116.04,144.112,cs),
(166.239,156.662,o),
(220.622,149.69,o),
(270.821,144.112,cs),
(293.132,141.323,o),
(293.132,149.69,o),
(293.132,167.817,cs),
(295.921,360.248,o),
(298.71,388.136,o),
(293.132,460.646,cs),
(290.343,491.323,o),
(262.455,531.762,o),
(203.889,530.367,cs),
(182.972,530.367,o),
(152.295,519.212,o),
(145.323,499.69,cs),
(128.59,452.279,o),
(178.789,443.913,o),
(198.311,446.702,cs),
(210.861,448.096,o),
(220.622,459.252,o),
(222.016,470.407,cs),
(226.2,489.929,o),
(252.694,481.562,o),
(252.694,466.224,cs),
(252.694,420.208,o),
(210.861,402.08,o),
(173.211,403.475,cs),
(143.929,403.475,o),
(107.674,428.574,o),
(107.674,466.224,cs),
(107.674,531.762,o),
(152.295,559.65,o),
(219.227,559.65,cs),
(293.132,558.256,o),
(327.992,482.957,o),
(340.542,396.503,cs),
(353.092,317.02,o),
(348.909,236.144,o),
(348.909,156.662,cs),
(348.909,146.901,o),
(362.853,146.901,o),
(369.825,146.901,cs),
(438.152,146.901,o),
(486.957,141.323,o),
(552.495,141.323,cs),
(597.116,141.323,o),
(605.483,194.311,o),
(605.483,222.2,cs),
(605.483,251.482,o),
(592.933,293.315,o),
(562.256,293.315,cs),
(524.606,293.315,o),
(488.351,293.315,o),
(452.096,293.315,cs),
(432.574,293.315,o),
(415.841,342.12,o),
(449.307,342.12,cs),
(479.985,342.12,o),
(507.873,342.12,o),
(538.55,342.12,cs),
(592.933,342.12,o),
(602.694,407.658,o),
(602.694,441.124,cs),
(602.694,463.435,o),
(581.778,535.945,o),
(552.495,535.945,cs),
(539.945,535.945,o),
(532.973,535.945,o),
(397.714,535.945,cs),
(364.248,535.945,o),
(365.642,600.088,o),
(397.714,600.088,c),
(594.327,600.088,l),
(594.327,577.778,o),
(594.327,572.2,o),
(594.327,535.945,c)
);
},
{
closed = 1;
nodes = (
(81.18,88.335,o),
(51.897,59.052,o),
(53.291,25.586,cs),
(56.08,-32.98,o),
(111.857,-53.896,o),
(160.662,-53.896,cs),
(224.805,-53.896,o),
(290.343,-14.852,o),
(295.921,31.164,cs),
(298.71,56.263,o),
(295.921,105.068,o),
(261.06,109.251,cs),
(208.072,116.223,o),
(160.662,116.223,o),
(116.04,100.885,cs)
);
}
);
width = 652;
}
);
},
{
color = 5;
glyphname = "ya-kannada.base";
layers = (
{
layerId = "181B3FD6-98F3-4D7B-8C67-56E528B8E974";
shapes = (
{
closed = 1;
nodes = (
(382,59,o),
(294,3,o),
(200,3,cs),
(63,3,o),
(-3,163,o),
(1,279,cs),
(7,452,o),
(70,578,o),
(213,563,cs),
(334,550,o),
(398,430,o),
(411,335,cs),
(418,286,o),
(416,263,o),
(411,190,cs),
(409,159,o),
(476,64,o),
(586,64,cs),
(713,64,o),
(751,214,o),
(751,300,cs),
(751,408,o),
(640,535,o),
(564,536,cs),
(530,536,o),
(494,536,o),
(462,536,cs),
(433,536,o),
(433,600,o),
(459,600,cs),
(544,600,o),
(607,600,o),
(692,600,c),
(692,578,o),
(692,568,o),
(692,536,c),
(679,536,o),
(681,536,o),
(671,536,c),
(724,472,o),
(775,417,o),
(786,332,cs),
(804,192,o),
(748,0,o),
(577,0,cs),
(500,0,o),
(438,73,o),
(402,150,c)
);
},
{
closed = 1;
nodes = (
(48,185,o),
(88,82,o),
(190,74,cs),
(326,64,o),
(401,185,o),
(377,314,cs),
(356,428,o),
(307,502,o),
(216,513,cs),
(104,526,o),
(48,411,o),
(48,291,cs)
);
}
);
width = 790;
}
);
},
{
color = 5;
glyphname = "ra-kannada.base";
layers = (
{
layerId = "181B3FD6-98F3-4D7B-8C67-56E528B8E974";
shapes = (
{
closed = 1;
nodes = (
(303,549,o),
(303,564,o),
(303,536,c),
(295,536,o),
(299,536,o),
(291,536,cs),
(286,536,o),
(276,529,o),
(285,518,c),
(361,449,o),
(411,362,o),
(411,260,cs),
(411,130,o),
(351,-1,o),
(206,-1,cs),
(62,-1,o),
(1,136,o),
(7,260,cs),
(14,404,o),
(104,482,o),
(156,518,c),
(167,529,o),
(166,536,o),
(157,536,cs),
(130,536,o),
(68,536,o),
(40,536,cs),
(-23,536,o),
(1,600,o),
(37,600,cs),
(121,600,o),
(218,600,o),
(303,600,c)
);
},
{
closed = 1;
nodes = (
(62,166,o),
(107,71,o),
(215,71,cs),
(348,71,o),
(379,158,o),
(379,260,cs),
(379,353,o),
(320,482,o),
(231,482,cs),
(121,482,o),
(62,354,o),
(62,260,cs)
);
}
);
width = 411;
}
);
},
{
color = 5;
glyphname = "la-kannada.base";
layers = (
{
attr = {
color = 1;
};
layerId = "181B3FD6-98F3-4D7B-8C67-56E528B8E974";
shapes = (
{
attr = {
fill = 1;
fillColor = (0,255);
};
closed = 1;
nodes = (
(739,545,o),
(732,545,o),
(706,545,cs),
(702,545,o),
(701,541,o),
(704,534,cs),
(749,445,o),
(765,338,o),
(732,233,cs),
(673,43,o),
(503,0,o),
(363,0,cs),
(150,0,o),
(0,90,o),
(0,315,cs),
(0,479,o),
(120,574,o),
(303,601,cs),
(461,624,o),
(554,556,o),
(554,461,cs),
(554,386,o),
(494,346,o),
(431,346,cs),
(338,346,o),
(308,426,o),
(260,426,cs),
(198,426,o),
(190,398,o),
(230,356,cs),
(245,340,o),
(245,318,o),
(218,318,cs),
(168,318,o),
(135,370,o),
(153,411,cs),
(170,450,o),
(220,476,o),
(253,476,cs),
(371,476,o),
(396,401,o),
(463,401,cs),
(523,401,o),
(523,453,o),
(498,491,cs),
(442,575,o),
(290,574,o),
(190,521,cs),
(101,474,o),
(63,388,o),
(63,301,cs),
(63,123,o),
(213,55,o),
(366,55,cs),
(559,55,o),
(669,178,o),
(681,321,cs),
(686,386,o),
(667,513,o),
(606,544,cs),
(586,554,o),
(549,609,o),
(589,609,cs),
(766,609,ls),
(774,609,o),
(774,545,o),
(766,545,cs)
);
}
);
width = 772;
}
);
},
{
color = 5;
glyphname = "lla-kannada.base";
layers = (
{
layerId = "181B3FD6-98F3-4D7B-8C67-56E528B8E974";
shapes = (
{
closed = 1;
nodes = (
(320,536,l),
(346,490,o),
(350,467,o),
(344,419,cs),
(330,297,o),
(254,241,o),
(222,208,c),
(261,191,o),
(282,141,o),
(282,103,cs),
(282,46,o),
(247,0,o),
(191,0,cs),
(149,0,o),
(120,58,o),
(120,95,cs),
(120,139,o),
(150,177,o),
(170,195,c),
(146,212,o),
(118,239,o),
(99,254,cs),
(25,310,o),
(0,375,o),
(0,463,cs),
(0,495,o),
(28,545,o),
(62,551,cs),
(120,562,o),
(147,542,o),
(147,490,cs),
(147,457,o),
(131,419,o),
(94,419,cs),
(55,419,o),
(61,445,o),
(40,445,cs),
(26,445,o),
(24,411,o),
(52,362,cs),
(87,301,o),
(135,273,o),
(194,248,c),
(289,322,o),
(332,375,o),
(317,493,cs),
(312,534,o),
(294,536,o),
(280,536,cs),
(246,536,o),
(209,536,o),
(174,536,cs),
(146,536,o),
(150,600,o),
(171,600,cs),
(209,600,o),
(297,600,o),
(324,600,c),
(324,579,o),
(324,556,o),
(324,536,c)
);
},
{
closed = 1;
nodes = (
(55,496,o),
(52,480,o),
(68,471,c),
(91,457,o),
(120,471,o),
(120,500,cs),
(120,521,o),
(108,533,o),
(87,533,cs),
(71,533,o),
(62,522,o),
(58,509,c)
);
},
{
closed = 1;
nodes = (
(149,68,o),
(168,44,o),
(197,44,cs),
(230,44,o),
(251,85,o),
(244,115,cs),
(239,138,o),
(224,159,o),
(199,159,cs),
(164,159,o),
(155,133,o),
(152,103,cs)
);
}
);
width = 347;
}
);
},
{
color = 5;
glyphname = "va-kannada.base";
layers = (
{
attr = {
color = 1;
};
layerId = "181B3FD6-98F3-4D7B-8C67-56E528B8E974";
shapes = (
{
attr = {
fill = 1;
fillColor = (0,255);
};
closed = 1;
nodes = (
(131.336,160.026,o),
(138.895,169.096,o),
(149.477,181.19,cs),
(166.107,200.843,o),
(160.06,253.754,o),
(126.801,259.801,cs),
(76.913,268.872,o),
(67.843,234.101,o),
(67.843,199.331,cs),
(67.843,172.12,o),
(82.96,157.002,o),
(105.637,158.514,cs)
);
},
{
attr = {
fill = 1;
fillColor = (0,255);
};
closed = 1;
nodes = (
(81.449,73.856,o),
(158.548,64.786,o),
(184.248,64.786,cs),
(306.699,64.786,o),
(339.958,176.655,o),
(341.469,217.472,cs),
(341.469,228.054,o),
(341.469,235.613,o),
(341.469,244.684,cs),
(341.469,282.477,o),
(370.193,283.989,o),
(373.216,258.289,cs),
(374.728,240.148,o),
(370.193,220.496,o),
(371.704,200.843,cs),
(376.24,137.35,o),
(450.315,82.927,o),
(513.809,70.833,cs),
(631.725,48.156,o),
(695.218,179.679,o),
(631.725,294.571,cs),
(580.326,388.3,o),
(433.686,534.939,o),
(315.77,536.451,cs),
(215.994,536.451,o),
(125.289,534.939,o),
(30.049,536.451,cs),
(-10.768,536.451,o),
(-13.791,599.944,o),
(48.19,599.944,cs),
(533.461,599.944,l),
(533.461,577.268,o),
(533.461,559.127,o),
(533.461,536.451,c),
(447.292,536.451,l),
(494.156,503.193,o),
(547.067,460.864,o),
(631.725,365.624,cs),
(784.412,194.796,o),
(702.777,-18.36,o),
(554.626,-4.755,cs),
(469.968,2.804,o),
(404.963,70.833,o),
(359.61,114.673,c),
(335.422,37.574,o),
(268.905,-4.755,o),
(176.689,-1.731,cs),
(79.937,1.292,o),
(1.326,91.997,o),
(1.326,187.237,cs),
(1.326,249.219,o),
(43.655,294.571,o),
(108.66,293.06,cs),
(155.524,291.548,o),
(197.853,279.454,o),
(205.412,222.007,cs),
(209.947,176.655,o),
(188.783,135.838,o),
(140.407,131.303,cs),
(107.148,128.279,o),
(85.984,134.326,o),
(72.378,141.885,cs),
(51.214,152.467,o),
(55.749,132.814,o),
(60.284,123.744,cs)
);
}
);
width = 714;
}
);
},
{
color = 5;
glyphname = "sha-kannada.base";
layers = (
{
attr = {
color = 1;
};
layerId = "181B3FD6-98F3-4D7B-8C67-56E528B8E974";
shapes = (
{
attr = {
fill = 1;
fillColor = (0,255);
};
closed = 1;
nodes = (
(53.425,217.977,o),
(107.613,232.515,o),
(235.815,249.697,cs),
(290.003,256.305,o),
(377.234,309.172,o),
(410.275,372.612,cs),
(432.744,413.584,o),
(422.17,471.737,o),
(439.352,459.842,cs),
(475.037,434.73,o),
(501.47,344.857,o),
(501.47,303.885,cs),
(502.792,162.467,o),
(352.122,65.985,o),
(189.557,58.055,cs),
(101.005,54.09,o),
(45.495,83.167,o),
(49.46,147.928,cs)
);
},
{
attr = {
fill = 1;
fillColor = (0,255);
};
closed = 1;
nodes = (
(399.702,519.317,o),
(419.527,447.947,o),
(395.737,403.01,cs),
(315.115,253.662,o),
(145.942,321.067,o),
(49.46,243.088,cs),
(-13.98,191.543,o),
(-12.658,106.957,o),
(36.243,55.412,cs),
(81.18,7.832,o),
(155.193,1.223,o),
(218.633,3.867,cs),
(389.129,11.797,o),
(550.372,130.747,o),
(527.904,315.78,cs),
(514.687,422.835,o),
(453.89,474.38,o),
(422.17,524.604,cs),
(418.205,531.212,o),
(411.597,535.177,o),
(422.17,536.499,c),
(422.17,544.429,o),
(422.17,580.114,o),
(422.17,599.939,c),
(293.969,599.939,o),
(198.808,599.939,o),
(69.285,599.939,cs),
(28.313,599.939,o),
(25.67,536.499,o),
(69.285,536.499,cs),
(131.403,537.82,o),
(159.158,536.499,o),
(221.277,536.499,cs),
(247.71,536.499,o),
(215.99,527.247,o),
(197.487,507.422,cs),
(165.767,473.059,o),
(171.053,395.08,o),
(222.598,373.934,cs),
(271.5,354.108,o),
(338.905,376.577,o),
(337.584,437.374,cs),
(337.584,451.912,o),
(329.654,474.38,o),
(317.759,487.597,cs),
(297.934,507.422,o),
(288.682,490.24,o),
(299.255,469.094,cs),
(303.22,459.842,o),
(307.185,447.947,o),
(303.22,437.374,cs),
(297.934,422.835,o),
(276.787,416.227,o),
(260.927,416.227,cs),
(225.242,416.227,o),
(197.487,455.877,o),
(215.99,483.632,cs),
(243.745,524.604,o),
(307.185,520.639,o),
(330.975,520.639,cs)
);
}
);
width = 531;
}
);
},
{
color = 5;
glyphname = "ssa-kannada.base";
layers = (
{
layerId = "181B3FD6-98F3-4D7B-8C67-56E528B8E974";
shapes = (
{
closed = 1;
nodes = (
(374,527,o),
(390,536,o),
(369,536,cs),
(281,536,o),
(194,536,o),
(39,536,cs),
(7,536,o),
(19,600,o),
(57,600,cs),
(135,600,o),
(402,600,o),
(600,600,c),
(600,550,o),
(600,558,o),
(600,536,c),
(568,536,o),
(546,536,o),
(458,536,cs),
(454,536,o),
(443,537,o),
(452,528,cs),
(471,511,o),
(489,500,o),
(489,450,cs),
(489,402,o),
(452,363,o),
(404,363,cs),
(358,363,o),
(325,409,o),
(327,445,cs),
(329,480,o),
(346,501,o),
(358,513,cs)
);
},
{
closed = 1;
nodes = (
(363,409,o),
(386,399,o),
(404,398,cs),
(434,397,o),
(463,417,o),
(463,452,cs),
(463,491,o),
(434,513,o),
(401,513,cs),
(362,513,o),
(341,463,o),
(354,432,cs)
);
},
{
closed = 1;
nodes = (
(153,315,o),
(203,291,o),
(201,221,cs),
(199,116,o),
(111,142,o),
(111,105,cs),
(111,81,o),
(137,62,o),
(181,62,cs),
(263,62,o),
(351,103,o),
(351,194,cs),
(351,225,o),
(370,233,o),
(375,194,cs),
(385,108,o),
(436,59,o),
(530,61,cs),
(629,63,o),
(673,145,o),
(673,234,cs),
(673,280,o),
(679,343,o),
(673,421,cs),
(672,437,o),
(679,452,o),
(706,452,cs),
(730,452,o),
(733,433,o),
(732,415,cs),
(729,378,o),
(712,189,o),
(732,142,cs),
(743,116,o),
(779,36,o),
(791,-39,cs),
(802,-106,o),
(742,-100,o),
(728,-52,cs),
(711,5,o),
(698,99,o),
(684,127,c),
(651,48,o),
(618,0,o),
(528,2,cs),
(426,4,o),
(369,70,o),
(354,114,c),
(347,66,o),
(260,3,o),
(181,2,cs),
(76,1,o),
(0,94,o),
(0,192,cs),
(0,229,o),
(17,291,o),
(89,304,cs)
);
},
{
closed = 1;
nodes = (
(72,256,o),
(48,238,o),
(48,199,cs),
(48,186,o),
(57,155,o),
(85,153,cs),
(127,150,o),
(167,175,o),
(163,219,cs),
(159,262,o),
(109,271,o),
(83,260,cs)
);
},
{
alignment = -1;
pos = (319,23);
ref = "drop-kannada";
}
);
width = 803;
}
);
},
{
color = 5;
glyphname = "sa-kannada.base";
layers = (
{
layerId = "181B3FD6-98F3-4D7B-8C67-56E528B8E974";
shapes = (
{
closed = 1;
nodes = (
(466,536,o),
(362,536,o),
(355,536,cs),
(344,536,o),
(358,523,o),
(363,498,cs),
(370,463,o),
(337,404,o),
(269,404,cs),
(219,404,o),
(188,441,o),
(188,488,cs),
(188,507,o),
(190,521,o),
(207,536,c),
(61,536,ls),
(4,536,o),
(-8,600,o),
(70,600,cs),
(169,600,o),
(369,600,o),
(468,600,c),
(468,584,o),
(468,556,o),
(468,536,c)
);
},
{
closed = 1;
nodes = (
(224,462,o),
(247,443,o),
(275,443,cs),
(296,443,o),
(318,451,o),
(318,476,cs),
(318,486,o),
(315,507,o),
(294,521,cs),
(269,538,o),
(217,524,o),
(221,490,cs)
);
},
{
closed = 1;
nodes = (
(518,434,o),
(518,420,o),
(518,401,cs),
(518,321,o),
(538,171,o),
(521,102,cs),
(500,12,o),
(455,-6,o),
(384,-6,cs),
(252,-6,o),
(209,173,o),
(118,186,cs),
(84,191,o),
(52,170,o),
(52,133,cs),
(52,107,o),
(63,69,o),
(96,47,cs),
(132,22,o),
(111,3,o),
(84,3,cs),
(38,3,o),
(0,55,o),
(0,119,cs),
(0,191,o),
(61,225,o),
(115,225,cs),
(280,226,o),
(287,36,o),
(388,36,cs),
(469,36,o),
(488,109,o),
(492,239,cs),
(494,309,o),
(452,373,o),
(462,444,cs),
(468,486,o),
(506,484,o),
(513,457,cs)
);
}
);
width = 528;
}
);
},
{
color = 5;
glyphname = "ha-kannada.base";
layers = (
{
attr = {
color = 1;
};
layerId = "181B3FD6-98F3-4D7B-8C67-56E528B8E974";
shapes = (
{
attr = {
fill = 1;
fillColor = (0,255);
};
closed = 1;
nodes = (
(271,536,ls),
(251,536,o),
(268,525,o),
(268,525,cs),
(291,506,o),
(354,464,o),
(388,360,c),
(417,396,o),
(460,468,o),
(550,468,cs),
(672,468,o),
(729,371,o),
(736,278,cs),
(745,152,o),
(725,-2,o),
(566,-1,cs),
(481,-1,o),
(418,104,o),
(399,170,c),
(370,77,o),
(295,7,o),
(192,8,cs),
(50,8,o),
(22,129,o),
(23,245,cs),
(23,328,o),
(61,454,o),
(164,446,cs),
(221,443,o),
(260,380,o),
(280,324,cs),
(290,296,o),
(291,273,o),
(268,310,cs),
(252,336,o),
(219,385,o),
(169,394,cs),
(94,405,o),
(70,294,o),
(70,240,cs),
(70,150,o),
(106,64,o),
(194,62,cs),
(287,60,o),
(356,146,o),
(362,235,cs),
(370,345,o),
(342,429,o),
(250,493,cs),
(239,500,o),
(194,536,o),
(131,536,cs),
(94,536,o),
(58,536,o),
(20,536,cs),
(-2,536,o),
(-11,600,o),
(22,600,cs),
(205,600,o),
(416,600,o),
(599,600,c),
(599,578,o),
(599,543,o),
(599,536,c)
);
},
{
attr = {
fill = 1;
fillColor = (0,255);
};
closed = 1;
nodes = (
(422,132,o),
(471,56,o),
(562,58,cs),
(650,59,o),
(690,113,o),
(700,193,cs),
(713,285,o),
(672,423,o),
(573,423,cs),
(483,423,o),
(422,297,o),
(422,220,cs)
);
}
);
width = 738;
}
);
},
{
color = 3;
glyphname = "ja-kannada";
layers = (
{
attr = {
color = 1;
};
layerId = "181B3FD6-98F3-4D7B-8C67-56E528B8E974";
shapes = (
{
attr = {
fill = 1;
fillColor = (0,255);
};
closed = 1;
nodes = (
(50.786,527.112,o),
(95.857,608.529,o),
(188.905,599.806,cs),
(273.231,592.536,o),
(351.74,531.473,o),
(300.854,434.063,cs),
(284.862,402.078,o),
(231.068,354.1,o),
(203.444,323.568,cs),
(167.097,284.313,o),
(119.119,236.335,o),
(119.119,179.634,cs),
(119.119,77.862,o),
(248.515,57.507,o),
(322.663,89.493,cs),
(382.272,114.209,o),
(405.534,136.017,o),
(405.534,191.265,cs),
(405.534,208.711,o),
(449.151,256.689,o),
(454.966,229.066,cs),
(470.959,150.556,o),
(543.653,50.238,o),
(611.986,50.238,cs),
(702.126,50.238,o),
(726.842,141.833,o),
(677.41,239.243,cs),
(664.325,263.959,o),
(680.318,274.136,o),
(709.396,274.136,cs),
(761.736,274.136,o),
(777.728,213.073,o),
(777.728,172.364,cs),
(777.728,85.131,o),
(696.311,3.714,o),
(609.078,3.714,cs),
(494.221,3.714,o),
(469.505,57.507,o),
(417.165,106.939,c),
(377.91,40.061,o),
(319.755,0.806,o),
(210.714,0.806,cs),
(138.019,0.806,o),
(37.702,63.323,o),
(40.609,141.833,cs),
(43.517,242.15,o),
(175.82,332.291,o),
(226.706,388.993,cs),
(265.961,431.155,o),
(249.969,524.204,o),
(178.728,524.204,cs),
(148.197,524.204,o),
(116.211,506.757,o),
(110.396,483.495,cs),
(101.672,447.148,o),
(129.296,445.694,o),
(159.828,445.694,cs),
(191.813,445.694,o),
(196.175,423.886,o),
(188.905,406.439,cs),
(178.728,381.723,o),
(148.197,374.454,o),
(124.935,374.454,cs),
(84.226,374.454,o),
(50.786,423.886,o),
(50.786,461.687,cs)
);
},
{
attr = {
fill = 1;
fillColor = (0,255);
};
closed = 1;
nodes = (
(757.374,397.716,o),
(484.044,195.626,o),
(300.854,439.879,c),
(300.854,458.779,o),
(299.401,482.041,o),
(299.401,502.396,c),
(347.379,391.9,o),
(571.277,295.944,o),
(571.277,458.779,cs),
(571.277,514.027,o),
(542.199,543.104,o),
(498.583,573.636,cs),
(421.527,627.43,o),
(534.93,633.245,o),
(601.808,562.005,cs)
);
}
);
width = 818;
}
);
unicode = 3228;
},
{
color = 3;
glyphname = "nna-kannada";
layers = (
{
attr = {
color = 1;
};
layerId = "181B3FD6-98F3-4D7B-8C67-56E528B8E974";
shapes = (
{
attr = {
fill = 1;
fillColor = (0,255);
};
closed = 1;
nodes = (
(306.449,600.66,o),
(397.09,564.716,o),
(408.029,564.716,cs),
(422.095,564.716,o),
(479.917,600.66,o),
(539.303,600.66,cs),
(661.2,600.66,o),
(719.023,527.209,o),
(734.651,381.87,cs),
(744.027,289.666,o),
(739.339,197.462,o),
(739.339,105.258,cs),
(739.339,80.254,o),
(736.214,45.872,o),
(706.521,47.435,c),
(679.953,47.435,o),
(675.265,97.444,o),
(675.265,120.886,cs),
(675.265,144.328,o),
(683.079,174.02,o),
(686.205,197.462,cs),
(700.27,325.61,o),
(719.023,472.512,o),
(594.,533.46,cs),
(545.554,556.902,o),
(498.671,541.274,o),
(456.476,519.395,c),
(483.043,495.953,o),
(498.671,467.823,o),
(498.671,420.94,cs),
(498.671,366.243,o),
(465.852,331.861,o),
(408.029,331.861,cs),
(362.709,331.861,o),
(322.077,378.745,o),
(320.514,420.94,c),
(320.514,466.261,o),
(326.765,489.702,o),
(362.709,519.395,c),
(297.072,538.149,o),
(190.803,555.339,o),
(123.603,472.512,cs),
(68.906,405.312,o),
(82.971,309.982,o),
(120.478,331.861,cs),
(179.863,366.243,o),
(278.319,330.299,o),
(276.756,253.722,cs),
(275.193,209.964,o),
(245.5,180.272,o),
(211.119,167.769,cs),
(182.989,158.393,o),
(131.417,159.955,o),
(111.101,183.397,c),
(111.101,159.955,o),
(112.664,125.574,o),
(114.227,99.007,cs),
(118.915,36.496,o),
(123.603,-13.513,o),
(123.603,-71.336,cs),
(123.603,-97.903,o),
(112.664,-96.341,o),
(87.659,-96.341,cs),
(68.906,-96.341,o),
(37.65,-86.964,o),
(40.776,-51.02,cs),
(43.901,-13.513,o),
(47.027,36.496,o),
(51.715,80.254,cs),
(59.529,141.202,o),
(75.157,202.151,o),
(75.157,258.411,cs),
(75.157,277.164,o),
(62.655,300.606,o),
(57.966,319.359,cs),
(14.209,500.642,o),
(145.482,600.66,o),
(261.128,600.66,cs)
);
},
{
attr = {
fill = 1;
fillColor = (0,255);
};
closed = 1;
nodes = (
(365.834,391.247,o),
(403.341,367.805,o),
(426.783,375.619,cs),
(451.787,383.433,o),
(458.038,405.312,o),
(456.476,430.317,cs),
(454.913,452.196,o),
(436.16,486.577,o),
(412.718,486.577,cs),
(390.839,486.577,o),
(359.583,466.261,o),
(362.709,430.317,cs)
);
},
{
attr = {
fill = 1;
fillColor = (0,255);
};
closed = 1;
nodes = (
(132.98,225.592,o),
(148.608,205.276,o),
(178.301,205.276,cs),
(207.993,205.276,o),
(232.998,224.029,o),
(234.561,249.034,cs),
(236.124,277.164,o),
(212.682,292.792,o),
(189.24,292.792,cs),
(156.422,292.792,o),
(132.98,270.913,o),
(132.98,242.783,cs)
);
}
);
width = 781;
}
);
unicode = 3235;
},
{
color = 3;
glyphname = "la-kannada";
layers = (
{
attr = {
color = 1;
};
layerId = "181B3FD6-98F3-4D7B-8C67-56E528B8E974";
shapes = (
{
attr = {
fill = 1;
fillColor = (0,255);
};
closed = 1;
nodes = (
(791.637,531.064,o),
(809.947,351.296,o),
(773.327,233.116,cs),
(713.405,43.361,o),
(543.624,0.084,o),
(403.805,0.084,cs),
(190.747,0.084,o),
(40.941,89.967,o),
(40.941,314.677,cs),
(40.941,479.464,o),
(160.786,574.341,o),
(343.883,600.973,cs),
(502.011,624.277,o),
(595.224,556.031,o),
(595.224,461.154,cs),
(595.224,386.251,o),
(535.302,346.303,o),
(472.05,346.303,cs),
(378.837,346.303,o),
(348.876,426.199,o),
(300.605,426.199,cs),
(239.018,426.199,o),
(230.696,397.903,o),
(270.644,356.29,cs),
(285.625,339.645,o),
(285.625,318.006,o),
(258.992,318.006,cs),
(209.057,318.006,o),
(175.767,369.606,o),
(194.076,411.219,cs),
(210.721,449.503,o),
(260.657,476.135,o),
(293.947,476.135,cs),
(412.128,476.135,o),
(437.095,401.232,o),
(503.676,401.232,cs),
(563.599,401.232,o),
(563.599,452.832,o),
(538.631,491.115,cs),
(483.702,574.341,o),
(330.567,574.341,o),
(230.696,521.077,cs),
(142.476,474.47,o),
(104.193,387.915,o),
(104.193,301.361,cs),
(104.193,123.258,o),
(253.999,55.013,o),
(407.134,55.013,cs),
(600.218,55.013,o),
(710.076,178.187,o),
(721.727,321.335,cs),
(726.721,386.251,o),
(716.734,499.438,o),
(646.824,544.38,cs),
(576.915,589.322,o),
(615.198,629.27,o),
(686.773,589.322,cs)
);
}
);
width = 834;
}
);
unicode = 3250;
},
{
color = 5;
glyphname = "reph-kannada";
layers = (
{
layerId = "181B3FD6-98F3-4D7B-8C67-56E528B8E974";
shapes = (
{
closed = 1;
nodes = (
(50.55,634.567,o),
(103.427,713.882,o),
(191.893,713.882,cs),
(263.073,713.882,o),
(322.05,670.157,o),
(322.05,595.927,cs),
(322.05,561.354,o),
(304.764,534.915,o),
(288.494,525.764,cs),
(281.376,522.713,o),
(264.089,519.663,o),
(270.191,532.882,cs),
(277.309,550.168,o),
(286.46,569.488,o),
(286.46,589.825,cs),
(286.46,645.752,o),
(233.584,673.207,o),
(180.708,664.056,cs),
(129.865,655.921,o),
(89.191,610.163,o),
(80.039,557.286,cs),
(72.921,517.629,o),
(92.241,420.011,o),
(174.606,423.062,cs),
(205.112,424.078,o),
(227.483,433.23,o),
(263.073,433.23,cs),
(288.494,433.23,o),
(286.46,389.505,o),
(264.089,389.505,cs),
(231.55,389.505,o),
(216.297,386.455,o),
(185.792,386.455,cs),
(161.387,386.455,o),
(135.966,362.05,o),
(135.966,338.663,cs),
(135.966,299.005,o),
(168.505,274.601,o),
(207.146,274.601,cs),
(221.382,274.601,o),
(232.567,280.702,o),
(249.854,280.702,cs),
(278.325,280.702,o),
(281.376,226.809,o),
(242.736,226.809,cs),
(224.432,226.809,o),
(216.297,226.809,o),
(207.146,224.775,cs),
(145.118,212.573,o),
(89.191,119.022,o),
(89.191,40.725,cs),
(89.191,0.051,o),
(112.578,-58.927,o),
(162.404,-58.927,cs),
(204.095,-58.927,o),
(229.516,-12.152,o),
(233.584,26.489,cs),
(236.634,54.961,o),
(230.533,79.365,o),
(197.994,105.803,cs),
(180.708,120.039,o),
(183.758,147.494,o),
(191.893,164.781,cs),
(206.129,195.286,o),
(253.921,193.253,o),
(277.309,174.949,cs),
(286.46,167.831,o),
(286.46,153.595,o),
(272.224,160.713,cs),
(256.972,167.831,o),
(218.331,172.916,o),
(218.331,147.494,cs),
(218.331,124.107,o),
(237.651,120.039,o),
(256.972,91.567,cs),
(277.309,61.062,o),
(284.427,19.371,o),
(280.359,-12.152,cs),
(271.207,-77.23,o),
(201.045,-118.921,o),
(145.118,-97.567,cs),
(88.174,-76.213,o),
(61.736,3.101,o),
(61.736,49.876,cs),
(61.736,127.157,o),
(114.612,199.354,o),
(165.455,253.247,c),
(145.118,257.314,o),
(98.342,271.55,o),
(94.275,315.275,cs),
(90.208,366.118,o),
(125.797,382.387,o),
(151.219,398.657,c),
(76.988,396.623,o),
(50.55,493.224,o),
(50.55,552.202,cs)
);
}
);
width = 373;
}
);
},
{
color = 5;
glyphname = "ka-kannada.below";
layers = (
{
layerId = "181B3FD6-98F3-4D7B-8C67-56E528B8E974";
shapes = (
{
closed = 1;
nodes = (
(-33.049,-35.011,o),
(-26.474,-15.286,o),
(-15.515,-15.286,cs),
(34.894,-13.094,o),
(57.907,-37.203,o),
(62.291,-77.75,cs),
(66.674,-118.297,o),
(51.332,-158.843,o),
(37.086,-182.952,cs),
(33.798,-188.432,o),
(0.923,-198.294,o),
(8.594,-179.665,cs),
(21.744,-148.981,o),
(30.511,-111.721,o),
(30.511,-97.475,cs),
(30.511,-68.983,o),
(16.265,-37.203,o),
(-23.186,-35.011,cs)
);
},
{
closed = 1;
nodes = (
(198.178,-169.802,o),
(193.794,-212.541,o),
(156.535,-212.541,cs),
(123.659,-212.541,o),
(89.687,-212.541,o),
(56.812,-212.541,cs),
(52.428,-212.541,o),
(52.428,-214.732,o),
(54.62,-215.828,cs),
(66.674,-223.499,o),
(132.426,-249.8,o),
(130.234,-329.798,cs),
(128.043,-397.741,o),
(82.016,-454.726,o),
(0.923,-449.247,cs),
(-56.062,-444.863,o),
(-106.472,-410.892,o),
(-106.472,-333.085,cs),
(-106.472,-279.388,o),
(-75.788,-231.17,o),
(-31.953,-215.828,cs),
(-25.378,-213.637,o),
(-26.474,-212.541,o),
(-33.049,-212.541,cs),
(-58.254,-212.541,o),
(-103.184,-212.541,o),
(-126.197,-212.541,cs),
(-152.498,-212.541,o),
(-163.457,-169.802,o),
(-118.526,-169.802,cs),
(-27.57,-169.802,o),
(63.387,-169.802,o),
(154.343,-169.802,cs)
);
},
{
closed = 1;
nodes = (
(-64.829,-345.14,o),
(-47.295,-403.221,o),
(7.498,-409.796,cs),
(45.853,-414.179,o),
(89.687,-388.974,o),
(92.975,-329.798,cs),
(96.263,-261.854,o),
(51.332,-221.308,o),
(16.265,-221.308,cs),
(-29.761,-221.308,o),
(-56.062,-267.334,o),
(-60.446,-307.881,cs)
);
}
);
width = 191;
}
);
},
{
color = 5;
glyphname = "kha-kannada.below";
layers = (
{
layerId = "181B3FD6-98F3-4D7B-8C67-56E528B8E974";
shapes = (
{
closed = 1;
nodes = (
(-20.188,-289.909,o),
(0.662,-297.207,o),
(34.023,-295.122,cs),
(40.279,-295.122,o),
(44.449,-290.952,o),
(45.491,-284.697,cs),
(52.789,-211.719,o),
(56.959,-171.061,o),
(56.959,-115.806,cs),
(56.959,-86.615,o),
(36.108,-40.744,o),
(2.747,-36.574,cs),
(-35.826,-32.404,o),
(-56.677,-59.509,o),
(-56.677,-79.318,cs),
(-56.677,-103.296,o),
(-44.167,-122.062,o),
(-18.103,-119.976,cs),
(2.747,-117.891,o),
(6.917,-103.296,o),
(19.428,-103.296,cs),
(29.853,-103.296,o),
(43.406,-113.721,o),
(27.768,-126.232,cs),
(12.13,-140.827,o),
(-11.848,-151.252,o),
(-35.826,-149.167,cs),
(-65.017,-147.082,o),
(-91.081,-125.189,o),
(-91.081,-95.998,cs),
(-91.081,-54.297,o),
(-51.464,-25.106,o),
(-4.55,-25.106,cs),
(46.534,-25.106,o),
(90.32,-70.977,o),
(90.32,-119.976,cs),
(90.32,-170.018,o),
(86.15,-217.975,o),
(86.15,-268.016,cs),
(86.15,-297.207,o),
(86.15,-299.292,o),
(105.958,-299.292,cs),
(137.234,-299.292,o),
(168.51,-301.377,o),
(199.786,-299.292,cs),
(261.296,-295.122,o),
(267.551,-269.059,o),
(267.551,-223.187,cs),
(267.551,-168.976,o),
(259.211,-115.806,o),
(259.211,-60.552,cs),
(259.211,-30.319,o),
(300.912,6.17,o),
(300.912,-27.191,cs),
(300.912,-110.594,o),
(284.231,-191.911,o),
(284.231,-273.229,cs),
(284.231,-340.994,o),
(132.022,-323.271,o),
(93.448,-323.271,cs),
(90.32,-323.271,o),
(87.193,-322.228,o),
(86.15,-325.356,cs),
(70.512,-399.375,o),
(16.3,-446.29,o),
(-93.166,-443.162,cs),
(-159.888,-441.077,o),
(-179.696,-408.758,o),
(-179.696,-378.525,cs),
(-179.696,-313.888,o),
(-128.612,-289.909,o),
(-57.72,-289.909,cs)
);
},
{
closed = 1;
nodes = (
(-30.614,-426.481,o),
(12.13,-416.056,o),
(46.534,-373.312,cs),
(71.555,-342.036,o),
(40.279,-320.143,o),
(14.215,-313.888,cs),
(-20.188,-306.59,o),
(-56.677,-302.42,o),
(-91.081,-308.675,cs),
(-170.313,-322.228,o),
(-177.611,-426.481,o),
(-83.783,-426.481,cs)
);
}
);
width = 306;
}
);
},
{
color = 5;
glyphname = "ga-kannada.below";
layers = (
{
attr = {
color = 1;
};
layerId = "181B3FD6-98F3-4D7B-8C67-56E528B8E974";
shapes = (
{
attr = {
fill = 1;
fillColor = (0,255);
};
closed = 1;
nodes = (
(-199.738,-346.191,o),
(-96.692,-92.628,o),
(-24.907,-31.264,cs),
(-5.224,-13.897,o),
(-1.751,-11.581,o),
(17.932,-31.264,cs),
(88.559,-105.364,o),
(188.132,-310.298,o),
(199.71,-419.133,cs),
(203.183,-458.499,o),
(158.028,-474.709,o),
(152.239,-448.079,cs),
(116.347,-287.142,o),
(115.189,-203.779,o),
(2.881,-59.052,cs),
(-2.908,-50.947,o),
(-5.224,-55.578,o),
(-11.013,-61.367,cs),
(-80.482,-138.941,o),
(-96.692,-211.884,o),
(-121.006,-313.772,cs),
(-126.795,-338.086,o),
(-137.215,-385.557,o),
(-149.951,-419.133,cs),
(-165.003,-460.815,o),
(-199.738,-464.288,o),
(-199.738,-407.555,cs)
);
}
);
width = 205;
}
);
},
{
color = 5;
glyphname = "gha-kannada.below";
layers = (
{
attr = {
color = 1;
};
layerId = "181B3FD6-98F3-4D7B-8C67-56E528B8E974";
shapes = (
{
attr = {
fill = 1;
fillColor = (0,255);
};
closed = 1;
nodes = (
(218.241,58.254,o),
(233.104,68.387,o),
(245.94,68.387,cs),
(283.098,68.387,o),
(296.609,-8.63,o),
(296.609,-38.356,cs),
(296.609,-72.135,o),
(286.476,-116.724,o),
(242.562,-112.671,cs),
(217.565,-109.968,o),
(262.83,-141.046,o),
(262.83,-184.959,cs),
(262.83,-247.113,o),
(229.726,-290.351,o),
(177.706,-290.351,cs),
(110.146,-290.351,o),
(81.772,-258.598,o),
(46.641,-218.063,cs),
(35.156,-204.551,o),
(29.751,-205.227,o),
(21.644,-215.361,cs),
(-13.487,-258.598,o),
(-42.537,-290.351,o),
(-97.935,-290.351,cs),
(-168.872,-290.351,o),
(-199.95,-228.197,o),
(-199.95,-166.718,cs),
(-199.95,-130.912,o),
(-173.602,-105.915,o),
(-141.173,-105.915,cs),
(-112.798,-105.915,o),
(-80.37,-125.507,o),
(-79.019,-163.34,cs),
(-77.668,-199.822,o),
(-112.798,-216.712,o),
(-133.066,-209.956,cs),
(-141.849,-206.578,o),
(-144.551,-204.551,o),
(-144.551,-215.361,cs),
(-144.551,-240.357,o),
(-109.42,-241.709,o),
(-93.206,-241.709,cs),
(-39.159,-241.709,o),
(-10.784,-226.17,o),
(9.483,-196.444,cs),
(14.888,-188.337,o),
(18.266,-169.42,o),
(18.266,-159.287,cs),
(18.266,-149.153,o),
(14.888,-122.805,o),
(31.102,-122.805,cs),
(48.668,-122.805,o),
(44.614,-147.802,o),
(46.641,-159.287,cs),
(52.721,-194.417,o),
(77.043,-232.926,o),
(110.146,-241.709,cs),
(149.331,-251.843,o),
(220.943,-240.357,o),
(227.699,-191.039,cs),
(236.482,-124.156,o),
(197.298,-84.296,o),
(185.813,-71.46,cs),
(173.652,-57.948,o),
(149.331,-25.52,o),
(120.28,23.798,cs),
(104.066,51.498,o),
(115.551,54.2,o),
(140.548,54.2,cs),
(187.164,54.876,o),
(187.839,-62.002,o),
(225.672,-62.002,cs),
(241.211,-62.002,o),
(262.83,-48.49,o),
(262.83,-32.276,cs),
(262.83,2.855,o),
(218.241,15.016,o),
(218.241,45.417,cs)
);
},
{
attr = {
fill = 1;
fillColor = (0,255);
};
closed = 1;
nodes = (
(-164.143,-173.474,o),
(-154.685,-184.959,o),
(-139.146,-184.959,cs),
(-122.932,-184.959,o),
(-104.016,-176.852,o),
(-105.367,-157.935,cs),
(-107.394,-134.29,o),
(-131.039,-128.209,o),
(-145.902,-132.939,cs),
(-161.441,-137.668,o),
(-166.17,-147.802,o),
(-164.819,-161.313,cs)
);
},
{
attr = {
fill = 1;
fillColor = (0,255);
};
closed = 1;
nodes = (
(39.885,-253.194,o),
(55.424,-299.134,o),
(55.424,-325.482,cs),
(55.424,-347.101,o),
(41.912,-360.613,o),
(31.778,-360.613,cs),
(9.483,-360.613,o),
(6.781,-334.265,o),
(6.781,-320.077,cs),
(6.781,-290.351,o),
(22.995,-253.194,o),
(22.995,-226.846,cs),
(22.995,-222.792,o),
(22.995,-195.769,o),
(30.427,-195.769,cs),
(38.534,-195.769,o),
(39.885,-222.117,o),
(39.885,-226.17,cs)
);
}
);
width = 302;
}
);
},
{
color = 5;
glyphname = "nga-kannada.below";
layers = (
{
attr = {
color = 1;
};
layerId = "181B3FD6-98F3-4D7B-8C67-56E528B8E974";
shapes = (
{
attr = {
fill = 1;
fillColor = (0,255);
};
closed = 1;
nodes = (
(-52.611,-101.793,o),
(-22.317,-47.068,o),
(40.226,-52.931,cs),
(81.27,-56.84,o),
(126.223,-81.271,o),
(116.451,-147.723,c),
(142.836,-135.996,o),
(187.789,-81.271,o),
(242.514,-81.271,cs),
(268.899,-81.271,o),
(355.873,-92.998,o),
(355.873,-169.222,cs),
(355.873,-204.402,o),
(317.761,-214.175,o),
(291.376,-214.175,cs),
(248.377,-214.175,o),
(251.309,-179.971,o),
(296.262,-176.062,cs),
(338.283,-172.154,o),
(304.08,-105.702,o),
(249.355,-105.702,cs),
(191.698,-105.702,o),
(148.699,-141.859,o),
(111.565,-171.176,c),
(97.883,-192.675,o),
(66.612,-220.038,o),
(49.999,-238.605,cs),
(25.568,-264.991,o),
(-6.681,-297.24,o),
(-6.681,-335.352,cs),
(-6.681,-403.758,o),
(80.293,-417.439,o),
(130.132,-395.94,cs),
(170.199,-379.327,o),
(185.834,-364.669,o),
(185.834,-327.534,cs),
(185.834,-315.807,o),
(215.151,-283.558,o),
(219.06,-302.126,cs),
(229.81,-354.896,o),
(278.672,-422.326,o),
(324.602,-422.326,cs),
(385.19,-422.326,o),
(401.803,-360.76,o),
(368.577,-295.285,cs),
(359.782,-278.672,o),
(370.532,-271.831,o),
(390.076,-271.831,cs),
(425.257,-271.831,o),
(436.006,-312.875,o),
(436.006,-340.238,cs),
(436.006,-398.872,o),
(381.281,-453.597,o),
(322.647,-453.597,cs),
(245.446,-453.597,o),
(228.833,-417.439,o),
(193.652,-384.213,c),
(167.267,-429.166,o),
(128.178,-455.551,o),
(54.885,-455.551,cs),
(6.023,-455.551,o),
(-61.406,-413.53,o),
(-59.451,-360.76,cs),
(-57.497,-293.331,o),
(31.431,-232.742,o),
(65.635,-194.63,cs),
(92.02,-166.29,o),
(81.27,-103.747,o),
(33.386,-103.747,cs),
(12.864,-103.747,o),
(-8.635,-115.474,o),
(-12.544,-131.11,cs),
(-18.408,-155.541,o),
(0.16,-156.518,o),
(20.682,-156.518,cs),
(42.181,-156.518,o),
(45.113,-171.176,o),
(40.226,-182.903,cs),
(33.386,-199.516,o),
(12.864,-204.402,o),
(-2.772,-204.402,cs),
(-30.134,-204.402,o),
(-52.611,-171.176,o),
(-52.611,-145.768,cs)
);
},
{
attr = {
fill = 1;
fillColor = (0,255);
};
closed = 1;
nodes = (
(131.109,-186.812,o),
(156.517,-168.245,o),
(185.834,-168.245,cs),
(215.151,-168.245,o),
(232.742,-189.744,o),
(232.742,-221.015,cs),
(232.742,-246.423,o),
(221.992,-273.786,o),
(185.834,-273.786,cs),
(145.768,-273.786,o),
(131.109,-244.469,o),
(131.109,-219.061,cs)
);
},
{
attr = {
fill = 1;
fillColor = (0,255);
};
closed = 1;
nodes = (
(155.54,-237.628,o),
(172.153,-248.378,o),
(185.834,-248.378,cs),
(202.447,-248.378,o),
(215.151,-239.583,o),
(215.151,-220.038,cs),
(215.151,-201.471,o),
(203.425,-190.721,o),
(181.925,-190.721,cs),
(165.312,-190.721,o),
(155.54,-205.38,o),
(155.54,-220.038,cs)
);
}
);
width = 442;
}
);
},
{
color = 5;
glyphname = "ca-kannada.below";
layers = (
{
attr = {
color = 1;
};
layerId = "181B3FD6-98F3-4D7B-8C67-56E528B8E974";
shapes = (
{
attr = {
fill = 1;
fillColor = (0,255);
};
closed = 1;
nodes = (
(421.881,-202.485,o),
(409.014,-211.491,o),
(379.42,-244.945,c),
(400.007,-273.252,o),
(415.447,-292.552,o),
(415.447,-328.578,cs),
(415.447,-395.485,o),
(362.694,-453.386,o),
(291.927,-453.386,cs),
(219.873,-453.386,o),
(173.553,-389.052,o),
(159.4,-362.032,c),
(145.246,-386.479,o),
(129.806,-453.386,o),
(30.732,-453.386,cs),
(-40.035,-453.386,o),
(-97.935,-413.499,o),
(-99.222,-335.012,cs),
(-99.222,-237.225,o),
(68.046,-207.631,o),
(68.046,-118.851,cs),
(68.046,-89.257,o),
(30.732,-75.104,o),
(4.999,-73.817,c),
(-23.308,-73.817,o),
(-34.888,-91.831,o),
(-34.888,-108.558,cs),
(-34.888,-143.298,o),
(6.286,-151.018,o),
(19.152,-125.284,cs),
(25.586,-112.418,o),
(44.886,-112.418,o),
(44.886,-127.858,cs),
(44.886,-152.304,o),
(25.586,-180.611,o),
(-18.161,-180.611,cs),
(-43.895,-180.611,o),
(-65.768,-158.738,o),
(-68.341,-131.718,cs),
(-70.915,-102.124,o),
(-51.615,-50.657,o),
(3.712,-50.657,cs),
(50.032,-50.657,o),
(93.779,-72.531,o),
(93.779,-129.144,cs),
(93.779,-211.491,o),
(-64.481,-230.791,o),
(-64.481,-322.145,cs),
(-64.481,-378.759,o),
(-0.148,-400.632,o),
(35.879,-400.632,cs),
(104.073,-400.632,o),
(143.959,-371.039,o),
(143.959,-306.705,cs),
(143.959,-301.558,o),
(143.959,-278.398,o),
(151.679,-266.818,cs),
(158.113,-257.811,o),
(167.12,-257.811,o),
(167.12,-270.678,cs),
(167.12,-283.545,o),
(161.973,-292.552,o),
(161.973,-300.272,cs),
(161.973,-364.605,o),
(234.027,-401.919,o),
(273.913,-401.919,cs),
(334.387,-401.919,o),
(387.14,-389.052,o),
(387.14,-315.712,cs),
(387.14,-269.392,o),
(351.114,-252.665,o),
(308.653,-252.665,cs),
(295.787,-252.665,o),
(276.487,-252.665,o),
(273.913,-252.665,cs),
(258.473,-252.665,o),
(258.473,-212.778,o),
(275.2,-212.778,cs),
(300.933,-212.778,o),
(322.807,-214.065,o),
(349.827,-214.065,cs),
(372.987,-214.065,o),
(394.861,-193.478,o),
(394.861,-156.164,cs),
(394.861,-136.864,o),
(387.14,-121.424,o),
(375.56,-109.844,cs),
(345.967,-80.251,o),
(357.547,-48.084,o),
(391.,-85.397,cs),
(409.014,-105.984,o),
(421.881,-133.004,o),
(421.881,-157.451,cs)
);
}
);
width = 427;
}
);
},
{
color = 5;
glyphname = "cha-kannada.below";
layers = (
{
attr = {
color = 1;
};
layerId = "181B3FD6-98F3-4D7B-8C67-56E528B8E974";
shapes = (
{
attr = {
fill = 1;
fillColor = (0,255);
};
closed = 1;
nodes = (
(18.983,-409.982,o),
(33.563,-453.089,o),
(33.563,-477.813,cs),
(33.563,-498.099,o),
(20.884,-510.777,o),
(11.375,-510.777,cs),
(-9.544,-510.777,o),
(-12.08,-486.054,o),
(-12.08,-472.741,cs),
(-12.08,-444.848,o),
(3.134,-409.982,o),
(3.134,-385.259,cs),
(3.134,-381.455,o),
(3.134,-356.098,o),
(10.107,-356.098,cs),
(17.715,-356.098,o),
(18.983,-380.821,o),
(18.983,-384.625,cs)
);
},
{
attr = {
fill = 1;
fillColor = (0,255);
};
closed = 1;
nodes = (
(250.368,-341.517,o),
(211.698,-438.509,o),
(114.706,-438.509,cs),
(65.894,-438.509,o),
(25.322,-403.009,o),
(13.277,-378.919,c),
(-5.741,-403.009,o),
(-39.973,-434.071,o),
(-105.902,-434.071,cs),
(-209.867,-434.071,o),
(-228.251,-320.597,o),
(-229.519,-245.159,cs),
(-229.519,-168.454,o),
(-181.974,-80.971,o),
(-96.393,-80.971,cs),
(-52.018,-80.971,o),
(-33,-131.051,o),
(-39.973,-164.65,cs),
(-46.313,-195.713,o),
(-74.84,-214.731,o),
(-100.197,-214.731,cs),
(-117.947,-214.731,o),
(-138.233,-205.856,o),
(-149.01,-184.936,cs),
(-162.322,-160.846,o),
(-147.108,-129.784,o),
(-125.554,-164.65,cs),
(-110.34,-191.275,o),
(-74.84,-184.936,o),
(-72.938,-147.534,cs),
(-71.67,-128.516,o),
(-84.983,-116.471,o),
(-102.733,-116.471,cs),
(-192.117,-116.471,o),
(-206.064,-222.338,o),
(-198.457,-286.365,cs),
(-193.385,-332.642,o),
(-169.93,-386.526,o),
(-104.634,-394.134,cs),
(-41.241,-401.741,o),
(-7.643,-368.776,o),
(1.232,-332.642,cs),
(5.67,-312.99,o),
(15.179,-312.99,o),
(19.616,-333.91,cs),
(27.224,-373.214,o),
(60.188,-396.669,o),
(107.099,-396.669,cs),
(169.859,-396.669,o),
(228.18,-343.419,o),
(223.743,-256.57,cs),
(220.573,-176.061,o),
(149.573,-95.551,o),
(112.171,-95.551,cs),
(29.759,-95.551,ls),
(-0.035,-95.551,o),
(1.866,-54.979,o),
(28.492,-54.979,cs),
(76.036,-54.979,o),
(215.502,-54.979,o),
(262.413,-54.979,cs),
(297.279,-54.979,o),
(297.279,-95.551,o),
(262.413,-95.551,cs),
(261.145,-95.551,o),
(183.805,-95.551,o),
(182.537,-95.551,c),
(215.502,-132.953,o),
(250.368,-200.15,o),
(250.368,-255.302,cs)
);
}
);
width = 294;
}
);
},
{
color = 5;
glyphname = "ja-kannada.below";
layers = (
{
attr = {
color = 1;
};
layerId = "181B3FD6-98F3-4D7B-8C67-56E528B8E974";
shapes = (
{
attr = {
fill = 1;
fillColor = (0,255);
};
closed = 1;
nodes = (
(-152.904,-100.75,o),
(-125.54,-51.318,o),
(-69.046,-56.614,cs),
(-17.848,-61.028,o),
(29.819,-98.102,o),
(-1.076,-157.244,cs),
(-10.786,-176.664,o),
(-43.447,-205.794,o),
(-60.219,-224.331,cs),
(-82.287,-248.165,o),
(-111.417,-277.295,o),
(-111.417,-311.721,cs),
(-111.417,-373.511,o),
(-32.854,-385.869,o),
(12.164,-366.449,cs),
(48.356,-351.443,o),
(62.48,-338.202,o),
(62.48,-304.659,cs),
(62.48,-294.066,o),
(88.961,-264.936,o),
(92.492,-281.708,cs),
(102.202,-329.375,o),
(146.338,-390.283,o),
(187.826,-390.283,cs),
(242.555,-390.283,o),
(257.561,-334.671,o),
(227.548,-275.529,cs),
(219.604,-260.523,o),
(229.314,-254.344,o),
(246.968,-254.344,cs),
(278.746,-254.344,o),
(288.456,-291.418,o),
(288.456,-316.134,cs),
(288.456,-369.098,o),
(239.024,-418.53,o),
(186.061,-418.53,cs),
(116.326,-418.53,o),
(101.319,-385.869,o),
(69.541,-355.857,c),
(45.708,-396.462,o),
(10.399,-420.295,o),
(-55.805,-420.295,cs),
(-99.941,-420.295,o),
(-160.849,-382.338,o),
(-159.084,-334.671,cs),
(-157.318,-273.764,o),
(-76.99,-219.035,o),
(-46.095,-184.609,cs),
(-22.262,-159.01,o),
(-31.972,-102.516,o),
(-75.225,-102.516,cs),
(-93.762,-102.516,o),
(-113.182,-113.108,o),
(-116.713,-127.232,cs),
(-122.009,-149.3,o),
(-105.238,-150.183,o),
(-86.7,-150.183,cs),
(-67.28,-150.183,o),
(-64.632,-163.424,o),
(-69.046,-174.016,cs),
(-75.225,-189.022,o),
(-93.762,-193.436,o),
(-107.886,-193.436,cs),
(-132.602,-193.436,o),
(-152.904,-163.424,o),
(-152.904,-140.473,cs)
);
},
{
attr = {
fill = 1;
fillColor = (0,255);
};
closed = 1;
nodes = (
(276.098,-179.313,o),
(110.147,-302.011,o),
(-1.076,-153.714,c),
(-1.076,-142.238,o),
(-1.959,-128.115,o),
(-1.959,-115.757,c),
(27.171,-182.843,o),
(163.11,-241.103,o),
(163.11,-142.238,cs),
(163.11,-108.695,o),
(145.455,-91.04,o),
(118.974,-72.503,cs),
(72.189,-39.843,o),
(141.042,-36.312,o),
(181.647,-79.565,cs)
);
}
);
width = 294;
}
);
},
{
color = 5;
glyphname = "jha-kannada.below";
layers = (
{
attr = {
color = 1;
};
layerId = "181B3FD6-98F3-4D7B-8C67-56E528B8E974";
shapes = (
{
attr = {
fill = 1;
fillColor = (0,255);
};
closed = 1;
nodes = (
(83.733,-76.086,o),
(90.687,-63.217,o),
(101.614,-61.237,cs),
(111.549,-59.257,o),
(129.43,-64.207,o),
(136.384,-77.076,cs),
(154.266,-110.735,o),
(176.121,-183.992,o),
(174.134,-243.389,cs),
(172.147,-326.546,o),
(129.43,-403.763,o),
(56.91,-403.763,cs),
(12.206,-403.763,o),
(-30.511,-381.984,o),
(-35.478,-335.456,cs),
(-38.458,-311.697,o),
(-25.544,-307.737,o),
(-19.583,-319.616,cs),
(-4.682,-348.325,o),
(10.219,-362.185,o),
(41.016,-362.185,cs),
(112.542,-362.185,o),
(148.305,-300.807,o),
(149.299,-234.48,cs),
(149.299,-193.891,o),
(133.404,-172.112,o),
(119.496,-143.403,cs),
(104.595,-112.715,o),
(83.733,-102.815,o),
(83.733,-84.996,cs)
);
},
{
attr = {
fill = 1;
fillColor = (0,255);
};
closed = 1;
nodes = (
(262.549,-76.086,o),
(269.503,-63.217,o),
(280.431,-61.237,cs),
(290.365,-59.257,o),
(308.246,-64.207,o),
(315.2,-77.076,cs),
(333.082,-110.735,o),
(354.937,-183.992,o),
(352.95,-243.389,cs),
(350.964,-326.546,o),
(308.246,-403.763,o),
(235.726,-403.763,cs),
(191.022,-403.763,o),
(148.305,-381.984,o),
(143.338,-335.456,cs),
(140.358,-311.697,o),
(153.272,-307.737,o),
(159.233,-319.616,cs),
(174.134,-348.325,o),
(189.036,-362.185,o),
(219.832,-362.185,cs),
(291.358,-362.185,o),
(327.121,-300.807,o),
(328.115,-234.48,cs),
(328.115,-193.891,o),
(312.22,-172.112,o),
(298.312,-143.403,cs),
(283.411,-112.715,o),
(262.549,-102.815,o),
(262.549,-84.996,cs)
);
},
{
attr = {
fill = 1;
fillColor = (0,255);
};
closed = 1;
nodes = (
(154.266,-387.924,o),
(168.174,-429.502,o),
(168.174,-453.261,cs),
(168.174,-473.06,o),
(156.253,-485.93,o),
(146.318,-485.93,cs),
(126.45,-485.93,o),
(123.47,-462.171,o),
(123.47,-449.301,cs),
(123.47,-421.582,o),
(138.371,-387.924,o),
(138.371,-364.165,cs),
(138.371,-360.205,o),
(138.371,-335.456,o),
(145.325,-335.456,cs),
(152.279,-335.456,o),
(154.266,-359.215,o),
(154.266,-363.175,cs)
);
},
{
attr = {
fill = 1;
fillColor = (0,255);
};
closed = 1;
nodes = (
(-43.425,-77.076,o),
(0.285,-191.912,o),
(0.285,-243.389,cs),
(0.285,-323.576,o),
(-37.465,-404.753,o),
(-125.879,-404.753,cs),
(-215.288,-404.753,o),
(-253.038,-319.616,o),
(-249.064,-243.389,cs),
(-246.084,-174.092,o),
(-197.406,-81.036,o),
(-120.912,-79.056,cs)
);
},
{
attr = {
fill = 1;
fillColor = (0,255);
};
closed = 1;
nodes = (
(-215.288,-301.797,o),
(-187.472,-360.205,o),
(-120.912,-360.205,cs),
(-38.458,-360.205,o),
(-19.583,-306.747,o),
(-19.583,-243.389,cs),
(-19.583,-185.972,o),
(-56.34,-106.775,o),
(-110.978,-106.775,cs),
(-178.531,-106.775,o),
(-215.288,-185.972,o),
(-215.288,-243.389,cs)
);
}
);
width = 359;
}
);
},
{
color = 5;
glyphname = "nya-kannada.below";
layers = (
{
attr = {
color = 1;
};
layerId = "181B3FD6-98F3-4D7B-8C67-56E528B8E974";
shapes = (
{
attr = {
fill = 1;
fillColor = (0,255);
};
closed = 1;
nodes = (
(111.807,-299.443,o),
(141.977,-313.156,o),
(151.119,-325.956,c),
(168.49,-309.499,o),
(183.118,-291.214,o),
(185.861,-257.387,cs),
(191.346,-191.562,o),
(160.262,-130.308,o),
(102.665,-115.68,cs),
(71.58,-107.452,o),
(38.668,-122.08,o),
(38.668,-139.45,cs),
(38.668,-157.735,o),
(55.124,-172.363,o),
(53.296,-209.847,c),
(52.381,-256.473,o),
(30.439,-293.957,o),
(-14.358,-293.957,cs),
(-54.585,-293.957,o),
(-62.813,-260.13,o),
(-62.813,-225.389,cs),
(-62.813,-173.277,o),
(-29.9,-154.078,o),
(-29.9,-139.45,cs),
(-29.9,-118.423,o),
(-88.412,-93.738,o),
(-130.467,-114.766,cs),
(-167.951,-133.051,o),
(-178.922,-178.763,o),
(-173.436,-211.675,cs),
(-167.037,-249.159,o),
(-139.61,-287.557,o),
(-176.179,-287.557,cs),
(-191.721,-287.557,o),
(-199.949,-271.101,o),
(-199.949,-250.074,cs),
(-199.949,-175.106,o),
(-199.949,-72.711,o),
(-85.669,-72.711,cs),
(-39.957,-72.711,o),
(-15.273,-90.081,o),
(3.012,-115.68,c),
(20.383,-88.253,o),
(62.438,-72.711,o),
(114.55,-86.424,cs),
(195.917,-107.452,o),
(215.116,-176.02,o),
(208.717,-250.988,cs),
(204.145,-312.242,o),
(181.289,-346.069,o),
(178.547,-354.297,cs),
(174.89,-364.354,o),
(187.689,-397.266,o),
(183.118,-432.008,cs),
(178.547,-464.92,o),
(167.576,-478.634,o),
(152.948,-493.262,cs),
(141.977,-504.233,o),
(112.721,-486.862,o),
(118.207,-474.977,cs),
(129.178,-450.293,o),
(141.977,-441.15,o),
(147.462,-410.066,cs),
(151.119,-389.038,o),
(147.462,-375.325,o),
(141.063,-378.982,cs),
(129.178,-386.296,o),
(118.207,-394.524,o),
(93.522,-394.524,cs),
(71.58,-394.524,o),
(33.182,-377.153,o),
(33.182,-349.726,cs),
(33.182,-328.698,o),
(51.467,-299.443,o),
(88.951,-299.443,cs)
);
},
{
attr = {
fill = 1;
fillColor = (0,255);
};
closed = 1;
nodes = (
(50.553,-358.868,o),
(69.752,-371.668,o),
(93.522,-371.668,cs),
(105.407,-371.668,o),
(136.492,-365.268,o),
(136.492,-347.897,cs),
(136.492,-322.299,o),
(102.665,-322.299,o),
(88.037,-323.213,cs),
(74.323,-324.127,o),
(52.381,-332.355,o),
(51.467,-344.24,cs)
);
},
{
attr = {
fill = 1;
fillColor = (0,255);
};
closed = 1;
nodes = (
(-45.443,-249.159,o),
(-39.043,-277.501,o),
(-12.53,-277.501,cs),
(23.126,-277.501,o),
(26.782,-230.874,o),
(26.782,-209.847,cs),
(26.782,-196.133,o),
(18.554,-158.649,o),
(-2.473,-158.649,cs),
(-41.786,-158.649,o),
(-45.443,-203.447,o),
(-45.443,-231.789,cs)
);
},
{
attr = {
fill = 1;
fillColor = (0,255);
};
closed = 1;
nodes = (
(172.147,-147.678,o),
(172.147,-143.107,o),
(172.147,-124.822,c),
(184.946,-114.766,o),
(243.458,-84.596,o),
(272.714,-77.282,cs),
(333.968,-61.74,o),
(397.05,-87.338,o),
(397.05,-152.25,cs),
(397.05,-183.334,o),
(364.138,-191.562,o),
(341.282,-191.562,cs),
(304.712,-191.562,o),
(291.913,-152.25,o),
(329.397,-149.507,cs),
(365.966,-145.85,o),
(352.253,-95.567,o),
(305.626,-98.309,cs),
(249.858,-101.966,o),
(205.974,-140.365,o),
(172.147,-167.792,c)
);
}
);
width = 403;
}
);
},
{
color = 5;
glyphname = "tta-kannada.below";
layers = (
{
attr = {
color = 1;
};
layerId = "181B3FD6-98F3-4D7B-8C67-56E528B8E974";
shapes = (
{
attr = {
fill = 1;
fillColor = (0,255);
};
closed = 1;
nodes = (
(-158.23,-83.348,o),
(-120.586,-47.985,o),
(-120.586,-124.415,cs),
(-120.586,-156.355,o),
(-124.008,-187.155,o),
(-119.445,-219.096,c),
(-108.037,-208.83,o),
(-76.097,-194.,o),
(-47.578,-197.422,cs),
(-6.512,-201.985,o),
(19.725,-227.081,o),
(19.725,-264.726,cs),
(19.725,-304.652,o),
(-12.215,-332.029,o),
(-49.86,-332.029,cs),
(-85.223,-332.029,o),
(-112.6,-308.074,o),
(-128.571,-280.696,cs),
(-129.712,-278.415,o),
(-134.275,-278.415,o),
(-136.556,-278.415,cs),
(-158.23,-278.415,o),
(-166.215,-326.326,o),
(-166.215,-340.015,cs),
(-166.215,-395.911,o),
(-106.897,-434.696,o),
(-55.563,-436.978,cs),
(1.474,-439.259,o),
(27.711,-407.318,o),
(33.414,-397.052,cs),
(37.977,-387.926,o),
(36.837,-366.252,o),
(41.399,-348.,cs),
(44.822,-333.17,o),
(50.525,-321.763,o),
(65.355,-321.763,cs),
(84.748,-321.763,o),
(71.059,-342.296,o),
(71.059,-353.704,cs),
(71.059,-407.318,o),
(107.562,-432.415,o),
(157.755,-442.681,cs),
(207.948,-452.948,o),
(256.999,-436.978,o),
(276.392,-383.363,cs),
(286.659,-355.985,o),
(274.11,-320.622,o),
(243.31,-303.511,cs),
(222.777,-292.104,o),
(230.762,-362.829,o),
(173.725,-348.,cs),
(146.348,-341.155,o),
(141.785,-316.059,o),
(141.785,-296.667,cs),
(141.785,-251.037,o),
(172.585,-237.348,o),
(214.792,-248.755,cs),
(284.377,-268.148,o),
(326.585,-324.044,o),
(311.755,-399.333,cs),
(299.207,-464.355,o),
(246.733,-515.689,o),
(165.74,-509.985,cs),
(90.451,-504.281,o),
(57.37,-428.992,o),
(47.103,-405.037,c),
(33.414,-434.696,o),
(-6.512,-513.407,o),
(-79.519,-502.,cs),
(-146.823,-491.733,o),
(-199.297,-435.837,o),
(-199.297,-367.392,cs),
(-199.297,-332.029,o),
(-190.171,-304.652,o),
(-171.919,-278.415,cs),
(-166.215,-270.43,o),
(-145.682,-249.896,o),
(-138.837,-245.333,c),
(-161.652,-198.563,o),
(-158.23,-151.793,o),
(-158.23,-99.318,cs)
);
},
{
attr = {
fill = 1;
fillColor = (0,255);
};
closed = 1;
nodes = (
(-104.615,-264.726,o),
(-92.067,-296.667,o),
(-53.282,-302.37,cs),
(-21.341,-306.933,o),
(-6.512,-286.4,o),
(-6.512,-261.304,cs),
(-6.512,-227.081,o),
(-31.608,-213.393,o),
(-53.282,-213.393,cs),
(-66.971,-213.393,o),
(-104.615,-215.674,o),
(-104.615,-237.348,cs)
);
}
);
width = 325;
}
);
},
{
color = 5;
glyphname = "ttha-kannada.below";
layers = (
{
layerId = "181B3FD6-98F3-4D7B-8C67-56E528B8E974";
shapes = (
{
closed = 1;
nodes = (
(112.019,-83.105,o),
(136.83,-160.376,o),
(136.83,-232.685,cs),
(136.83,-324.842,o),
(94.296,-417.709,o),
(-8.495,-417.709,cs),
(-110.578,-417.709,o),
(-153.821,-320.589,o),
(-149.568,-232.685,cs),
(-144.605,-130.602,o),
(-85.057,-67.51,o),
(-43.941,-49.787,cs),
(-14.875,-37.027,o),
(15.607,-33.482,o),
(47.508,-49.787,cs)
);
},
{
closed = 1;
nodes = (
(-110.578,-299.322,o),
(-78.677,-366.668,o),
(-2.115,-366.668,cs),
(92.169,-366.668,o),
(114.145,-304.993,o),
(114.145,-232.685,cs),
(114.145,-166.756,o),
(72.32,-75.307,o),
(9.227,-75.307,cs),
(-68.752,-75.307,o),
(-110.578,-166.047,o),
(-110.578,-232.685,cs)
);
},
{
closed = 1;
nodes = (
(-53.865,-197.239,o),
(-26.927,-177.39,o),
(4.265,-177.39,cs),
(34.748,-177.39,o),
(53.888,-199.366,o),
(53.888,-232.685,cs),
(53.888,-259.623,o),
(42.546,-288.688,o),
(4.265,-288.688,cs),
(-38.269,-288.688,o),
(-53.865,-257.496,o),
(-53.865,-230.558,cs)
);
},
{
closed = 1;
nodes = (
(-27.636,-251.116,o),
(-9.913,-261.75,o),
(4.265,-261.75,cs),
(21.279,-261.75,o),
(34.748,-251.825,o),
(34.748,-231.976,cs),
(34.748,-211.417,o),
(21.988,-200.784,o),
(0.012,-200.784,cs),
(-17.711,-200.784,o),
(-27.636,-216.38,o),
(-27.636,-231.976,cs)
);
}
);
width = 147;
}
);
},
{
color = 5;
glyphname = "dda-kannada.below";
layers = (
{
attr = {
color = 1;
};
layerId = "181B3FD6-98F3-4D7B-8C67-56E528B8E974";
shapes = (
{
attr = {
fill = 1;
fillColor = (0,255);
};
closed = 1;
nodes = (
(265.715,-86.033,o),
(366.128,-168.781,o),
(380.074,-258.967,cs),
(392.161,-335.207,o),
(326.149,-436.55,o),
(235.033,-437.479,cs),
(171.81,-437.479,o),
(121.603,-397.5,o),
(108.587,-369.607,c),
(95.57,-391.921,o),
(65.818,-430.971,o),
(12.822,-430.971,cs),
(-101.537,-430.971,o),
(-150.814,-351.012,o),
(-149.884,-247.81,cs),
(-149.884,-183.657,o),
(-116.413,-136.24,o),
(-72.715,-95.331,cs),
(-2.983,-25.599,o),
(122.533,-7.004,o),
(217.368,-59.07,cs)
);
},
{
attr = {
fill = 1;
fillColor = (0,255);
};
closed = 1;
nodes = (
(-107.116,-306.384,o),
(-80.153,-374.256,o),
(-4.843,-374.256,cs),
(61.169,-374.256,o),
(83.483,-346.364,o),
(98.36,-308.244,cs),
(104.868,-291.508,o),
(117.884,-289.649,o),
(124.393,-308.244,cs),
(135.55,-341.715,o),
(177.388,-390.062,o),
(233.174,-390.062,cs),
(301.045,-390.062,o),
(350.322,-320.331,o),
(350.322,-258.967,cs),
(350.322,-251.529,o),
(343.814,-218.988,o),
(334.517,-213.409,c),
(329.868,-224.566,o),
(294.537,-276.632,o),
(250.839,-276.632,cs),
(210.86,-276.632,o),
(188.545,-251.529,o),
(187.616,-227.355,cs),
(185.756,-167.851,o),
(235.033,-170.64,o),
(280.591,-170.64,c),
(280.591,-86.963,o),
(97.43,-35.826,o),
(-7.632,-84.174,cs),
(-66.207,-111.136,o),
(-107.116,-167.851,o),
(-107.116,-240.372,cs)
);
},
{
attr = {
fill = 1;
fillColor = (0,255);
};
closed = 1;
nodes = (
(213.649,-229.215,o),
(225.736,-247.81,o),
(242.471,-249.669,cs),
(260.136,-251.529,o),
(273.153,-243.161,o),
(282.45,-231.074,cs),
(291.748,-218.988,o),
(283.38,-192.025,o),
(264.785,-188.306,cs),
(246.19,-184.587,o),
(222.946,-192.025,o),
(217.368,-215.269,cs)
);
}
);
width = 387;
}
);
},
{
color = 5;
glyphname = "ddha-kannada.below";
layers = (
{
layerId = "181B3FD6-98F3-4D7B-8C67-56E528B8E974";
shapes = (
{
closed = 1;
nodes = (
(117.635,-400.646,o),
(133.24,-446.782,o),
(133.24,-473.243,cs),
(133.24,-494.954,o),
(119.671,-508.524,o),
(109.493,-508.524,cs),
(87.104,-508.524,o),
(84.39,-482.063,o),
(84.39,-467.815,cs),
(84.39,-437.962,o),
(100.673,-400.646,o),
(100.673,-374.185,cs),
(100.673,-370.114,o),
(100.673,-342.975,o),
(108.136,-342.975,cs),
(116.278,-342.975,o),
(117.635,-369.436,o),
(117.635,-373.507,cs)
);
},
{
alignment = -1;
ref = "dda-kannada.below";
}
);
width = 392;
}
);
},
{
color = 5;
glyphname = "nna-kannada.below";
layers = (
{
layerId = "181B3FD6-98F3-4D7B-8C67-56E528B8E974";
shapes = (
{
closed = 1;
nodes = (
(100.33,-108.647,o),
(112.639,-101.467,o),
(112.639,-101.467,cs),
(137.256,-87.106,o),
(172.131,-76.849,o),
(201.878,-76.849,cs),
(247.01,-76.849,o),
(289.065,-108.647,o),
(303.425,-146.599,cs),
(321.888,-178.397,o),
(318.811,-235.838,o),
(318.811,-270.713,cs),
(318.811,-307.639,o),
(325.991,-347.642,o),
(325.991,-384.569,cs),
(325.991,-394.826,o),
(325.991,-426.624,o),
(311.631,-426.624,cs),
(283.936,-426.624,o),
(278.807,-377.389,o),
(278.807,-356.874,cs),
(278.807,-332.256,o),
(283.936,-304.562,o),
(283.936,-279.944,cs),
(283.936,-207.117,o),
(265.473,-112.75,o),
(175.209,-109.673,cs),
(148.539,-108.647,o),
(110.587,-121.981,o),
(100.33,-134.29,c),
(128.025,-160.959,o),
(142.385,-180.448,o),
(142.385,-225.58,cs),
(142.385,-265.584,o),
(117.768,-290.201,o),
(85.97,-290.201,cs),
(59.301,-290.201,o),
(28.529,-269.687,o),
(28.529,-218.4,cs),
(28.529,-176.345,o),
(56.224,-151.728,o),
(75.713,-134.29,c),
(62.378,-118.904,o),
(20.323,-108.647,o),
(-6.346,-108.647,cs),
(-75.07,-108.647,o),
(-133.537,-179.422,o),
(-122.254,-292.253,cs),
(-121.228,-302.51,o),
(-109.945,-307.639,o),
(-102.765,-307.639,cs),
(-83.276,-307.639,o),
(-71.993,-290.201,o),
(-50.453,-290.201,cs),
(-9.423,-289.176,o),
(11.091,-327.128,o),
(11.091,-359.951,cs),
(11.091,-384.569,o),
(-11.475,-408.161,o),
(-38.144,-409.186,cs),
(-79.173,-410.212,o),
(-97.636,-395.852,o),
(-107.894,-381.492,c),
(-107.894,-392.775,o),
(-107.894,-403.032,o),
(-107.894,-414.315,cs),
(-107.894,-459.447,o),
(-97.636,-502.528,o),
(-97.636,-547.66,cs),
(-97.636,-559.969,o),
(-140.717,-566.123,o),
(-140.717,-548.686,cs),
(-140.717,-544.583,o),
(-140.717,-535.351,o),
(-140.717,-526.12,cs),
(-141.743,-491.245,o),
(-142.768,-431.752,o),
(-142.768,-416.366,cs),
(-142.768,-375.337,o),
(-127.382,-338.411,o),
(-122.254,-325.076,c),
(-157.129,-290.201,o),
(-147.897,-258.404,o),
(-147.897,-211.22,cs),
(-147.897,-150.702,o),
(-99.688,-68.643,o),
(-6.346,-84.029,cs),
(41.863,-92.235,o),
(75.713,-108.647,o),
(88.021,-118.904,c)
);
},
{
closed = 1;
nodes = (
(48.018,-237.889,o),
(65.455,-265.584,o),
(85.97,-265.584,cs),
(107.51,-265.584,o),
(121.87,-245.069,o),
(121.87,-216.349,cs),
(121.87,-188.654,o),
(113.665,-150.702,o),
(85.97,-149.676,cs),
(68.532,-148.65,o),
(41.863,-182.5,o),
(45.966,-220.452,cs)
);
},
{
closed = 1;
nodes = (
(-100.713,-378.414,o),
(-64.813,-384.569,o),
(-48.401,-384.569,cs),
(-26.861,-384.569,o),
(-8.398,-374.311,o),
(-8.398,-354.823,cs),
(-8.398,-337.385,o),
(-19.681,-316.87,o),
(-46.35,-314.819,cs),
(-77.122,-312.768,o),
(-108.919,-334.308,o),
(-105.842,-356.874,cs)
);
}
);
width = 336;
}
);
},
{
color = 5;
glyphname = "ta-kannada.below";
layers = (
{
attr = {
color = 1;
};
layerId = "181B3FD6-98F3-4D7B-8C67-56E528B8E974";
shapes = (
{
attr = {
fill = 1;
fillColor = (0,255);
};
closed = 1;
nodes = (
(207.,126.444,o),
(232.,-68.,o),
(73.667,-152.722,c),
(104.222,-152.722,o),
(140.333,-156.889,o),
(168.111,-151.333,cs),
(187.556,-147.167,o),
(201.445,-137.444,o),
(223.667,-137.444,cs),
(251.445,-137.444,o),
(245.889,-195.778,o),
(213.945,-195.778,cs),
(188.945,-195.778,o),
(162.556,-190.222,o),
(140.333,-188.833,cs),
(-106.889,-170.778,o),
(-355.5,-191.611,o),
(-602.722,-191.611,cs),
(-622.167,-191.611,o),
(-595.778,-144.389,o),
(-566.611,-144.389,cs),
(-37.444,-149.944,ls),
(193.111,-154.111,o),
(188.945,109.778,o),
(84.778,130.611,cs),
(44.5,138.944,o),
(68.111,163.944,o),
(87.556,158.389,cs)
);
}
);
width = 252;
}
);
},
{
color = 5;
glyphname = "tha-kannada.below";
layers = (
{
layerId = "181B3FD6-98F3-4D7B-8C67-56E528B8E974";
shapes = (
{
closed = 1;
nodes = (
(132.649,-468.543,o),
(149.1,-517.179,o),
(149.1,-545.073,cs),
(149.1,-567.961,o),
(134.795,-582.265,o),
(124.066,-582.265,cs),
(100.464,-582.265,o),
(97.603,-554.371,o),
(97.603,-539.351,cs),
(97.603,-507.881,o),
(114.768,-468.543,o),
(114.768,-440.649,cs),
(114.768,-436.357,o),
(114.768,-407.748,o),
(122.636,-407.748,cs),
(131.219,-407.748,o),
(132.649,-435.642,o),
(132.649,-439.934,cs)
);
},
{
alignment = -1;
ref = "da-kannada.below";
},
{
alignment = -1;
pos = (78,-493);
ref = "dot-kannada";
scale = (0.705,0.705);
}
);
width = 398;
}
);
},
{
color = 5;
glyphname = "da-kannada.below";
layers = (
{
attr = {
color = 1;
};
layerId = "181B3FD6-98F3-4D7B-8C67-56E528B8E974";
shapes = (
{
attr = {
fill = 1;
fillColor = (0,255);
};
closed = 1;
nodes = (
(249.631,-64.831,o),
(351.202,-165.178,o),
(380.572,-270.42,cs),
(403.823,-363.425,o),
(370.782,-504.156,o),
(249.631,-504.156,cs),
(172.535,-504.156,o),
(138.27,-450.311,o),
(122.362,-420.941,c),
(104.005,-452.759,o),
(84.425,-504.156,o),
(3.658,-507.827,cs),
(-105.255,-512.722,o),
(-149.31,-411.151,o),
(-149.31,-316.923,cs),
(-149.31,-177.416,o),
(4.882,-64.831,o),
(134.599,-64.831,cs)
);
},
{
attr = {
fill = 1;
fillColor = (0,255);
};
closed = 1;
nodes = (
(-113.821,-390.348,o),
(-63.648,-460.101,o),
(3.658,-460.101,cs),
(48.937,-460.101,o),
(75.859,-436.85,o),
(102.782,-405.032,cs),
(127.257,-371.991,o),
(118.69,-352.411,o),
(144.389,-403.809,cs),
(157.85,-430.731,o),
(185.996,-457.654,o),
(228.828,-457.654,cs),
(299.805,-457.654,o),
(346.307,-383.005,o),
(346.307,-319.37,cs),
(346.307,-196.996,o),
(234.946,-102.767,o),
(119.914,-102.767,cs),
(4.882,-102.767,o),
(-113.821,-209.233,o),
(-113.821,-331.608,cs)
);
}
);
width = 398;
}
);
},
{
color = 5;
glyphname = "na-kannada.below";
layers = (
{
attr = {
color = 1;
};
layerId = "181B3FD6-98F3-4D7B-8C67-56E528B8E974";
shapes = (
{
attr = {
fill = 1;
fillColor = (0,255);
};
closed = 1;
nodes = (
(-13.502,93.38,o),
(43.146,108.344,o),
(67.729,108.344,cs),
(188.508,108.344,o),
(226.986,-4.953,o),
(200.265,-110.768,cs),
(199.196,-115.043,o),
(203.472,-121.456,o),
(208.816,-120.387,cs),
(318.906,-101.148,o),
(330.663,-256.13,o),
(374.486,-320.26,cs),
(395.862,-351.256,o),
(424.721,-363.013,o),
(442.891,-388.665,cs),
(461.062,-414.318,o),
(449.304,-445.314,o),
(423.652,-433.557,cs),
(294.323,-375.839,o),
(323.181,-157.796,o),
(209.885,-157.796,c),
(207.747,-182.38,o),
(163.925,-286.057,o),
(55.972,-286.057,cs),
(23.907,-286.057,o),
(-39.155,-272.162,o),
(-39.155,-202.688,cs),
(-39.155,-164.21,o),
(-6.021,-102.217,o),
(64.523,-87.253,cs),
(106.207,-77.634,o),
(138.273,-92.597,o),
(156.443,-105.423,cs),
(163.925,-110.768,o),
(164.993,-104.355,o),
(168.2,-91.529,cs),
(200.265,29.25,o),
(125.446,133.996,o),
(-23.122,43.145,cs),
(-45.568,29.25,o),
(-61.6,41.007,o),
(-37.017,67.728,cs)
);
},
{
attr = {
fill = 1;
fillColor = (0,255);
};
closed = 1;
nodes = (
(-13.502,-218.72,o),
(18.563,-250.785,o),
(64.523,-250.785,cs),
(122.24,-250.785,o),
(166.062,-204.825,o),
(166.062,-146.039,cs),
(166.062,-113.974,o),
(97.657,-111.836,o),
(70.936,-117.181,cs),
(43.146,-122.525,o),
(14.287,-141.764,o),
(3.599,-171.691,cs)
);
}
);
width = 302;
}
);
},
{
color = 5;
glyphname = "pa-kannada.below";
layers = (
{
attr = {
color = 1;
};
hints = (
{
horizontal = 1;
place = (-15,-20);
target = down;
type = TopGhost;
}
);
layerId = "181B3FD6-98F3-4D7B-8C67-56E528B8E974";
shapes = (
{
attr = {
fill = 1;
fillColor = (0,255);
};
closed = 1;
nodes = (
(170.639,644.628,o),
(219.555,684.178,o),
(219.555,621.731,cs),
(219.555,527.021,o),
(213.311,495.797,o),
(213.311,401.087,cs),
(213.311,160.668,o),
(217.474,-76.629,o),
(219.555,-319.13,cs),
(219.555,-380.535,o),
(164.394,-470.042,o),
(73.847,-475.246,cs),
(-47.924,-481.491,o),
(-82.269,-347.231,o),
(-105.167,-322.252,c),
(-130.145,-348.271,o),
(-165.532,-490.858,o),
(-290.425,-490.858,cs),
(-378.89,-490.858,o),
(-449.663,-398.229,o),
(-449.663,-317.048,cs),
(-449.663,-241.071,o),
(-406.991,-159.891,o),
(-306.036,-159.891,cs),
(-244.63,-159.891,o),
(-202.999,-192.155,o),
(-202.999,-257.724,cs),
(-202.999,-332.66,o),
(-266.487,-360.761,o),
(-328.933,-336.823,cs),
(-355.993,-327.456,o),
(-365.36,-304.559,o),
(-321.648,-316.007,cs),
(-270.65,-329.537,o),
(-253.997,-293.11,o),
(-253.997,-260.846,cs),
(-253.997,-228.582,o),
(-285.221,-201.522,o),
(-318.525,-196.318,cs),
(-390.339,-185.91,o),
(-413.236,-261.887,o),
(-413.236,-302.477,cs),
(-413.236,-371.168,o),
(-361.197,-412.799,o),
(-293.547,-412.799,cs),
(-155.124,-412.799,o),
(-124.941,-292.069,o),
(-121.819,-179.666,cs),
(-121.819,-148.442,o),
(-85.392,-141.157,o),
(-85.392,-198.4,cs),
(-85.392,-218.174,o),
(-91.636,-237.949,o),
(-91.636,-257.724,cs),
(-91.636,-306.64,o),
(-27.108,-403.432,o),
(47.827,-415.922,cs),
(150.864,-432.574,o),
(195.618,-318.089,o),
(195.618,-229.623,cs),
(195.618,52.427,o),
(170.639,270.99,o),
(170.639,549.918,cs)
);
}
);
width = 230;
}
);
},
{
color = 5;
glyphname = "ba-kannada.below";
layers = (
{
layerId = "181B3FD6-98F3-4D7B-8C67-56E528B8E974";
shapes = (
{
closed = 1;
nodes = (
(316.803,45.753,o),
(378.747,-14.342,o),
(397.237,-82.757,cs),
(428.672,-202.947,o),
(452.71,-489.553,o),
(281.67,-498.799,cs),
(201.236,-503.421,o),
(142.065,-446.1,o),
(130.046,-390.628,c),
(107.858,-445.175,o),
(60.706,-496.025,o),
(-0.313,-505.27,cs),
(-75.201,-517.289,o),
(-149.164,-459.043,o),
(-149.164,-381.382,cs),
(-149.164,-247.325,o),
(43.14,-212.192,o),
(31.121,-114.191,cs),
(22.8,-42.078,o),
(-67.804,-36.53,o),
(-89.993,-98.474,cs),
(-107.559,-146.55,o),
(-76.125,-177.06,o),
(-24.351,-142.852,cs),
(-0.313,-127.135,o),
(-0.313,-142.852,o),
(-13.257,-163.192,cs),
(-57.634,-233.457,o),
(-152.862,-203.871,o),
(-137.145,-114.191,cs),
(-113.107,12.47,o),
(102.31,-4.172,o),
(80.122,-141.928,cs),
(68.103,-242.702,o),
(-114.956,-239.004,o),
(-114.956,-356.42,cs),
(-114.956,-410.968,o),
(-57.634,-445.175,o),
(-2.162,-445.175,cs),
(62.555,-445.175,o),
(114.329,-396.175,o),
(123.575,-334.231,cs),
(130.046,-288.929,o),
(155.009,-276.91,o),
(155.009,-334.231,cs),
(155.009,-379.533,o),
(191.99,-432.232,o),
(248.387,-443.326,cs),
(436.068,-478.459,o),
(387.992,-187.23,o),
(352.86,-72.587,cs)
);
}
);
width = 425;
}
);
},
{
color = 5;
glyphname = "bha-kannada.below";
layers = (
{
attr = {
color = 1;
};
layerId = "181B3FD6-98F3-4D7B-8C67-56E528B8E974";
shapes = (
{
attr = {
fill = 1;
fillColor = (0,255);
};
closed = 1;
nodes = (
(365.063,-77.988,o),
(365.063,-148.363,o),
(314.482,-190.148,c),
(350.769,-207.741,o),
(363.964,-262.721,o),
(363.964,-301.207,cs),
(363.964,-360.586,o),
(322.179,-393.574,o),
(251.804,-393.574,cs),
(219.916,-393.574,o),
(172.633,-388.076,o),
(142.944,-389.175,c),
(134.147,-389.175,o),
(129.749,-393.574,o),
(127.55,-405.669,cs),
(112.155,-484.841,o),
(64.872,-531.024,o),
(-32.992,-531.024,cs),
(-97.869,-531.024,o),
(-149.55,-491.438,o),
(-149.55,-436.458,cs),
(-149.55,-397.972,o),
(-115.462,-357.287,o),
(-58.283,-342.992,cs),
(-18.697,-333.096,o),
(24.187,-338.594,o),
(63.773,-342.992,cs),
(81.366,-345.191,o),
(81.366,-338.594,o),
(81.366,-324.299,cs),
(83.566,-172.554,o),
(85.765,-150.562,o),
(81.366,-93.383,cs),
(79.167,-69.192,o),
(57.175,-38.403,o),
(10.992,-38.403,cs),
(-5.502,-38.403,o),
(-29.693,-47.2,o),
(-35.191,-62.594,cs),
(-48.387,-99.98,o),
(-8.801,-106.578,o),
(6.593,-104.379,cs),
(16.49,-102.18,o),
(24.187,-94.482,o),
(25.287,-85.686,c),
(28.585,-71.391,o),
(49.478,-76.889,o),
(49.478,-88.984,cs),
(49.478,-125.271,o),
(16.49,-139.566,o),
(-13.199,-138.466,c),
(-36.291,-138.466,o),
(-64.881,-118.674,o),
(-64.881,-88.984,cs),
(-64.881,-37.303,o),
(-29.693,-15.311,o),
(23.087,-15.311,cs),
(81.366,-15.311,o),
(108.856,-75.789,o),
(118.753,-143.964,cs),
(128.649,-205.542,o),
(125.35,-270.419,o),
(125.35,-333.096,cs),
(125.35,-340.793,o),
(136.346,-340.793,o),
(141.844,-340.793,cs),
(195.725,-340.793,o),
(223.215,-345.191,o),
(275.996,-345.191,cs),
(311.183,-345.191,o),
(327.677,-293.51,o),
(327.677,-271.518,cs),
(327.677,-248.427,o),
(317.781,-205.542,o),
(293.589,-205.542,cs),
(263.9,-205.542,o),
(235.31,-205.542,o),
(206.721,-205.542,cs),
(191.326,-205.542,o),
(178.131,-167.056,o),
(204.522,-167.056,cs),
(227.613,-167.056,o),
(251.804,-167.056,o),
(274.896,-167.056,cs),
(368.362,-167.056,o),
(307.884,-58.196,o),
(285.892,-24.108,cs),
(263.9,9.98,o),
(308.984,67.159,o),
(343.071,-21.909,cs)
);
},
{
attr = {
fill = 1;
fillColor = (0,255);
};
closed = 1;
nodes = (
(-85.773,-386.976,o),
(-108.865,-410.068,o),
(-107.765,-436.458,cs),
(-105.566,-482.642,o),
(-61.582,-499.136,o),
(-23.096,-499.136,cs),
(27.486,-499.136,o),
(79.167,-468.347,o),
(83.566,-432.06,cs),
(85.765,-412.267,o),
(83.566,-373.781,o),
(56.075,-370.482,cs),
(14.291,-364.984,o),
(-23.096,-364.984,o),
(-58.283,-377.08,cs)
);
}
);
width = 374;
}
);
},
{
color = 5;
glyphname = "ma-kannada.below";
layers = (
{
attr = {
color = 1;
};
layerId = "181B3FD6-98F3-4D7B-8C67-56E528B8E974";
shapes = (
{
attr = {
fill = 1;
fillColor = (0,255);
};
closed = 1;
nodes = (
(17.645,81.299,o),
(20.983,90.199,o),
(39.895,90.199,cs),
(103.307,90.199,o),
(158.931,20.112,o),
(158.931,-44.412,cs),
(158.931,-64.436,o),
(153.368,-82.236,o),
(153.368,-102.261,c),
(188.968,-75.561,o),
(233.467,-64.436,o),
(275.742,-75.561,cs),
(322.466,-88.911,o),
(352.503,-125.623,o),
(358.066,-166.785,cs),
(366.966,-237.984,o),
(290.204,-261.346,o),
(226.792,-247.997,cs),
(177.843,-237.984,o),
(135.569,-190.147,o),
(118.881,-148.985,c),
(84.394,-160.11,o),
(52.132,-205.722,o),
(45.457,-245.772,cs),
(34.332,-316.971,o),
(88.844,-350.345,o),
(153.368,-350.345,cs),
(274.629,-350.345,o),
(415.915,-336.995,o),
(536.063,-336.995,cs),
(602.813,-336.995,o),
(583.9,-405.969,o),
(527.164,-405.969,cs),
(402.565,-405.969,o),
(276.854,-401.52,o),
(151.143,-401.52,cs),
(54.357,-401.52,o),
(-10.167,-341.445,o),
(16.533,-247.997,cs),
(37.67,-172.348,o),
(104.419,-124.511,o),
(115.544,-121.173,c),
(106.644,-85.574,o),
(133.344,-5.475,o),
(88.844,32.35,cs),
(77.719,41.25,o),
(46.57,55.712,o),
(29.883,70.174,cs)
);
},
{
attr = {
fill = 1;
fillColor = (0,255);
};
closed = 1;
nodes = (
(153.368,-177.91,o),
(194.53,-220.184,o),
(232.355,-227.972,cs),
(281.304,-239.097,o),
(321.354,-212.397,o),
(324.691,-172.348,cs),
(326.916,-145.648,o),
(311.341,-115.611,o),
(275.742,-102.261,cs),
(231.242,-85.574,o),
(153.368,-104.486,o),
(153.368,-145.648,cs)
);
}
);
width = 399;
}
);
},
{
color = 5;
glyphname = "ya-kannada.below";
layers = (
{
attr = {
color = 1;
};
layerId = "181B3FD6-98F3-4D7B-8C67-56E528B8E974";
shapes = (
{
attr = {
fill = 1;
fillColor = (0,255);
};
closed = 1;
nodes = (
(105.562,646.686,o),
(95.914,605.951,o),
(94.842,582.368,cs),
(92.698,525.554,o),
(84.122,466.595,o),
(84.122,410.853,cs),
(84.122,196.459,o),
(114.138,-4,o),
(114.138,-220.538,cs),
(114.138,-453.156,o),
(69.115,-551.777,o),
(-44.514,-551.777,cs),
(-93.825,-551.777,o),
(-138.847,-526.05,o),
(-166.719,-479.955,cs),
(-205.31,-414.565,o),
(-217.101,-220.538,o),
(-330.73,-220.538,cs),
(-373.609,-220.538,o),
(-405.768,-241.978,o),
(-405.768,-289.144,cs),
(-405.768,-315.944,o),
(-381.113,-348.103,o),
(-351.098,-348.103,cs),
(-314.651,-348.103,o),
(-297.499,-319.159,o),
(-295.355,-285.928,cs),
(-295.355,-236.618,o),
(-270.7,-274.137,o),
(-270.7,-309.512,cs),
(-270.7,-357.75,o),
(-303.931,-404.917,o),
(-354.314,-404.917,cs),
(-411.128,-404.917,o),
(-449.719,-356.678,o),
(-449.719,-304.152,cs),
(-449.719,-230.186,o),
(-390.761,-180.875,o),
(-318.939,-180.875,cs),
(-112.048,-180.875,o),
(-198.878,-500.323,o),
(-44.514,-500.323,cs),
(10.156,-500.323,o),
(47.675,-443.508,o),
(58.395,-387.766,cs),
(114.138,-95.118,o),
(53.035,208.25,o),
(41.244,498.754,cs),
(40.172,533.057,o),
(26.236,646.686,o),
(72.331,646.686,cs)
);
}
);
width = 125;
}
);
},
{
color = 5;
glyphname = "ra-kannada.below";
layers = (
{
attr = {
color = 1;
};
layerId = "181B3FD6-98F3-4D7B-8C67-56E528B8E974";
shapes = (
{
attr = {
fill = 1;
fillColor = (0,255);
};
closed = 1;
nodes = (
(-698.084,-356.214,o),
(69.902,-470.595,o),
(69.902,-69.354,cs),
(69.902,-36.674,o),
(71.718,-13.98,o),
(49.931,9.623,cs),
(30.867,30.502,o),
(-3.629,31.41,o),
(-3.629,43.211,cs),
(-3.629,57.735,o),
(26.328,57.735,o),
(34.498,57.735,cs),
(95.32,57.735,o),
(106.213,26.871,o),
(106.213,-22.15,cs),
(106.213,-282.684,o),
(-91.684,-408.866,o),
(-421.209,-372.555,cs),
(-600.043,-352.583,o),
(-838.79,-225.493,o),
(-913.229,-102.943,cs),
(-1009.454,55.012,o),
(-886.903,-31.228,o),
(-857.854,-81.156,cs)
);
}
);
width = 117;
}
);
},
{
color = 5;
glyphname = "ra-kannada.below.alt";
layers = (
{
layerId = "181B3FD6-98F3-4D7B-8C67-56E528B8E974";
shapes = (
{
closed = 1;
nodes = (
(195.769,577.089,o),
(157.642,508.097,o),
(140.394,494.48,cs),
(131.316,489.034,o),
(125.87,491.757,o),
(119.515,479.956,cs),
(51.431,366.483,o),
(48.708,249.378,o),
(72.31,127.735,cs),
(182.152,-429.644,o),
(1050.902,-352.483,o),
(1050.902,0.646,cs),
(1050.902,33.326,o),
(1045.455,66.914,o),
(1021.853,83.254,cs),
(1010.959,90.516,o),
(977.371,101.41,o),
(977.371,113.211,cs),
(977.371,127.735,o),
(1007.328,127.735,o),
(1015.498,127.735,cs),
(1076.32,127.735,o),
(1087.213,96.871,o),
(1087.213,47.85,cs),
(1087.213,-221.762,o),
(813.062,-327.065,o),
(584.301,-327.065,cs),
(114.068,-327.065,o),
(-72.028,97.778,o),
(90.466,503.558,cs),
(96.82,524.437,o),
(128.593,571.642,o),
(152.195,577.089,cs)
);
}
);
width = 1108;
}
);
},
{
color = 5;
glyphname = "la-kannada.below";
layers = (
{
attr = {
color = 1;
};
layerId = "181B3FD6-98F3-4D7B-8C67-56E528B8E974";
shapes = (
{
attr = {
fill = 1;
fillColor = (0,255);
};
closed = 1;
nodes = (
(69.627,-132.313,o),
(146.143,-168.18,o),
(165.272,-237.523,cs),
(182.01,-297.301,o),
(172.446,-376.209,o),
(93.538,-397.729,cs),
(54.084,-408.489,o),
(38.542,-388.165,o),
(77.996,-376.209,cs),
(122.232,-363.058,o),
(127.014,-316.431,o),
(123.427,-275.781,cs),
(115.058,-176.549,o),
(-21.236,-127.531,o),
(-77.428,-183.722,c),
(-33.192,-219.59,o),
(-21.236,-263.826,o),
(-29.605,-316.431,cs),
(-37.974,-367.84,o),
(-69.059,-401.316,o),
(-115.686,-401.316,cs),
(-169.487,-400.12,o),
(-192.203,-352.298,o),
(-192.203,-308.062,cs),
(-192.203,-270.999,o),
(-175.465,-214.807,o),
(-136.011,-181.331,c),
(-159.922,-161.007,o),
(-192.203,-152.638,o),
(-224.483,-157.42,cs),
(-298.608,-165.789,o),
(-340.453,-223.176,o),
(-340.453,-305.67,cs),
(-340.453,-346.32,o),
(-281.87,-348.711,o),
(-277.088,-367.84,cs),
(-268.719,-398.925,o),
(-314.151,-416.858,o),
(-340.453,-403.707,cs),
(-414.578,-352.298,o),
(-370.342,-207.634,o),
(-315.346,-161.007,cs),
(-281.87,-132.313,o),
(-231.656,-131.117,o),
(-196.985,-134.704,cs),
(-167.096,-138.291,o),
(-136.011,-147.855,o),
(-108.513,-163.398,c),
(-78.624,-129.922,o),
(-36.779,-125.14,o),
(1.479,-127.531,cs)
);
},
{
attr = {
fill = 1;
fillColor = (0,255);
};
closed = 1;
nodes = (
(-168.291,-348.711,o),
(-144.38,-367.84,o),
(-115.686,-367.84,cs),
(-78.624,-367.84,o),
(-64.277,-336.755,o),
(-64.277,-300.888,cs),
(-64.277,-257.848,o),
(-78.624,-206.438,o),
(-106.122,-201.656,cs),
(-151.553,-193.287,o),
(-168.291,-284.15,o),
(-168.291,-298.497,cs)
);
}
);
width = 183;
}
);
},
{
color = 5;
glyphname = "va-kannada.below";
layers = (
{
layerId = "181B3FD6-98F3-4D7B-8C67-56E528B8E974";
shapes = (
{
closed = 1;
nodes = (
(-195,-302,o),
(-240,-350,o),
(-304,-338,cs),
(-342,-330,o),
(-369,-305,o),
(-369,-267,cs),
(-369,-237,o),
(-353,-193,o),
(-316,-193,cs),
(-302,-193,o),
(-292,-204,o),
(-309,-211,cs),
(-321,-216,o),
(-342,-222,o),
(-342,-243,cs),
(-342,-273,o),
(-330,-292,o),
(-301,-299,cs),
(-263,-308,o),
(-222,-285,o),
(-222,-240,cs),
(-222,-187,o),
(-275,-156,o),
(-322,-156,cs),
(-397,-156,o),
(-410,-225,o),
(-410,-267,cs),
(-410,-326,o),
(-352,-385,o),
(-292,-385,cs),
(-234,-385,o),
(-139,-352,o),
(-139,-276,cs),
(-139,-264,o),
(-142,-252,o),
(-142,-240,cs),
(-142,-231,o),
(-110,-228,o),
(-110,-258,cs),
(-110,-269,o),
(-110,-279,o),
(-110,-290,cs),
(-110,-333,o),
(-42,-390,o),
(17,-393,cs),
(111,-398,o),
(138,-315,o),
(131,-261,cs),
(125,-216,o),
(89,-178,o),
(43,-190,cs),
(-5,-202,o),
(11,-247,o),
(25,-271,cs),
(56,-320,o),
(8,-305,o),
(-18,-276,cs),
(-70,-218,o),
(-17,-146,o),
(61,-146,cs),
(126,-146,o),
(175,-204,o),
(173,-279,cs),
(171,-364,o),
(111,-435,o),
(34,-435,cs),
(-38,-435,o),
(-94,-379,o),
(-128,-329,c),
(-148,-376,o),
(-192,-438,o),
(-284,-438,cs),
(-381,-438,o),
(-442,-363,o),
(-449,-274,cs),
(-454,-207,o),
(-410,-150,o),
(-363,-132,cs),
(-301,-108,o),
(-195,-134,o),
(-195,-240,cs)
);
}
);
width = 184;
}
);
},
{
color = 5;
glyphname = "lla-kannada.below";
layers = (
{
layerId = "181B3FD6-98F3-4D7B-8C67-56E528B8E974";
shapes = (
{
closed = 1;
nodes = (
(-16.338,-109.187,o),
(8.45,-96.254,o),
(28.927,-95.177,cs),
(70.958,-93.021,o),
(102.212,-141.519,o),
(102.212,-198.639,cs),
(102.212,-297.791,o),
(7.372,-354.91,o),
(-61.603,-410.953,cs),
(-82.08,-427.119,o),
(-82.08,-430.352,o),
(-72.38,-442.207,cs),
(-61.603,-455.14,o),
(-37.893,-476.694,o),
(-33.582,-515.493,cs),
(-27.116,-566.146,o),
(-70.225,-621.111,o),
(-129.5,-617.878,cs),
(-183.387,-614.644,o),
(-202.786,-581.235,o),
(-206.019,-548.903,cs),
(-210.33,-505.793,o),
(-183.387,-465.917,o),
(-162.91,-445.44,cs),
(-151.055,-433.585,o),
(-151.055,-430.352,o),
(-160.755,-422.808,cs),
(-245.896,-351.677,o),
(-324.57,-334.434,o),
(-347.203,-219.116,cs),
(-357.98,-160.918,o),
(-336.425,-105.954,o),
(-262.062,-105.954,cs),
(-216.797,-105.954,o),
(-166.143,-133.975,o),
(-166.143,-182.473,cs),
(-166.143,-219.116,o),
(-200.631,-255.759,o),
(-237.274,-255.759,cs),
(-267.45,-255.759,o),
(-297.627,-229.893,o),
(-310.56,-207.261,c),
(-310.56,-269.769,o),
(-246.973,-319.345,o),
(-197.398,-348.444,cs),
(-180.154,-357.066,o),
(-124.112,-399.098,o),
(-110.101,-399.098,cs),
(-84.236,-399.098,o),
(37.548,-319.345,o),
(65.57,-238.515,cs),
(82.813,-188.939,o),
(60.181,-150.141,o),
(37.548,-136.13,cs),
(20.305,-125.353,o),
(-16.338,-133.975,o),
(-16.338,-125.353,cs)
);
},
{
closed = 1;
nodes = (
(-305.171,-219.116,o),
(-265.295,-227.738,o),
(-237.274,-227.738,cs),
(-214.641,-227.738,o),
(-206.019,-207.261,o),
(-206.019,-187.862,cs),
(-206.019,-159.841,o),
(-230.807,-128.586,o),
(-259.906,-128.586,cs),
(-290.083,-128.586,o),
(-305.171,-156.607,o),
(-305.171,-182.473,cs)
);
},
{
closed = 1;
nodes = (
(-177.998,-562.913,o),
(-148.9,-581.235,o),
(-126.267,-581.235,cs),
(-92.857,-581.235,o),
(-73.458,-557.524,o),
(-72.38,-534.892,cs),
(-70.225,-504.716,o),
(-85.313,-442.207,o),
(-126.267,-442.207,cs),
(-158.599,-442.207,o),
(-177.998,-511.182,o),
(-177.998,-529.503,cs)
);
}
);
width = 113;
}
);
},
{
color = 5;
glyphname = "sha-kannada.below";
layers = (
{
layerId = "181B3FD6-98F3-4D7B-8C67-56E528B8E974";
shapes = (
{
closed = 1;
nodes = (
(68.082,-311.29,o),
(-75.35,-254.942,o),
(-158.166,-321.535,cs),
(-212.806,-365.077,o),
(-211.099,-437.647,o),
(-169.265,-482.043,cs),
(-130.845,-522.17,o),
(-67.667,-528.146,o),
(-13.026,-525.585,cs),
(132.114,-518.755,o),
(269.57,-417.157,o),
(250.787,-259.211,cs),
(239.688,-167.858,o),
(205.538,-105.533,o),
(160.288,-80.774,cs),
(96.256,-44.916,o),
(12.587,-44.916,o),
(-31.809,-96.142,cs),
(-58.275,-126.024,o),
(-54.006,-191.763,o),
(-9.611,-209.692,cs),
(32.224,-226.768,o),
(89.426,-207.131,o),
(88.572,-155.905,cs),
(88.572,-143.953,o),
(81.742,-123.462,o),
(71.497,-112.363,cs),
(55.275,-95.288,o),
(46.738,-110.656,o),
(55.275,-128.585,cs),
(58.69,-136.269,o),
(62.105,-146.514,o),
(58.69,-155.905,cs),
(54.422,-167.858,o),
(36.493,-173.834,o),
(22.832,-173.834,cs),
(-7.903,-173.834,o),
(-31.809,-139.684,o),
(-15.587,-115.778,cs),
(8.318,-80.774,o),
(62.105,-81.628,o),
(82.596,-84.189,cs),
(180.779,-95.288,o),
(227.736,-190.056,o),
(227.736,-269.456,cs),
(228.589,-390.69,o),
(100.525,-472.652,o),
(-37.785,-479.482,cs),
(-113.77,-482.897,o),
(-161.581,-458.138,o),
(-158.166,-402.643,cs),
(-154.751,-342.88,o),
(-105.232,-342.026,o),
(1.488,-315.559,cs),
(71.497,-298.484,o),
(126.991,-266.041,o),
(152.604,-210.546,cs),
(171.387,-169.565,o),
(162.85,-139.684,o),
(138.09,-184.933,cs)
);
}
);
width = 258;
}
);
},
{
color = 5;
glyphname = "ssa-kannada.below";
layers = (
{
layerId = "181B3FD6-98F3-4D7B-8C67-56E528B8E974";
shapes = (
{
closed = 1;
nodes = (
(-408.783,-128.619,o),
(-438.,-254.474,o),
(-414.402,-312.907,cs),
(-395.298,-367.969,o),
(-331.247,-391.567,o),
(-271.69,-387.072,cs),
(-188.535,-381.454,o),
(-142.463,-348.866,o),
(-110.999,-283.691,cs),
(-96.391,-253.351,o),
(-110.999,-188.175,o),
(-110.999,-140.979,cs),
(-110.999,-76.928,o),
(-90.772,-107.268,o),
(-87.401,-135.361,cs),
(-84.03,-172.443,o),
(-85.154,-229.753,o),
(-85.154,-265.712,cs),
(-85.154,-327.516,o),
(-10.989,-387.072,o),
(46.32,-387.072,cs),
(66.547,-387.072,o),
(96.887,-380.33,o),
(108.125,-373.588,cs),
(112.619,-371.34,o),
(112.619,-369.093,o),
(109.248,-365.722,cs),
(32.836,-289.309,o),
(15.98,-220.763,o),
(21.599,-176.938,cs),
(29.465,-119.629,o),
(89.021,-71.309,o),
(149.702,-84.794,cs),
(196.898,-96.031,o),
(237.351,-144.351,o),
(232.857,-224.134,cs),
(228.362,-288.186,o),
(195.774,-334.258,o),
(176.671,-365.722,cs),
(175.547,-367.969,o),
(182.29,-371.34,o),
(182.29,-371.34,cs),
(227.238,-397.186,o),
(259.826,-429.773,o),
(280.052,-479.217,cs),
(304.774,-542.145,o),
(289.042,-592.712,o),
(265.444,-561.248,cs),
(214.877,-494.949,o),
(238.475,-467.98,o),
(155.32,-405.052,c),
(131.723,-421.907,o),
(92.393,-439.887,o),
(49.692,-436.516,cs),
(-14.36,-430.897,o),
(-70.546,-361.227,o),
(-96.391,-312.907,c),
(-124.484,-378.083,o),
(-212.133,-452.248,o),
(-298.659,-443.258,cs),
(-408.783,-432.021,o),
(-449.237,-345.495,o),
(-449.237,-253.351,cs),
(-449.237,-181.433,o),
(-398.67,-102.773,o),
(-307.649,-102.773,cs),
(-260.453,-102.773,o),
(-194.154,-144.351,o),
(-179.546,-197.165,cs),
(-160.443,-266.835,o),
(-213.257,-334.258,o),
(-284.051,-334.258,cs),
(-337.989,-334.258,o),
(-367.206,-298.299,o),
(-367.206,-244.361,cs),
(-367.206,-193.794,o),
(-331.247,-173.567,o),
(-286.298,-173.567,cs),
(-277.309,-173.567,o),
(-259.329,-176.938,o),
(-259.329,-188.175,cs),
(-259.329,-215.144,o),
(-331.247,-188.175,o),
(-331.247,-253.351,cs),
(-331.247,-283.691,o),
(-316.639,-303.918,o),
(-284.051,-303.918,cs),
(-233.484,-303.918,o),
(-206.515,-256.722,o),
(-206.515,-211.773,cs),
(-206.515,-162.33,o),
(-254.834,-128.619,o),
(-300.907,-128.619,cs)
);
},
{
closed = 1;
nodes = (
(48.568,-271.33,o),
(108.125,-339.876,o),
(144.083,-339.876,cs),
(173.3,-339.876,o),
(205.888,-278.072,o),
(205.888,-220.763,cs),
(205.888,-169.072,o),
(182.29,-125.247,o),
(135.094,-117.382,cs),
(76.661,-107.268,o),
(48.568,-160.083,o),
(48.568,-216.268,cs)
);
}
);
width = 303;
}
);
},
{
color = 5;
glyphname = "sa-kannada.below";
layers = (
{
layerId = "181B3FD6-98F3-4D7B-8C67-56E528B8E974";
shapes = (
{
closed = 1;
nodes = (
(159,526,o),
(157,395,o),
(159,300,cs),
(164,40,o),
(183,-333,o),
(171,-380,cs),
(148,-470,o),
(105,-488,o),
(34,-488,cs),
(-98,-488,o),
(-141,-309,o),
(-232,-296,cs),
(-266,-291,o),
(-298,-312,o),
(-298,-349,cs),
(-298,-375,o),
(-287,-423,o),
(-254,-445,cs),
(-218,-470,o),
(-241,-498,o),
(-266,-489,cs),
(-309,-473,o),
(-350,-427,o),
(-350,-363,cs),
(-350,-291,o),
(-289,-257,o),
(-235,-257,cs),
(-70,-256,o),
(-63,-446,o),
(38,-446,cs),
(119,-446,o),
(138,-373,o),
(142,-243,cs),
(144,-173,o),
(97,384,o),
(102,612,cs),
(103,657,o),
(156,664,o),
(158,589,cs)
);
}
);
width = 185;
}
);
},
{
color = 5;
glyphname = "ha-kannada.below";
layers = (
{
layerId = "181B3FD6-98F3-4D7B-8C67-56E528B8E974";
shapes = (
{
closed = 1;
nodes = (
(129.942,-33.612,o),
(172.008,-105.199,o),
(177.174,-173.834,cs),
(183.816,-266.823,o),
(169.056,-380.476,o),
(51.713,-379.738,cs),
(-11.018,-379.738,o),
(-57.512,-302.247,o),
(-71.535,-253.539,c),
(-92.937,-322.173,o),
(-148.288,-373.834,o),
(-224.302,-373.096,cs),
(-329.1,-373.096,o),
(-349.764,-283.797,o),
(-349.026,-198.188,cs),
(-349.026,-136.933,o),
(-320.981,-43.944,o),
(-244.967,-49.848,cs),
(-202.9,-52.062,o),
(-174.118,-98.557,o),
(-159.358,-139.885,cs),
(-151.978,-160.55,o),
(-151.24,-177.524,o),
(-168.214,-150.217,cs),
(-180.022,-131.029,o),
(-204.376,-94.867,o),
(-241.277,-88.225,cs),
(-296.627,-80.107,o),
(-314.339,-162.026,o),
(-314.339,-201.878,cs),
(-314.339,-268.299,o),
(-287.771,-331.767,o),
(-222.826,-333.243,cs),
(-154.192,-334.719,o),
(-97.365,-271.251,o),
(-92.937,-205.568,cs),
(-87.033,-122.173,o),
(-61.203,-33.612,o),
(39.905,-33.612,cs)
);
},
{
closed = 1;
nodes = (
(-54.56,-281.583,o),
(-18.398,-337.672,o),
(48.761,-336.196,cs),
(113.705,-335.458,o),
(143.226,-295.605,o),
(150.606,-236.564,cs),
(160.2,-168.668,o),
(129.942,-66.822,o),
(56.879,-66.822,cs),
(-17.66,-66.822,o),
(-54.56,-142.099,o),
(-54.56,-216.638,cs)
);
}
);
width = 189;
}
);
},
{
color = 3;
glyphname = "gh-kannada";
layers = (
{
layerId = "181B3FD6-98F3-4D7B-8C67-56E528B8E974";
shapes = (
{
closed = 1;
nodes = (
(837,536,ls),
(828,536,o),
(821,493,o),
(846,476,cs),
(866,462,o),
(916,457,o),
(924,490,cs),
(930,512,o),
(915,536,o),
(893,536,cs)
);
},
{
closed = 1;
nodes = (
(556,536,l),
(556,600,l),
(584,600,o),
(736,600,o),
(771,600,c),
(783,708,o),
(828,812,o),
(955,836,cs),
(965,838,o),
(986,841,o),
(988,836,cs),
(992,829,o),
(974,819,o),
(965,815,cs),
(892,779,o),
(837,716,o),
(837,618,cs),
(837,594,o),
(851,600,o),
(870,600,cs),
(912,600,o),
(965,561,o),
(965,490,cs),
(966,413,o),
(832,392,o),
(790,460,cs),
(779,477,o),
(769,515,o),
(771,536,c)
);
},
{
alignment = -1;
pos = (40,0);
ref = "gha-kannada.base";
}
);
width = 1029;
}
);
},
{
color = 3;
glyphname = "ng-kannada";
layers = (
{
layerId = "181B3FD6-98F3-4D7B-8C67-56E528B8E974";
shapes = (
{
closed = 1;
nodes = (
(743.199,536.755,ls),
(734.514,536.755,o),
(727.566,493.329,o),
(753.621,475.959,cs),
(772.728,462.063,o),
(824.839,456.852,o),
(831.787,489.855,c),
(838.735,512.436,o),
(821.365,536.755,o),
(800.52,536.755,cs)
);
},
{
closed = 1;
nodes = (
(354.107,536.755,l),
(333.263,536.755,o),
(331.526,599.287,o),
(354.107,599.287,c),
(381.899,599.287,o),
(642.452,599.287,o),
(677.192,599.287,c),
(689.351,708.719,o),
(734.514,811.203,o),
(861.316,835.522,c),
(871.738,837.259,o),
(892.582,840.733,o),
(894.319,835.522,cs),
(899.53,828.573,o),
(880.423,818.151,o),
(871.738,814.677,c),
(800.52,778.2,o),
(743.199,715.667,o),
(743.199,618.394,cs),
(743.199,594.076,o),
(758.832,599.287,o),
(776.202,599.287,cs),
(819.628,599.287,o),
(871.738,561.073,o),
(871.738,489.855,cs),
(871.738,413.427,o),
(739.725,392.582,o),
(696.299,460.326,c),
(687.614,477.696,o),
(675.455,514.173,o),
(677.192,536.755,c)
);
},
{
alignment = -1;
pos = (40,0);
ref = "nga-kannada.base";
}
);
width = 936;
}
);
},
{
color = 3;
glyphname = "ny-kannada";
layers = (
{
layerId = "181B3FD6-98F3-4D7B-8C67-56E528B8E974";
shapes = (
{
closed = 1;
nodes = (
(1144.199,526.755,ls),
(1135.514,526.755,o),
(1128.566,483.329,o),
(1154.621,465.959,cs),
(1173.728,452.063,o),
(1224.102,446.852,o),
(1232.787,479.855,cs),
(1237.998,502.436,o),
(1222.365,526.755,o),
(1201.52,526.755,cs)
);
},
{
closed = 1;
nodes = (
(775.951,526.755,ls),
(751.633,526.755,o),
(751.633,589.287,o),
(775.951,589.287,cs),
(803.744,589.287,o),
(1043.452,589.287,o),
(1078.192,589.287,c),
(1090.351,698.719,o),
(1135.514,801.203,o),
(1262.316,825.522,c),
(1272.738,827.259,o),
(1293.582,830.733,o),
(1295.319,825.522,cs),
(1300.53,818.573,o),
(1281.423,808.151,o),
(1272.738,804.677,c),
(1201.52,768.2,o),
(1144.199,705.667,o),
(1144.199,608.394,cs),
(1144.199,584.076,o),
(1159.832,589.287,o),
(1177.202,589.287,cs),
(1220.628,589.287,o),
(1272.738,551.073,o),
(1272.738,479.855,cs),
(1272.738,403.427,o),
(1138.988,380.845,o),
(1097.299,450.326,cs),
(1086.877,467.696,o),
(1076.455,504.173,o),
(1078.192,526.755,c)
);
},
{
alignment = -1;
pos = (40,0);
ref = "nya-kannada.base";
}
);
width = 1337;
}
);
},
{
color = 3;
glyphname = "tt-kannada";
layers = (
{
layerId = "181B3FD6-98F3-4D7B-8C67-56E528B8E974";
shapes = (
{
closed = 1;
nodes = (
(791.199,536.755,ls),
(782.514,536.755,o),
(775.566,493.329,o),
(801.621,475.959,cs),
(820.728,462.063,o),
(872.839,456.852,o),
(879.787,489.855,c),
(886.735,512.436,o),
(869.365,536.755,o),
(848.52,536.755,cs)
);
},
{
closed = 1;
nodes = (
(610.549,536.755,l),
(558.439,599.287,l),
(586.231,599.287,o),
(690.452,599.287,o),
(725.192,599.287,c),
(737.351,708.719,o),
(782.514,811.203,o),
(909.316,835.522,c),
(919.738,837.259,o),
(940.582,840.733,o),
(942.319,835.522,cs),
(947.53,828.573,o),
(928.423,818.151,o),
(919.738,814.677,c),
(848.52,778.2,o),
(791.199,715.667,o),
(791.199,618.394,cs),
(791.199,594.076,o),
(806.832,599.287,o),
(824.202,599.287,cs),
(867.628,599.287,o),
(919.738,561.073,o),
(919.738,489.855,cs),
(919.738,413.427,o),
(787.725,392.582,o),
(744.299,460.326,c),
(735.614,477.696,o),
(723.455,514.173,o),
(725.192,536.755,c)
);
},
{
alignment = -1;
pos = (40,0);
ref = "tta-kannada.base";
}
);
width = 984;
}
);
},
{
color = 3;
glyphname = "nn-kannada";
layers = (
{
layerId = "181B3FD6-98F3-4D7B-8C67-56E528B8E974";
shapes = (
{
closed = 1;
nodes = (
(1145.417,538.492,ls),
(1136.731,538.492,o),
(1134.994,500.277,o),
(1155.839,477.696,cs),
(1176.683,455.115,o),
(1227.056,458.589,o),
(1234.004,491.592,c),
(1240.952,514.173,o),
(1223.582,538.492,o),
(1202.738,538.492,cs)
);
},
{
closed = 1;
nodes = (
(870.968,538.492,l),
(837.965,538.492,o),
(837.965,601.024,o),
(870.968,601.024,c),
(898.76,601.024,o),
(1044.67,601.024,o),
(1079.41,601.024,c),
(1091.569,710.456,o),
(1136.731,812.94,o),
(1263.534,837.259,c),
(1273.956,838.996,o),
(1293.063,842.47,o),
(1296.537,837.259,cs),
(1300.011,830.31,o),
(1282.641,819.888,o),
(1273.956,816.414,c),
(1202.738,779.937,o),
(1145.417,717.404,o),
(1145.417,620.131,cs),
(1145.417,595.813,o),
(1161.05,601.024,o),
(1178.42,601.024,cs),
(1221.845,601.024,o),
(1273.956,562.81,o),
(1273.956,491.592,cs),
(1273.956,415.164,o),
(1141.943,387.371,o),
(1098.517,462.063,cs),
(1088.095,479.433,o),
(1077.673,515.91,o),
(1079.41,538.492,c)
);
},
{
alignment = -1;
pos = (40,0);
ref = "nna-kannada.base";
}
);
width = 1337;
}
);
},
{
color = 3;
glyphname = "p-kannada";
layers = (
{
layerId = "181B3FD6-98F3-4D7B-8C67-56E528B8E974";
shapes = (
{
closed = 1;
nodes = (
(821,536,ls),
(812,536,o),
(805,493,o),
(830,476,cs),
(850,462,o),
(900,457,o),
(908,490,cs),
(914,512,o),
(899,536,o),
(877,536,cs)
);
},
{
closed = 1;
nodes = (
(580,536,l),
(580,600,l),
(608,600,o),
(720,600,o),
(755,600,c),
(767,708,o),
(812,812,o),
(939,836,cs),
(949,838,o),
(970,841,o),
(972,836,cs),
(976,829,o),
(958,819,o),
(949,815,cs),
(876,779,o),
(821,716,o),
(821,618,cs),
(821,594,o),
(835,600,o),
(854,600,cs),
(896,600,o),
(949,561,o),
(949,490,cs),
(950,413,o),
(816,392,o),
(774,460,cs),
(763,477,o),
(753,515,o),
(755,536,c)
);
},
{
alignment = -1;
pos = (40,0);
ref = "pa-kannada.base";
}
);
width = 1013;
}
);
},
{
color = 3;
glyphname = "l-kannada";
layers = (
{
layerId = "181B3FD6-98F3-4D7B-8C67-56E528B8E974";
shapes = (
{
closed = 1;
nodes = (
(886.777,543.018,ls),
(878.092,543.018,o),
(876.355,504.803,o),
(897.199,482.222,cs),
(918.043,459.641,o),
(968.417,463.115,o),
(975.365,496.118,c),
(982.313,518.699,o),
(964.943,543.018,o),
(944.098,543.018,cs)
);
},
{
closed = 1;
nodes = (
(654.017,544.755,ls),
(636.646,544.755,o),
(633.172,609.024,o),
(654.017,609.024,cs),
(681.809,609.024,o),
(786.03,609.024,o),
(820.77,609.024,c),
(832.929,718.456,o),
(878.092,820.94,o),
(1004.894,845.259,c),
(1015.316,846.996,o),
(1034.423,850.47,o),
(1037.897,845.259,cs),
(1041.371,838.31,o),
(1024.001,827.888,o),
(1015.316,824.414,c),
(944.098,787.937,o),
(886.777,725.404,o),
(886.777,628.131,cs),
(886.777,603.813,o),
(902.41,609.024,o),
(919.78,609.024,cs),
(963.206,609.024,o),
(1015.316,570.81,o),
(1015.316,499.592,cs),
(1015.316,423.164,o),
(883.303,395.371,o),
(839.877,470.063,cs),
(829.455,487.433,o),
(819.033,522.173,o),
(820.77,544.755,c)
);
},
{
alignment = -1;
pos = (40,0);
ref = "la-kannada.base";
}
);
width = 1079;
}
);
},
{
color = 3;
glyphname = "ss-kannada";
layers = (
{
layerId = "181B3FD6-98F3-4D7B-8C67-56E528B8E974";
shapes = (
{
closed = 1;
nodes = (
(841,536,ls),
(832,536,o),
(825,493,o),
(850,476,cs),
(870,462,o),
(920,457,o),
(928,490,cs),
(934,512,o),
(919,536,o),
(897,536,cs)
);
},
{
closed = 1;
nodes = (
(620,536,l),
(620,600,l),
(648,600,o),
(740,600,o),
(775,600,c),
(787,708,o),
(832,812,o),
(959,836,cs),
(969,838,o),
(990,841,o),
(992,836,cs),
(996,829,o),
(978,819,o),
(969,815,cs),
(896,779,o),
(841,716,o),
(841,618,cs),
(841,594,o),
(855,600,o),
(874,600,cs),
(916,600,o),
(969,561,o),
(969,490,cs),
(970,413,o),
(836,392,o),
(794,460,cs),
(783,477,o),
(773,515,o),
(775,536,c)
);
},
{
alignment = -1;
pos = (40,0);
ref = "ssa-kannada.base";
}
);
width = 1033;
}
);
},
{
color = 3;
glyphname = "ngaa-kannada";
layers = (
{
layerId = "181B3FD6-98F3-4D7B-8C67-56E528B8E974";
shapes = (
{
closed = 1;
nodes = (
(445.52,600.268,o),
(876.711,600.268,o),
(933.086,600.268,cs),
(1064.119,600.268,o),
(1144.872,492.089,o),
(1149.443,329.059,cs),
(1152.49,211.739,o),
(1106.781,105.084,o),
(997.079,77.658,cs),
(907.184,54.804,o),
(815.765,97.466,o),
(803.576,217.834,cs),
(797.482,283.35,o),
(837.096,336.678,o),
(896.518,326.012,cs),
(926.991,319.918,o),
(948.322,297.063,o),
(948.322,265.066,cs),
(948.322,223.928,o),
(923.944,199.55,o),
(885.853,199.55,cs),
(879.758,199.55,o),
(873.664,199.55,o),
(873.664,187.361,cs),
(873.664,126.415,o),
(933.086,114.226,o),
(974.224,118.797,cs),
(1083.926,130.986,o),
(1114.399,248.306,o),
(1097.639,345.82,cs),
(1080.879,437.238,o),
(1035.17,536.275,o),
(933.086,536.275,cs),
(876.711,536.275,o),
(434.855,536.275,o),
(378.48,536.275,cs),
(338.865,536.275,o),
(338.865,600.268,o),
(378.48,600.268,cs)
);
},
{
alignment = -1;
pos = (40,0);
ref = "nga-kannada.base";
}
);
width = 1190;
}
);
},
{
color = 5;
glyphname = "ki-kannada";
layers = (
{
attr = {
color = 1;
};
layerId = "181B3FD6-98F3-4D7B-8C67-56E528B8E974";
shapes = (
{
attr = {
fill = 1;
fillColor = (0,255);
};
closed = 1;
nodes = (
(317.085,350.744,o),
(367.74,350.744,o),
(398.132,350.744,cs),
(415.017,350.744,o),
(442.033,348.493,o),
(442.033,324.854,cs),
(442.033,302.341,o),
(431.902,291.084,o),
(409.389,291.084,cs),
(374.493,291.084,o),
(339.598,291.084,o),
(301.326,291.084,c),
(358.734,260.692,o),
(393.63,190.901,o),
(393.63,136.869,cs),
(393.63,45.691,o),
(313.708,-0.461,o),
(234.912,-0.461,cs),
(161.744,-0.461,o),
(82.949,53.571,o),
(79.572,142.498,cs),
(77.32,211.163,o),
(116.718,260.692,o),
(170.75,291.084,c),
(143.734,291.084,o),
(99.833,291.084,o),
(53.681,291.084,cs),
(32.294,291.084,o),
(37.922,350.744,o),
(58.184,350.744,cs),
(82.949,350.744,o),
(127.975,350.744,o),
(153.865,350.744,cs),
(202.268,350.744,o),
(260.802,346.241,o),
(293.446,421.66,cs),
(301.326,439.671,o),
(295.698,387.891,o),
(286.692,350.744,c)
);
},
{
attr = {
fill = 1;
fillColor = (0,255);
};
closed = 1;
nodes = (
(135.854,101.974,o),
(175.252,60.325,o),
(234.912,59.199,cs),
(304.703,58.073,o),
(339.598,112.105,o),
(339.598,159.383,cs),
(339.598,219.042,o),
(308.08,279.828,o),
(241.666,279.828,cs),
(182.006,279.828,o),
(135.854,219.042,o),
(135.854,159.383,cs)
);
},
{
attr = {
fill = 1;
fillColor = (0,255);
};
closed = 1;
nodes = (
(94,577,o),
(140,602,o),
(189,607,cs),
(272,616,o),
(350,577,o),
(350,487,cs),
(350,439,o),
(325,400,o),
(302,369,cs),
(291,356,o),
(281,344,o),
(265,328,c),
(250,327,o),
(246,327,o),
(213,328,c),
(233,335,o),
(286,393,o),
(297,433,cs),
(321,521,o),
(267,582,o),
(197,582,cs),
(151,582,o),
(112,545,o),
(120,502,cs),
(124,480,o),
(140,464,o),
(168,464,cs),
(199,464,o),
(211,500,o),
(217,518,cs),
(229,558,o),
(250,513,o),
(238,474,cs),
(227,437,o),
(193,415,o),
(158,415,cs),
(108,415,o),
(74,464,o),
(84,520,cs)
);
}
);
width = 483;
}
);
},
{
color = 5;
glyphname = "khi-kannada";
layers = (
{
layerId = "181B3FD6-98F3-4D7B-8C67-56E528B8E974";
shapes = (
{
closed = 1;
nodes = (
(446.649,692.564,o),
(473.655,704.306,o),
(522.97,704.306,cs),
(553.498,704.306,o),
(592.246,683.171,o),
(607.51,658.513,cs),
(643.909,599.805,o),
(642.735,457.73,o),
(642.735,381.409,cs),
(642.735,298.043,o),
(643.909,219.374,o),
(578.156,167.711,cs),
(515.925,118.395,o),
(389.115,147.75,o),
(375.025,140.705,cs),
(328.058,117.221,o),
(340.974,-1.37,o),
(173.067,-1.37,cs),
(130.797,-1.37,o),
(57.999,23.288,o),
(43.909,77.3,cs),
(26.296,147.75,o),
(70.915,195.891,o),
(142.539,209.981,cs),
(195.377,220.548,o),
(236.473,218.2,o),
(296.355,205.284,cs),
(317.49,200.587,o),
(328.058,247.554,o),
(330.406,267.515,cs),
(340.974,343.836,o),
(340.974,417.809,o),
(322.187,498.826,cs),
(311.619,539.922,o),
(268.175,556.361,o),
(238.821,556.361,cs),
(222.383,556.361,o),
(195.377,545.793,o),
(185.983,522.31,c),
(180.112,504.697,o),
(190.68,478.865,o),
(220.034,483.562,c),
(236.473,484.736,o),
(245.866,496.478,o),
(251.737,508.22,cs),
(262.304,525.832,o),
(279.917,530.529,o),
(279.917,504.697,cs),
(279.917,467.124,o),
(249.388,429.55,o),
(214.163,429.55,cs),
(189.506,429.55,o),
(146.062,449.511,o),
(137.842,489.433,cs),
(124.927,551.664,o),
(178.938,599.805,o),
(243.518,599.805,cs),
(290.484,599.805,o),
(333.929,589.237,o),
(352.715,539.922,cs),
(407.901,400.196,o),
(338.625,272.212,o),
(372.676,207.632,cs),
(394.985,167.711,o),
(507.706,170.059,o),
(559.369,201.762,cs),
(607.51,231.116,o),
(612.207,343.836,o),
(612.207,381.409,cs),
(612.207,440.118,o),
(607.51,584.541,o),
(587.549,629.159,cs),
(576.982,652.643,o),
(562.892,545.793,o),
(499.487,545.793,cs),
(448.997,545.793,o),
(400.856,597.457,o),
(429.036,656.165,cs)
);
},
{
closed = 1;
nodes = (
(303.4,147.75,l),
(302.226,153.621,o),
(232.95,164.188,o),
(154.281,159.491,cs),
(121.404,157.143,o),
(62.696,133.66,o),
(67.392,91.39,cs),
(70.915,50.294,o),
(123.752,29.159,o),
(173.067,29.159,cs),
(232.95,29.159,o),
(294.007,50.294,o),
(303.4,125.441,c)
);
},
{
closed = 1;
nodes = (
(476.003,611.547,o),
(490.093,597.457,o),
(511.228,597.457,cs),
(530.015,597.457,o),
(557.021,611.547,o),
(553.498,644.423,cs),
(551.15,666.733,o),
(526.492,666.733,o),
(517.099,666.733,cs),
(498.312,666.733,o),
(476.003,653.817,o),
(476.003,632.682,cs)
);
}
);
width = 683;
}
);
},
{
color = 5;
glyphname = "gi-kannada";
layers = (
{
layerId = "181B3FD6-98F3-4D7B-8C67-56E528B8E974";
shapes = (
{
closed = 1;
nodes = (
(47.66,665.37,o),
(143.22,671.741,o),
(230.816,652.629,cs),
(464.938,601.664,o),
(512.718,373.912,o),
(579.61,174.829,cs),
(590.759,139.79,o),
(617.835,79.269,o),
(617.835,47.415,cs),
(617.835,-3.55,o),
(563.684,-22.662,o),
(557.313,39.452,cs),
(541.386,201.904,o),
(490.421,361.171,o),
(406.01,491.77,cs),
(391.676,514.067,o),
(372.564,533.179,o),
(356.637,539.55,c),
(350.266,534.772,o),
(343.896,526.808,o),
(326.376,506.104,cs),
(191.,346.837,o),
(136.849,232.165,o),
(112.959,36.267,cs),
(106.588,-13.106,o),
(54.03,-3.55,o),
(54.03,36.267,cs),
(54.03,131.827,o),
(100.218,240.128,o),
(160.739,332.503,cs),
(277.004,512.474,o),
(332.747,545.92,o),
(320.006,563.44,cs),
(297.708,592.108,o),
(264.262,601.664,o),
(227.631,609.627,cs),
(154.368,623.961,o),
(106.588,582.552,o),
(106.588,533.179,cs),
(106.588,512.474,o),
(127.293,486.992,o),
(151.183,494.955,cs),
(173.48,501.326,o),
(176.666,531.586,o),
(187.814,552.291,cs),
(206.926,590.515,o),
(218.075,565.032,o),
(214.89,539.55,cs),
(210.112,486.992,o),
(186.222,443.99,o),
(120.922,443.99,cs),
(74.735,443.99,o),
(36.511,491.77,o),
(39.696,537.957,cs)
);
}
);
width = 658;
}
);
},
{
color = 5;
glyphname = "ghi-kannada";
layers = (
{
layerId = "181B3FD6-98F3-4D7B-8C67-56E528B8E974";
shapes = (
{
closed = 1;
nodes = (
(659,514,o),
(681,529,o),
(700,529,cs),
(755,529,o),
(775,415,o),
(775,371,cs),
(775,321,o),
(760,255,o),
(695,261,cs),
(658,265,o),
(725,219,o),
(725,154,cs),
(725,62,o),
(676,-2,o),
(599,-2,cs),
(499,-2,o),
(457,45,o),
(405,105,cs),
(388,125,o),
(380,124,o),
(368,109,cs),
(316,45,o),
(273,-2,o),
(191,-2,cs),
(86,-2,o),
(40,90,o),
(40,181,cs),
(40,234,o),
(79,271,o),
(127,271,cs),
(169,271,o),
(217,242,o),
(219,186,cs),
(221,132,o),
(169,107,o),
(139,117,cs),
(126,122,o),
(122,125,o),
(122,109,cs),
(122,72,o),
(174,70,o),
(198,70,cs),
(278,70,o),
(320,93,o),
(350,137,cs),
(358,149,o),
(363,177,o),
(363,192,cs),
(363,207,o),
(358,246,o),
(382,246,cs),
(408,246,o),
(402,209,o),
(405,192,cs),
(414,140,o),
(450,83,o),
(499,70,cs),
(557,55,o),
(663,72,o),
(673,145,cs),
(686,244,o),
(628,303,o),
(611,322,cs),
(593,342,o),
(557,390,o),
(514,463,cs),
(490,504,o),
(507,508,o),
(544,508,cs),
(613,509,o),
(614,336,o),
(670,336,cs),
(693,336,o),
(725,356,o),
(725,380,cs),
(725,432,o),
(659,450,o),
(659,495,cs)
);
},
{
closed = 1;
nodes = (
(93,171,o),
(107,154,o),
(130,154,cs),
(154,154,o),
(182,166,o),
(180,194,cs),
(177,229,o),
(142,238,o),
(120,231,cs),
(97,224,o),
(90,209,o),
(92,189,cs)
);
},
{
closed = 1;
nodes = (
(395,30,o),
(418,-38,o),
(418,-77,cs),
(418,-109,o),
(398,-129,o),
(383,-129,cs),
(350,-129,o),
(346,-90,o),
(346,-69,cs),
(346,-25,o),
(370,30,o),
(370,69,cs),
(370,75,o),
(367,95,o),
(381,95,cs),
(396,95,o),
(395,76,o),
(395,70,cs)
);
},
{
alignment = -1;
pos = (211,0);
ref = "iMatra-kannada.alt";
}
);
width = 815;
}
);
},
{
color = 5;
glyphname = "ci-kannada";
layers = (
{
layerId = "181B3FD6-98F3-4D7B-8C67-56E528B8E974";
shapes = (
{
closed = 1;
nodes = (
(777.698,295.712,o),
(802.462,236.66,o),
(802.462,183.323,cs),
(802.462,84.269,o),
(724.361,-1.451,o),
(619.592,-1.451,cs),
(512.918,-1.451,o),
(444.342,93.793,o),
(423.389,133.796,c),
(402.435,97.603,o),
(379.576,-1.451,o),
(232.899,-1.451,cs),
(128.13,-1.451,o),
(42.41,57.601,o),
(40.505,173.799,cs),
(40.505,318.571,o),
(288.141,362.383,o),
(288.141,493.821,cs),
(288.141,537.633,o),
(232.899,558.587,o),
(194.802,560.492,c),
(152.894,560.492,o),
(135.75,533.823,o),
(135.75,509.06,cs),
(135.75,457.628,o),
(196.706,446.198,o),
(215.755,484.296,cs),
(225.28,503.345,o),
(253.853,503.345,o),
(253.853,480.486,cs),
(253.853,444.293,o),
(225.28,402.386,o),
(160.514,402.386,cs),
(122.416,402.386,o),
(90.033,434.769,o),
(86.223,474.772,cs),
(82.413,518.584,o),
(110.986,594.78,o),
(192.897,594.78,cs),
(261.473,594.78,o),
(326.239,562.397,o),
(326.239,478.581,cs),
(326.239,356.668,o),
(91.937,328.095,o),
(91.937,192.848,cs),
(91.937,109.033,o),
(187.182,76.649,o),
(240.519,76.649,cs),
(341.478,76.649,o),
(400.53,120.462,o),
(400.53,215.707,cs),
(400.53,223.326,o),
(400.53,257.614,o),
(411.959,274.758,cs),
(421.484,288.092,o),
(434.818,288.092,o),
(434.818,269.043,cs),
(434.818,249.995,o),
(427.198,236.66,o),
(427.198,225.231,cs),
(427.198,129.986,o),
(533.872,74.745,o),
(592.924,74.745,cs),
(682.454,74.745,o),
(760.554,93.793,o),
(760.554,202.372,cs),
(760.554,270.948,o),
(707.217,295.712,o),
(644.356,295.712,cs),
(625.307,295.712,o),
(596.734,295.712,o),
(592.924,295.712,cs),
(570.065,295.712,o),
(570.065,341.429,o),
(594.829,341.429,cs),
(632.927,341.429,o),
(665.31,339.524,o),
(705.312,339.524,cs),
(724.361,339.524,o),
(838.655,436.674,o),
(733.886,318.571,c)
);
},
{
alignment = -1;
pos = (554,-31);
ref = "iMatra-kannada";
}
);
width = 843;
}
);
},
{
color = 5;
glyphname = "chi-kannada";
layers = (
{
layerId = "181B3FD6-98F3-4D7B-8C67-56E528B8E974";
shapes = (
{
closed = 1;
nodes = (
(485.511,619.856,o),
(515.857,656.705,o),
(581.969,648.035,cs),
(730.45,627.443,o),
(809.568,420.437,o),
(810.651,276.291,cs),
(811.735,139.732,o),
(746.707,-17.419,o),
(606.897,-7.665,cs),
(499.6,-0.078,o),
(439.991,97.464,o),
(419.399,139.732,c),
(400.974,100.715,o),
(342.449,-3.33,o),
(247.075,-4.413,cs),
(158.203,-5.497,o),
(40.069,69.285,o),
(40.069,243.777,cs),
(40.069,374.917,o),
(73.667,613.353,o),
(240.572,603.599,cs),
(285.008,601.432,o),
(333.779,579.755,o),
(339.198,521.23,cs),
(344.617,468.124,o),
(312.103,391.174,o),
(228.65,391.174,cs),
(197.22,391.174,o),
(167.957,405.263,o),
(154.952,430.191,cs),
(143.03,454.035,o),
(151.7,497.387,o),
(171.209,473.543,cs),
(187.466,454.035,o),
(192.885,442.113,o),
(222.147,442.113,cs),
(298.013,442.113,o),
(300.181,552.66,o),
(222.147,552.66,cs),
(141.946,552.66,o),
(94.259,405.263,o),
(81.253,345.654,cs),
(68.247,284.962,o),
(68.247,183.084,o),
(138.695,120.224,cs),
(189.633,79.039,o),
(298.013,47.609,o),
(361.958,123.475,cs),
(377.131,140.816,o),
(407.477,202.593,o),
(411.812,243.777,cs),
(416.148,289.297,o),
(438.908,266.537,o),
(437.824,235.107,cs),
(435.656,195.006,o),
(439.991,159.241,o),
(468.17,127.81,cs),
(503.936,88.794,o),
(548.371,69.285,o),
(603.645,79.039,cs),
(682.763,93.129,o),
(745.623,164.66,o),
(766.216,235.107,cs),
(797.646,340.235,o),
(738.037,552.66,o),
(616.651,588.426,cs),
(580.885,599.264,o),
(531.031,594.929,o),
(531.031,540.739,cs),
(531.031,498.47,o),
(555.958,429.107,o),
(606.897,429.107,cs),
(645.914,429.107,o),
(637.243,475.711,o),
(629.657,500.638,cs),
(616.651,551.577,o),
(661.087,523.398,o),
(675.176,499.554,cs),
(697.936,460.537,o),
(710.942,381.42,o),
(644.83,381.42,cs),
(548.371,381.42,o),
(485.511,470.292,o),
(485.511,555.912,cs)
);
},
{
alignment = -1;
pos = (384,30);
ref = "drop-kannada";
}
);
width = 851;
}
);
},
{
color = 5;
glyphname = "ji-kannada";
layers = (
{
layerId = "181B3FD6-98F3-4D7B-8C67-56E528B8E974";
shapes = (
{
closed = 1;
nodes = (
(397.146,665.575,o),
(457.266,696.671,o),
(529.825,696.671,cs),
(637.626,696.671,o),
(711.221,657.282,o),
(721.586,551.554,cs),
(731.952,437.534,o),
(609.639,384.67,o),
(511.167,384.67,cs),
(390.927,384.67,o),
(344.282,469.667,o),
(312.149,469.667,c),
(252.029,549.481,o),
(235.444,560.883,o),
(174.288,599.235,c),
(303.857,596.126,o),
(300.747,516.311,o),
(390.927,460.338,cs),
(470.741,410.583,o),
(694.636,419.912,o),
(673.905,562.956,cs),
(664.576,627.222,o),
(585.798,687.342,o),
(508.057,668.684,cs),
(462.449,658.319,o),
(447.937,633.442,o),
(447.937,605.455,cs),
(447.937,568.139,o),
(479.034,545.335,o),
(511.167,545.335,cs),
(536.044,545.335,o),
(557.811,555.7,o),
(571.287,569.175,cs),
(589.944,587.833,o),
(606.529,567.102,o),
(594.091,539.115,cs),
(581.652,513.202,o),
(544.336,498.69,o),
(517.386,498.69,cs),
(457.266,498.69,o),
(397.146,536.006,o),
(397.146,602.345,cs)
);
},
{
alignment = -1;
ref = "o-kannada";
}
);
width = 818;
}
);
},
{
color = 5;
glyphname = "tti-kannada";
layers = (
{
layerId = "181B3FD6-98F3-4D7B-8C67-56E528B8E974";
shapes = (
{
closed = 1;
nodes = (
(668.159,299.176,o),
(717.588,239.207,o),
(719.533,160.677,cs),
(722.469,58.744,o),
(643.4,4.369,o),
(549.611,4.536,cs),
(476.53,4.201,o),
(402.473,92.091,o),
(395.007,105.566,c),
(390.199,88.813,o),
(368.136,56.158,o),
(337.463,31.415,cs),
(310.803,9.599,o),
(273.807,3.895,o),
(242.143,2.555,cs),
(220.116,1.623,o),
(191.089,3.152,o),
(171.583,7.843,cs),
(103.426,21.508,o),
(61.091,109.361,o),
(58.469,171.312,cs),
(54.739,259.42,o),
(92.179,287.209,o),
(150.211,317.248,c),
(144.624,351.49,o),
(169.711,410.477,o),
(149.949,453.773,cs),
(137.828,479.464,o),
(123.304,496.778,o),
(81.479,507.42,cs),
(60.596,512.053,o),
(41.264,512.614,o),
(40.331,534.641,cs),
(38.233,584.201,o),
(86.359,587.618,o),
(118.547,576.568,cs),
(168.924,559.392,o),
(217.946,509.059,o),
(219.694,467.758,cs),
(221.733,419.574,o),
(182.123,377.902,o),
(206.692,351.359,cs),
(218.23,339.435,o),
(254.14,338.197,o),
(279.911,315.842,cs),
(305.682,293.488,o),
(305.704,260.389,o),
(305.937,254.882,cs),
(308.151,202.568,o),
(268.716,156.766,o),
(211.747,166.767,cs),
(165.908,174.481,o),
(129.277,225.338,o),
(152.542,262.181,c),
(152.484,263.557,o),
(142.789,264.526,o),
(133.385,258.611,cs),
(115.954,246.84,o),
(84.371,211.025,o),
(103.28,155.28,cs),
(131.732,69.597,o),
(200.683,69.758,o),
(245.764,79.941,cs),
(330.477,98.697,o),
(360.721,166.177,o),
(357.108,251.531,cs),
(356.292,270.805,o),
(403.099,272.786,o),
(406.727,252.252,c),
(411.097,149.001,o),
(445.208,92.52,o),
(538.029,82.658,cs),
(580.998,77.581,o),
(672.944,88.369,o),
(672.26,169.71,cs),
(671.983,241.414,o),
(627.907,272.648,o),
(596.921,287.886,c),
(574.894,286.954,o),
(562.387,289.183,o),
(530.723,287.842,cs),
(493.553,286.269,o),
(496.379,349.83,o),
(511.522,350.471,c),
(534.984,350.085,o),
(552.998,348.089,o),
(573.59,350.34,cs),
(599.688,352.823,o),
(591.37,353.851,o),
(622.997,323.469,c)
);
},
{
closed = 1;
nodes = (
(246.936,215.147,o),
(258.977,223.932,o),
(262.233,244.757,cs),
(266.516,273.901,o),
(237.991,296.139,o),
(215.964,295.207,cs),
(191.184,294.158,o),
(179.959,266.099,o),
(180.717,248.203,cs),
(181.766,223.422,o),
(208.389,213.516,o),
(227.663,214.332,cs)
);
},
{
alignment = -1;
pos = (481,-21);
ref = "iMatra-kannada";
}
);
width = 802;
}
);
},
{
color = 5;
glyphname = "ddi-kannada";
layers = (
{
attr = {
color = 1;
};
layerId = "181B3FD6-98F3-4D7B-8C67-56E528B8E974";
shapes = (
{
attr = {
fill = 1;
fillColor = (0,255);
};
closed = 1;
nodes = (
(397.948,560.872,o),
(485.921,576.397,o),
(460.047,589.851,cs),
(375.178,632.286,o),
(341.023,643.671,o),
(286.169,650.915,cs),
(265.469,652.985,o),
(257.19,648.845,o),
(257.19,622.971,cs),
(257.19,574.327,o),
(234.42,500.843,o),
(156.796,500.843,cs),
(108.152,500.843,o),
(92.627,552.592,o),
(95.732,589.851,cs),
(100.907,642.636,o),
(140.236,688.175,o),
(210.615,694.385,cs),
(329.638,705.77,o),
(507.656,641.601,o),
(643.239,491.528,cs),
(672.219,459.443,o),
(662.904,450.128,o),
(680.499,421.149,cs),
(692.918,401.484,o),
(747.773,379.749,o),
(769.507,341.455,cs),
(837.816,221.397,o),
(732.248,-3.195,o),
(577.,-10.44,cs),
(463.152,-15.615,o),
(417.612,60.974,o),
(395.878,105.478,c),
(371.038,58.904,o),
(275.819,-4.23,o),
(190.95,4.05,cs),
(106.082,12.329,o),
(40.878,94.093,o),
(40.878,194.487,cs),
(40.878,316.615,o),
(182.671,528.787,o),
(365.863,555.697,cs)
);
},
{
attr = {
fill = 1;
fillColor = (0,255);
};
closed = 1;
nodes = (
(77.102,141.703,o),
(137.131,80.638,o),
(205.44,80.638,cs),
(272.714,80.638,o),
(362.758,100.303,o),
(371.038,185.172,cs),
(379.318,241.061,o),
(412.437,229.676,o),
(412.437,183.102,cs),
(412.437,128.248,o),
(480.746,74.429,o),
(564.58,77.534,cs),
(663.939,81.673,o),
(732.248,182.067,o),
(720.863,274.181,cs),
(718.793,292.81,o),
(710.513,289.706,o),
(708.443,283.496,cs),
(702.233,261.761,o),
(675.324,219.327,o),
(616.329,219.327,cs),
(580.105,219.327,o),
(533.531,248.306,o),
(519.041,289.706,cs),
(496.271,355.945,o),
(564.58,410.799,o),
(613.224,420.114,c),
(571.825,507.052,o),
(474.536,542.242,o),
(359.653,513.262,cs),
(232.35,481.178,o),
(94.697,345.595,o),
(83.312,213.117,cs)
);
},
{
attr = {
fill = 1;
fillColor = (0,255);
};
closed = 1;
nodes = (
(137.131,570.187,o),
(149.551,556.732,o),
(161.971,555.697,cs),
(193.02,553.627,o),
(210.615,584.676,o),
(210.615,615.726,cs),
(210.615,629.181,o),
(197.16,636.426,o),
(181.636,632.286,cs),
(156.796,626.076,o),
(137.131,606.411,o),
(137.131,580.536,cs)
);
},
{
attr = {
fill = 1;
fillColor = (0,255);
};
closed = 1;
nodes = (
(564.58,286.601,o),
(586.315,267.971,o),
(610.12,267.971,cs),
(628.749,267.971,o),
(644.274,281.426,o),
(656.694,299.02,cs),
(680.499,332.14,o),
(648.414,369.399,o),
(613.224,369.399,cs),
(583.21,369.399,o),
(564.58,338.35,o),
(564.58,310.405,cs)
);
}
);
width = 831;
}
);
},
{
color = 3;
glyphname = "nni-kannada";
layers = (
{
layerId = "181B3FD6-98F3-4D7B-8C67-56E528B8E974";
shapes = (
{
closed = 1;
nodes = (
(986.502,668.648,o),
(1040.836,619.641,o),
(1056.816,549.327,cs),
(1078.124,456.64,o),
(1023.79,314.945,o),
(873.572,334.122,cs),
(823.5,340.514,o),
(719.094,368.214,o),
(663.694,529.085,cs),
(660.498,537.608,o),
(601.903,596.203,o),
(635.995,579.157,cs),
(683.936,554.654,o),
(729.747,421.482,o),
(845.873,384.194,cs),
(938.56,354.364,o),
(1014.201,401.24,o),
(1014.201,504.581,cs),
(1014.201,571.7,o),
(974.783,633.491,o),
(902.337,633.491,cs),
(852.265,633.491,o),
(823.5,604.726,o),
(823.5,561.046,cs),
(823.5,519.496,o),
(852.265,490.731,o),
(888.488,490.731,cs),
(899.141,490.731,o),
(905.534,496.058,o),
(905.534,507.777,cs),
(905.534,530.15,o),
(876.769,540.804,o),
(876.769,563.177,cs),
(876.769,586.615,o),
(952.41,579.157,o),
(952.41,521.627,cs),
(952.41,487.535,o),
(921.514,457.705,o),
(888.488,456.64,cs),
(823.5,454.509,o),
(777.689,501.385,o),
(781.951,566.373,cs),
(786.212,635.622,o),
(845.873,667.583,o),
(905.534,667.583,cs)
);
},
{
alignment = -1;
ref = "nna-kannada";
}
);
width = 1102;
}
);
},
{
color = 5;
glyphname = "ti-kannada";
layers = (
{
layerId = "181B3FD6-98F3-4D7B-8C67-56E528B8E974";
shapes = (
{
closed = 1;
nodes = (
(323.718,689.868,o),
(413.015,595.44,o),
(427.384,513.328,cs),
(435.595,469.194,o),
(427.384,421.979,o),
(404.804,361.422,c),
(462.282,307.023,o),
(489.994,229.018,o),
(471.519,155.117,cs),
(447.912,60.689,o),
(344.246,0.132,o),
(262.135,0.132,cs),
(173.865,0.132,o),
(48.645,60.689,o),
(41.46,163.328,cs),
(30.17,293.68,o),
(119.466,265.968,o),
(116.387,227.991,cs),
(113.308,193.094,o),
(104.07,183.856,o),
(104.07,159.223,cs),
(104.07,81.217,o),
(167.707,44.267,o),
(243.66,44.267,cs),
(361.695,44.267,o),
(411.988,137.669,o),
(410.962,234.15,cs),
(409.935,277.258,o),
(400.698,320.367,o),
(347.326,320.367,c),
(322.692,297.786,o),
(286.768,276.232,o),
(213.894,276.232,cs),
(175.918,276.232,o),
(79.437,286.496,o),
(75.331,341.921,cs),
(72.252,385.029,o),
(115.361,432.243,o),
(199.525,430.191,cs),
(239.554,429.164,o),
(306.27,421.979,o),
(344.246,399.399,c),
(376.065,412.742,o),
(410.962,634.443,o),
(259.056,634.443,cs),
(243.66,634.443,o),
(249.818,627.258,o),
(255.977,613.915,cs),
(265.214,592.361,o),
(276.504,558.49,o),
(255.977,519.487,cs),
(239.554,488.695,o),
(196.446,472.273,o),
(170.786,472.273,cs),
(117.413,472.273,o),
(72.252,518.46,o),
(72.252,576.965,cs),
(72.252,652.918,o),
(128.704,699.106,o),
(223.132,695.,cs)
);
},
{
closed = 1;
nodes = (
(189.261,529.751,o),
(205.683,536.935,o),
(223.132,565.674,cs),
(239.554,592.361,o),
(232.369,636.496,o),
(195.419,636.496,cs),
(162.575,636.496,o),
(116.387,614.941,o),
(116.387,577.991,cs),
(116.387,543.094,o),
(129.73,524.619,o),
(166.68,527.698,cs)
);
},
{
closed = 1;
nodes = (
(145.126,318.314,o),
(170.786,297.786,o),
(218.,300.865,cs),
(255.977,302.918,o),
(297.032,326.525,o),
(319.613,355.264,c),
(319.613,369.633,o),
(265.214,393.24,o),
(208.762,393.24,cs),
(154.364,393.24,o),
(145.126,373.739,o),
(145.126,346.026,cs)
);
}
);
width = 518;
}
);
},
{
color = 5;
glyphname = "di-kannada";
layers = (
{
attr = {
color = 1;
};
layerId = "181B3FD6-98F3-4D7B-8C67-56E528B8E974";
shapes = (
{
attr = {
fill = 1;
fillColor = (0,255);
};
closed = 1;
nodes = (
(364.951,68.753,o),
(308.995,-17.045,o),
(178.433,-3.367,cs),
(101.339,4.094,o),
(40.41,78.701,o),
(40.41,180.664,cs),
(39.167,389.563,o),
(233.145,568.62,o),
(394.793,556.185,cs),
(449.505,552.455,o),
(509.191,528.83,o),
(550.225,495.256,c),
(455.723,594.732,o),
(337.595,671.826,o),
(202.059,655.661,cs),
(121.235,645.714,o),
(110.044,594.732,o),
(113.774,564.89,cs),
(116.261,544.994,o),
(133.669,522.612,o),
(157.295,532.56,cs),
(177.19,541.264,o),
(178.433,558.672,o),
(190.868,571.107,cs),
(202.059,582.298,o),
(215.737,584.785,o),
(215.737,568.62,cs),
(215.737,532.56,o),
(178.433,480.335,o),
(139.886,480.335,cs),
(96.366,480.335,o),
(69.01,532.56,o),
(66.523,571.107,cs),
(64.036,625.819,o),
(113.774,685.504,o),
(210.763,687.991,cs),
(330.134,691.721,o),
(448.262,639.497,o),
(535.303,562.403,cs),
(598.719,505.204,o),
(689.491,397.024,o),
(723.064,331.121,cs),
(787.724,204.289,o),
(740.472,-0.88,o),
(571.363,-0.88,cs),
(496.756,-0.88,o),
(408.471,61.293,o),
(387.333,98.596,c)
);
},
{
attr = {
fill = 1;
fillColor = (0,255);
};
closed = 1;
nodes = (
(647.214,68.753,o),
(711.873,134.656,o),
(711.873,227.915,cs),
(711.873,393.294,o),
(517.895,515.152,o),
(368.681,515.152,cs),
(251.797,515.152,o),
(121.235,377.129,o),
(90.148,280.14,cs),
(61.549,190.611,o),
(96.366,94.866,o),
(187.137,69.997,cs),
(258.014,51.345,o),
(359.977,87.405,o),
(366.194,157.038,cs),
(368.681,186.881,o),
(371.168,195.585,o),
(371.168,205.533,cs),
(371.168,227.915,o),
(402.254,222.941,o),
(403.498,205.533,cs),
(404.741,190.611,o),
(405.985,178.177,o),
(407.228,157.038,cs),
(409.715,101.083,o),
(496.756,55.075,o),
(566.39,61.293,cs)
);
}
);
width = 792;
}
);
},
{
color = 5;
glyphname = "ni-kannada";
layers = (
{
layerId = "181B3FD6-98F3-4D7B-8C67-56E528B8E974";
shapes = (
{
closed = 1;
nodes = (
(551.605,535.897,o),
(603.396,392.295,o),
(603.396,261.641,cs),
(603.396,146.288,o),
(556.314,6.218,o),
(425.659,33.29,cs),
(344.442,49.769,o),
(286.766,138.049,o),
(229.089,183.954,cs),
(150.226,246.339,o),
(73.717,218.089,o),
(94.904,141.58,cs),
(107.852,95.675,o),
(132.57,63.894,o),
(158.465,53.3,cs),
(210.256,29.759,o),
(154.934,-26.74,o),
(111.383,22.696,cs),
(69.008,69.779,o),
(50.175,96.852,o),
(43.113,147.465,cs),
(28.988,246.339,o),
(83.133,287.536,o),
(152.58,280.474,cs),
(277.349,267.526,o),
(318.546,86.258,o),
(446.847,86.258,cs),
(525.71,86.258,o),
(553.96,214.558,o),
(553.96,275.766,cs),
(553.96,387.587,o),
(518.648,508.825,o),
(437.43,590.042,cs),
(404.472,623.,o),
(382.108,619.469,o),
(386.816,610.052,cs),
(397.41,591.219,o),
(418.597,557.084,o),
(410.357,518.241,cs),
(400.941,478.221,o),
(369.16,439.378,o),
(317.369,433.492,cs),
(267.933,427.607,o),
(203.194,448.794,o),
(179.653,538.251,cs),
(159.642,611.229,o),
(204.371,687.739,o),
(282.057,695.978,cs),
(347.973,703.04,o),
(417.42,660.666,o),
(453.909,626.531,cs)
);
},
{
closed = 1;
nodes = (
(243.214,531.189,o),
(270.287,489.992,o),
(307.953,489.992,cs),
(325.609,489.992,o),
(346.796,495.877,o),
(355.035,525.304,cs),
(367.983,572.386,o),
(342.088,626.531,o),
(302.067,633.594,cs),
(256.162,641.833,o),
(239.683,600.636,o),
(240.86,566.501,cs)
);
}
);
width = 644;
}
);
},
{
color = 5;
glyphname = "pi-kannada";
layers = (
{
attr = {
color = 1;
};
hints = (
{
horizontal = 1;
place = (310,-20);
target = down;
type = TopGhost;
}
);
layerId = "181B3FD6-98F3-4D7B-8C67-56E528B8E974";
shapes = (
{
attr = {
fill = 1;
fillColor = (0,255);
};
closed = 1;
nodes = (
(682.491,487.761,o),
(745.359,490.755,o),
(745.359,469.799,cs),
(745.359,415.912,o),
(742.365,363.522,o),
(742.365,323.107,cs),
(742.365,279.698,o),
(740.868,237.786,o),
(736.377,191.384,cs),
(725.899,92.591,o),
(664.528,-0.214,o),
(561.245,-0.214,cs),
(489.396,-0.214,o),
(442.994,35.711,o),
(390.604,82.113,c),
(359.17,34.214,o),
(285.824,-1.711,o),
(209.484,-0.214,cs),
(112.189,1.283,o),
(40.34,85.107,o),
(40.34,179.409,cs),
(40.34,258.742,o),
(112.189,284.189,o),
(160.088,276.704,cs),
(203.497,270.717,o),
(237.925,234.792,o),
(237.925,191.384,cs),
(237.925,127.019,o),
(181.044,95.585,o),
(149.61,92.591,c),
(173.56,62.654,o),
(231.937,55.17,o),
(267.862,59.66,cs),
(372.642,73.132,o),
(384.616,171.925,o),
(384.616,263.233,cs),
(384.616,278.201,o),
(405.572,276.704,o),
(405.572,242.277,cs),
(405.572,216.83,o),
(401.082,170.428,o),
(408.566,147.975,cs),
(417.547,119.535,o),
(469.937,73.132,o),
(532.805,73.132,cs),
(627.107,73.132,o),
(707.937,122.528,o),
(707.937,239.283,cs),
(707.937,266.226,o),
(704.943,294.667,o),
(700.453,323.107,cs),
(686.981,399.447,o),
(689.975,394.956,o),
(683.987,465.308,cs)
);
},
{
attr = {
fill = 1;
fillColor = (0,255);
};
closed = 1;
nodes = (
(104.704,128.516,o),
(137.635,124.025,o),
(161.585,138.994,cs),
(179.547,149.472,o),
(191.522,164.44,o),
(191.522,189.887,cs),
(191.522,215.333,o),
(170.566,237.786,o),
(143.623,239.283,cs),
(89.736,242.277,o),
(67.283,180.906,o),
(86.742,152.465,cs)
);
},
{
alignment = -1;
pos = (267,0);
ref = "iMatra-kannada.alt";
}
);
width = 786;
}
);
},
{
color = 5;
glyphname = "bi-kannada";
layers = (
{
layerId = "181B3FD6-98F3-4D7B-8C67-56E528B8E974";
shapes = (
{
closed = 1;
nodes = (
(688.817,658.079,o),
(774.685,396.385,o),
(774.685,270.65,cs),
(774.685,157.181,o),
(732.773,1.801,o),
(595.793,1.801,cs),
(509.925,1.801,o),
(429.168,60.068,o),
(395.434,142.87,c),
(368.856,55.979,o),
(305.477,8.956,o),
(228.809,-0.244,cs),
(118.407,-13.533,o),
(40.717,61.091,o),
(40.717,181.715,cs),
(40.717,372.874,o),
(246.187,345.273,o),
(246.187,482.254,cs),
(246.187,521.099,o),
(204.275,551.766,o),
(171.563,551.766,cs),
(132.718,551.766,o),
(103.073,525.188,o),
(103.073,489.409,cs),
(103.073,454.653,o),
(131.696,454.653,o),
(148.052,452.609,cs),
(184.852,448.52,o),
(164.408,420.919,o),
(143.963,412.741,cs),
(103.073,397.408,o),
(57.072,420.919,o),
(48.895,474.076,cs),
(40.717,533.366,o),
(83.651,584.478,o),
(155.208,599.811,cs),
(236.987,617.189,o),
(314.677,574.255,o),
(314.677,477.142,cs),
(314.677,435.231,o),
(305.477,397.408,o),
(264.587,366.74,cs),
(198.142,317.673,o),
(61.161,304.384,o),
(76.495,184.782,cs),
(85.695,114.247,o),
(157.252,80.513,o),
(219.609,80.513,cs),
(345.344,80.513,o),
(381.123,157.181,o),
(383.167,256.339,cs),
(383.167,283.939,o),
(401.567,294.161,o),
(401.567,279.85,cs),
(401.567,187.848,o),
(459.835,73.357,o),
(568.193,73.357,cs),
(749.129,73.357,o),
(738.907,257.361,o),
(717.44,377.985,cs),
(694.95,505.765,o),
(621.349,641.723,o),
(518.103,628.434,cs),
(477.213,623.323,o),
(458.813,598.789,o),
(452.679,569.144,cs),
(443.479,522.121,o),
(481.302,464.876,o),
(531.392,449.542,cs),
(566.148,439.32,o),
(595.793,444.431,o),
(595.793,485.32,cs),
(595.793,508.832,o),
(578.415,524.165,o),
(564.104,540.521,cs),
(537.525,572.211,o),
(542.637,586.522,o),
(582.504,567.1,cs),
(614.193,551.766,o),
(631.572,515.988,o),
(631.572,480.209,cs),
(631.572,435.231,o),
(593.749,397.408,o),
(533.436,410.697,cs),
(458.813,428.075,o),
(407.701,508.832,o),
(419.968,584.478,cs),
(428.146,632.523,o),
(463.924,667.279,o),
(527.303,664.212,cs)
);
}
);
width = 815;
}
);
},
{
color = 3;
glyphname = "bhi-kannada";
layers = (
{
layerId = "181B3FD6-98F3-4D7B-8C67-56E528B8E974";
shapes = (
{
closed = 1;
nodes = (
(674.766,330.965,o),
(697.076,265.427,o),
(691.499,211.044,cs),
(683.132,123.195,o),
(613.411,79.968,o),
(549.268,79.968,cs),
(508.829,79.968,o),
(448.869,86.94,o),
(411.22,85.546,c),
(400.064,85.546,o),
(394.487,79.968,o),
(391.698,64.63,cs),
(372.176,-35.769,o),
(312.216,-94.335,o),
(188.112,-94.335,cs),
(105.841,-94.335,o),
(40.303,-44.135,o),
(40.303,25.586,cs),
(40.303,72.996,o),
(83.53,125.984,o),
(156.04,144.112,cs),
(206.239,156.662,o),
(260.622,149.69,o),
(310.821,144.112,cs),
(333.132,141.323,o),
(333.132,149.69,o),
(333.132,167.817,cs),
(335.921,360.248,o),
(338.71,388.136,o),
(333.132,460.646,cs),
(330.343,491.323,o),
(302.455,531.762,o),
(243.889,530.367,cs),
(222.972,530.367,o),
(192.295,519.212,o),
(185.323,499.69,cs),
(168.59,452.279,o),
(218.789,443.913,o),
(238.311,446.702,cs),
(250.861,448.096,o),
(260.622,459.252,o),
(262.016,470.407,c),
(266.2,489.929,o),
(292.694,481.562,o),
(292.694,466.224,cs),
(292.694,420.208,o),
(250.861,402.08,o),
(213.211,403.475,c),
(183.929,403.475,o),
(147.674,428.574,o),
(147.674,466.224,cs),
(147.674,531.762,o),
(192.295,559.65,o),
(259.227,559.65,cs),
(333.132,558.256,o),
(367.992,482.957,o),
(380.542,396.503,cs),
(393.092,317.02,o),
(388.909,236.144,o),
(388.909,156.662,cs),
(388.909,146.901,o),
(402.853,146.901,o),
(409.825,146.901,cs),
(478.152,146.901,o),
(526.957,137.14,o),
(592.495,141.323,cs),
(630.144,144.112,o),
(642.694,198.494,o),
(645.483,241.722,cs),
(649.666,290.526,o),
(632.933,332.359,o),
(602.256,332.359,cs),
(564.606,332.359,o),
(528.351,332.359,o),
(492.096,332.359,cs),
(472.574,332.359,o),
(475.363,382.558,o),
(508.829,382.558,cs),
(539.507,382.558,o),
(568.789,382.558,o),
(599.467,382.558,cs),
(618.989,382.558,o),
(639.905,382.558,o),
(628.75,353.275,c)
);
},
{
closed = 1;
nodes = (
(121.18,88.335,o),
(91.897,59.052,o),
(93.291,25.586,cs),
(96.08,-32.98,o),
(151.857,-53.896,o),
(200.662,-53.896,cs),
(264.805,-53.896,o),
(330.343,-14.852,o),
(335.921,31.164,cs),
(338.71,56.263,o),
(335.921,105.068,o),
(301.06,109.251,cs),
(248.072,116.223,o),
(200.662,116.223,o),
(156.04,100.885,cs)
);
},
{
alignment = -1;
pos = (456,0);
ref = "iMatra-kannada";
}
);
width = 732;
}
);
},
{
color = 5;
glyphname = "yi-kannada";
layers = (
{
layerId = "181B3FD6-98F3-4D7B-8C67-56E528B8E974";
shapes = (
{
closed = 1;
nodes = (
(419,60,o),
(334,3,o),
(240,3,cs),
(103,3,o),
(37,163,o),
(41,279,cs),
(47,452,o),
(110,578,o),
(253,563,cs),
(374,550,o),
(438,430,o),
(451,335,cs),
(460,273,o),
(456,211,o),
(442,150,cs)
);
},
{
closed = 1;
nodes = (
(88,185,o),
(128,82,o),
(230,74,cs),
(366,64,o),
(441,185,o),
(417,314,cs),
(396,428,o),
(347,502,o),
(256,513,cs),
(144,526,o),
(88,411,o),
(88,291,cs)
);
},
{
closed = 1;
nodes = (
(471.634,572.967,o),
(506.177,619.42,o),
(570.496,631.331,cs),
(707.474,656.345,o),
(765.838,474.105,o),
(774.176,353.803,cs),
(783.705,218.017,o),
(751.545,-13.058,o),
(566.923,-13.058,cs),
(507.368,-13.058,o),
(426.372,46.498,o),
(407.315,91.76,cs),
(398.977,109.626,o),
(391.83,184.666,o),
(432.328,122.729,cs),
(454.959,88.186,o),
(503.794,47.689,o),
(564.541,40.542,cs),
(695.563,23.867,o),
(742.016,204.915,o),
(737.251,338.319,cs),
(734.869,412.168,o),
(686.034,615.847,o),
(585.981,603.936,cs),
(549.056,599.171,o),
(506.177,571.776,o),
(506.177,530.087,cs),
(506.177,443.136,o),
(601.465,409.785,o),
(622.905,469.341,cs),
(632.434,497.927,o),
(659.829,495.545,o),
(653.874,470.532,cs),
(622.905,334.746,o),
(471.634,393.11,o),
(471.634,516.985,cs)
);
},
{
alignment = -1;
pos = (708,-21);
ref = "uMatra-kannada";
}
);
width = 1090;
}
);
},
{
color = 5;
glyphname = "ri-kannada";
layers = (
{
attr = {
color = 1;
};
layerId = "181B3FD6-98F3-4D7B-8C67-56E528B8E974";
shapes = (
{
attr = {
fill = 1;
fillColor = (0,255);
};
closed = 1;
nodes = (
(43.893,690.578,o),
(110.901,717.381,o),
(166.57,716.35,cs),
(357.286,713.257,o),
(445.943,392.648,o),
(442.85,240.076,cs),
(440.789,108.121,o),
(380.997,-5.278,o),
(235.64,-2.185,cs),
(78.944,-0.124,o),
(34.615,152.449,o),
(40.8,284.404,cs),
(48.017,439.039,o),
(151.106,539.036,o),
(244.918,546.252,cs),
(263.474,547.283,o),
(279.969,545.221,o),
(300.587,535.943,cs),
(309.865,530.789,o),
(322.235,541.098,o),
(322.235,554.499,cs),
(323.266,607.075,o),
(228.424,684.392,o),
(171.724,685.423,cs),
(109.871,686.454,o),
(106.778,608.106,o),
(149.045,607.075,cs),
(167.601,607.075,o),
(179.972,622.538,o),
(198.528,621.508,cs),
(215.022,621.508,o),
(218.115,606.044,o),
(207.806,587.488,cs),
(194.404,561.716,o),
(156.261,547.283,o),
(132.55,547.283,cs),
(82.036,548.314,o),
(41.831,568.932,o),
(42.862,624.6,cs)
);
},
{
attr = {
fill = 1;
fillColor = (0,255);
};
closed = 1;
nodes = (
(56.264,205.025,o),
(106.778,57.607,o),
(232.547,55.545,cs),
(360.379,53.483,o),
(403.676,134.924,o),
(405.738,253.477,cs),
(407.8,351.412,o),
(367.595,482.336,o),
(246.98,484.398,cs),
(149.045,486.46,o),
(85.129,397.803,o),
(71.727,308.115,cs)
);
}
);
width = 483;
}
);
},
{
color = 5;
glyphname = "li-kannada";
layers = (
{
layerId = "181B3FD6-98F3-4D7B-8C67-56E528B8E974";
shapes = (
{
closed = 1;
nodes = (
(741.233,576.268,o),
(765.769,495.845,o),
(765.769,403.153,cs),
(765.769,174.151,o),
(583.113,-24.862,o),
(355.474,-1.689,cs),
(219.163,11.942,o),
(78.763,123.717,o),
(47.412,260.027,cs),
(28.328,344.54,o),
(47.412,426.326,o),
(114.204,493.118,cs),
(198.717,577.631,o),
(268.235,568.089,o),
(321.396,557.184,cs),
(395.004,542.19,o),
(489.058,450.862,o),
(489.058,374.528,cs),
(489.058,291.379,o),
(407.272,266.843,o),
(362.289,292.742,cs),
(341.843,305.01,o),
(294.134,354.082,o),
(258.693,363.623,cs),
(235.52,370.439,o),
(219.163,358.171,o),
(219.163,333.635,cs),
(219.163,300.92,o),
(264.146,303.647,o),
(285.955,288.652,cs),
(321.396,265.48,o),
(309.128,250.485,o),
(261.419,258.664,cs),
(235.52,262.753,o),
(205.532,279.111,o),
(193.264,321.367,cs),
(175.544,381.344,o),
(213.711,415.421,o),
(257.33,411.332,cs),
(320.033,405.88,o),
(339.117,333.635,o),
(399.093,333.635,cs),
(446.802,333.635,o),
(457.707,379.981,o),
(442.713,415.421,cs),
(397.73,517.654,o),
(298.223,528.559,o),
(219.163,508.113,cs),
(123.746,484.94,o),
(86.942,401.79,o),
(92.394,309.099,cs),
(103.299,145.526,o),
(250.515,59.65,o),
(378.647,59.65,cs),
(610.375,59.65,o),
(697.614,238.217,o),
(716.697,370.439,cs),
(724.876,430.416,o),
(719.423,536.738,o),
(668.988,576.268,cs),
(656.72,585.81,o),
(662.173,559.911,o),
(653.994,532.649,cs),
(644.452,498.571,o),
(594.018,478.124,o),
(562.666,478.124,cs),
(471.338,478.124,o),
(411.361,577.631,o),
(452.254,649.876,cs),
(498.6,731.662,o),
(609.012,705.763,o),
(678.53,637.608,cs)
);
},
{
closed = 1;
nodes = (
(480.88,569.452,o),
(513.594,531.285,o),
(550.398,525.833,cs),
(587.202,520.381,o),
(632.184,539.464,o),
(632.184,589.899,cs),
(632.184,633.518,o),
(592.654,652.602,o),
(566.755,658.054,cs),
(546.309,662.144,o),
(487.695,659.418,o),
(483.606,603.53,cs)
);
}
);
width = 806;
}
);
},
{
color = 5;
glyphname = "lli-kannada";
layers = (
{
layerId = "181B3FD6-98F3-4D7B-8C67-56E528B8E974";
shapes = (
{
closed = 1;
nodes = (
(132,457,o),
(110,467,o),
(100,475,cs),
(92,481,o),
(87,468,o),
(88,457,cs),
(93,386,o),
(237,279,o),
(299,256,c),
(361,311,o),
(422,374,o),
(458,448,cs),
(504,543,o),
(481,615,o),
(446,641,cs),
(432,651,o),
(426,646,o),
(439,627,cs),
(448,611,o),
(454,595,o),
(450,574,cs),
(439,520,o),
(386,516,o),
(363,520,cs),
(317,528,o),
(286,562,o),
(286,604,cs),
(286,659,o),
(338,701,o),
(391,701,cs),
(472,701,o),
(512,608,o),
(512,539,cs),
(512,403,o),
(394,311,o),
(321,234,c),
(336,222,o),
(376,188,o),
(383,137,cs),
(394,60,o),
(343,-4,o),
(285,-4,cs),
(231,-4,o),
(195,42,o),
(196,96,cs),
(197,166,o),
(228,188,o),
(251,209,c),
(238,224,o),
(189,256,o),
(175,266,cs),
(101,319,o),
(40,413,o),
(40,507,cs),
(40,556,o),
(70,616,o),
(150,609,cs),
(190,606,o),
(230,551,o),
(224,510,cs),
(217,462,o),
(168,457,o),
(152,457,cs)
);
},
{
closed = 1;
nodes = (
(184,529,o),
(172,569,o),
(132,569,cs),
(99,569,o),
(68,526,o),
(97,501,cs),
(115,486,o),
(131,478,o),
(155,482,cs),
(168,484,o),
(176,496,o),
(178,504,cs)
);
},
{
closed = 1;
nodes = (
(328,576,o),
(350,553,o),
(378,559,cs),
(402,564,o),
(410,585,o),
(410,605,cs),
(411,641,o),
(396,654,o),
(381,659,cs),
(359,666,o),
(334,641,o),
(331,606,cs)
);
},
{
closed = 1;
nodes = (
(238,60,o),
(256,39,o),
(281,38,cs),
(300,37,o),
(336,49,o),
(336,107,cs),
(336,145,o),
(309,184,o),
(281,184,cs),
(249,184,o),
(233,141,o),
(236,96,cs)
);
}
);
width = 552;
}
);
},
{
color = 5;
glyphname = "vi-kannada";
layers = (
{
attr = {
color = 1;
};
layerId = "181B3FD6-98F3-4D7B-8C67-56E528B8E974";
shapes = (
{
attr = {
fill = 1;
fillColor = (0,255);
};
closed = 1;
nodes = (
(521.994,699.739,o),
(661.806,480.326,o),
(701.607,362.965,cs),
(763.859,180.29,o),
(752.633,6.801,o),
(552.61,6.801,cs),
(447.496,6.801,o),
(392.387,107.833,o),
(380.141,126.202,c),
(379.12,102.73,o),
(331.155,3.739,o),
(225.021,3.739,cs),
(142.358,3.739,o),
(40.305,54.765,o),
(40.305,189.475,cs),
(40.305,273.158,o),
(110.721,326.226,o),
(196.446,326.226,cs),
(256.657,326.226,o),
(275.026,271.117,o),
(275.026,222.132,cs),
(275.026,178.249,o),
(257.677,132.326,o),
(185.22,135.387,cs),
(132.152,137.428,o),
(123.988,178.249,o),
(131.132,180.29,cs),
(142.358,183.352,o),
(156.645,169.065,o),
(170.933,169.065,cs),
(196.446,169.065,o),
(210.733,189.475,o),
(210.733,211.927,cs),
(210.733,240.501,o),
(192.364,269.076,o),
(156.645,269.076,cs),
(113.783,269.076,o),
(73.982,223.152,o),
(73.982,183.352,cs),
(73.982,115.997,o),
(123.988,69.053,o),
(210.733,69.053,cs),
(346.463,69.053,o),
(364.833,156.818,o),
(364.833,269.076,cs),
(364.833,325.205,o),
(393.408,297.651,o),
(397.49,256.83,cs),
(403.613,193.557,o),
(436.27,83.34,o),
(547.507,83.34,cs),
(618.944,83.34,o),
(692.422,131.305,o),
(692.422,229.276,cs),
(692.422,337.452,o),
(586.287,541.557,o),
(507.707,602.789,cs),
(419.941,672.185,o),
(304.622,659.938,o),
(304.622,579.317,cs),
(304.622,538.496,o),
(345.443,502.777,o),
(387.284,491.551,cs),
(456.68,474.202,o),
(482.194,511.962,o),
(436.27,549.721,cs),
(406.674,574.214,o),
(404.633,592.584,o),
(440.352,579.317,cs),
(460.762,571.152,o),
(483.214,552.783,o),
(490.358,528.29,cs),
(505.666,480.326,o),
(469.947,440.525,o),
(415.859,442.566,cs),
(350.545,445.628,o),
(259.718,508.9,o),
(259.718,577.276,cs),
(259.718,642.589,o),
(310.745,699.739,o),
(379.12,699.739,cs)
);
}
);
width = 776;
}
);
},
{
color = 5;
glyphname = "shi-kannada";
layers = (
{
layerId = "181B3FD6-98F3-4D7B-8C67-56E528B8E974";
shapes = (
{
closed = 1;
nodes = (
(67.925,347.935,o),
(68.935,410.52,o),
(100.227,453.925,cs),
(148.68,520.548,o),
(272.841,509.444,o),
(344.51,485.218,cs),
(362.68,479.161,o),
(378.831,470.076,o),
(391.954,489.256,cs),
(406.086,510.454,o),
(409.114,538.718,o),
(404.067,572.029,cs),
(399.02,605.341,o),
(375.803,649.756,o),
(369.746,634.614,cs),
(361.671,614.426,o),
(362.68,605.341,o),
(344.51,578.086,cs),
(296.058,504.397,o),
(212.274,551.841,o),
(200.161,605.341,cs),
(186.029,667.926,o),
(260.727,718.397,o),
(333.407,696.19,cs),
(391.954,681.048,o),
(424.256,643.699,o),
(431.322,579.095,cs),
(436.369,532.661,o),
(426.275,491.274,o),
(408.105,470.076,c),
(459.586,458.972,o),
(527.218,413.548,o),
(520.152,308.567,cs),
(515.105,225.793,o),
(462.614,100.623,o),
(376.812,36.019,cs),
(261.737,-49.783,o),
(71.963,-21.519,o),
(42.689,131.915,cs),
(26.538,213.68,o),
(102.246,271.217,o),
(171.897,298.472,cs),
(231.454,322.699,o),
(331.388,379.227,o),
(361.671,436.765,cs),
(371.765,456.954,o),
(360.661,464.02,o),
(339.463,468.057,cs),
(243.567,489.256,o),
(179.972,478.152,o),
(148.68,459.982,cs),
(118.397,441.812,o),
(87.104,402.444,o),
(128.491,373.17,cs),
(152.718,356.01,o),
(188.048,371.152,o),
(188.048,409.51,cs),
(188.048,445.85,o),
(215.303,431.718,o),
(218.331,407.491,cs),
(226.407,343.897,o),
(171.897,312.604,o),
(124.453,328.755,cs)
);
},
{
closed = 1;
nodes = (
(260.727,572.029,o),
(302.114,569.001,o),
(324.322,596.256,cs),
(349.558,625.529,o),
(355.614,653.794,o),
(330.378,662.878,cs),
(294.039,674.992,o),
(246.595,639.661,o),
(253.661,605.341,cs)
);
},
{
closed = 1;
nodes = (
(237.51,272.227,o),
(74.991,231.849,o),
(100.227,127.878,cs),
(113.35,73.368,o),
(183.001,41.066,o),
(271.831,61.255,cs),
(399.02,90.528,o),
(476.747,198.538,o),
(486.841,293.425,cs),
(498.954,406.482,o),
(436.369,450.897,o),
(409.114,437.774,cs),
(391.954,429.699,o),
(375.803,388.312,o),
(329.369,348.944,cs)
);
}
);
width = 561;
}
);
},
{
color = 5;
glyphname = "ssi-kannada";
layers = (
{
layerId = "181B3FD6-98F3-4D7B-8C67-56E528B8E974";
shapes = (
{
closed = 1;
nodes = (
(193.273,315.302,o),
(243.108,291.307,o),
(241.263,221.169,cs),
(239.417,115.962,o),
(150.821,141.802,o),
(150.821,104.888,cs),
(150.821,80.893,o),
(176.662,62.436,o),
(220.959,62.436,cs),
(307.709,62.436,o),
(390.767,138.111,o),
(390.767,189.792,cs),
(390.767,197.175,o),
(390.767,206.403,o),
(390.767,213.786,cs),
(390.767,245.164,o),
(409.225,252.547,o),
(414.762,213.786,cs),
(416.608,197.175,o),
(418.453,200.866,o),
(418.453,189.792,cs),
(418.453,141.802,o),
(477.517,58.744,o),
(569.804,60.59,cs),
(669.474,62.436,o),
(723.,145.494,o),
(723.,234.089,cs),
(723.,280.233,o),
(728.537,342.988,o),
(723.,420.509,cs),
(721.154,437.12,o),
(728.537,451.886,o),
(756.223,451.886,cs),
(780.218,451.886,o),
(783.909,433.429,o),
(782.064,414.972,cs),
(778.372,378.057,o),
(774.681,200.866,o),
(782.064,141.802,c),
(782.064,141.802,o),
(828.207,38.441,o),
(841.127,-39.08,cs),
(852.202,-105.526,o),
(791.292,-99.989,o),
(778.372,-52,cs),
(761.761,5.218,o),
(752.532,115.962,o),
(734.074,127.037,c),
(700.851,47.67,o),
(658.399,1.526,o),
(567.958,1.526,cs),
(446.139,3.372,o),
(409.225,90.122,o),
(394.459,134.419,c),
(374.156,86.43,o),
(300.326,3.372,o),
(220.959,1.526,cs),
(115.752,1.526,o),
(40.077,93.813,o),
(40.077,191.637,cs),
(40.077,228.552,o),
(56.689,291.307,o),
(128.673,304.227,cs)
);
},
{
closed = 1;
nodes = (
(112.061,256.238,o),
(88.066,237.781,o),
(88.066,199.02,cs),
(88.066,186.1,o),
(97.295,154.723,o),
(124.981,152.877,cs),
(167.433,149.185,o),
(206.194,175.026,o),
(202.502,219.323,cs),
(198.811,261.775,o),
(148.976,271.004,o),
(123.135,259.93,cs)
);
},
{
alignment = -1;
pos = (276,0);
ref = "iMatra-kannada.alt";
},
{
alignment = -1;
pos = (357,42);
ref = "drop-kannada";
}
);
width = 883;
}
);
},
{
color = 5;
glyphname = "si-kannada";
layers = (
{
layerId = "181B3FD6-98F3-4D7B-8C67-56E528B8E974";
shapes = (
{
closed = 1;
nodes = (
(557.916,433.922,o),
(557.916,420.024,o),
(557.916,400.915,cs),
(557.916,321.003,o),
(578.762,171.603,o),
(561.39,102.114,cs),
(540.544,11.779,o),
(495.376,-5.593,o),
(424.15,-5.593,cs),
(292.122,-5.593,o),
(248.692,173.34,o),
(158.357,185.5,cs),
(123.613,190.712,o),
(92.343,169.866,o),
(92.343,133.384,cs),
(92.343,107.326,o),
(102.766,69.107,o),
(135.773,46.524,cs),
(172.255,22.203,o),
(151.408,3.093,o),
(123.613,3.093,cs),
(78.445,3.093,o),
(40.227,55.21,o),
(40.227,119.486,cs),
(40.227,190.712,o),
(101.029,225.456,o),
(154.883,225.456,cs),
(319.918,225.456,o),
(326.866,36.1,o),
(427.625,36.1,cs),
(509.274,36.1,o),
(528.383,109.063,o),
(531.857,239.354,cs),
(533.595,308.842,o),
(491.902,373.119,o),
(502.325,444.345,cs),
(507.536,486.038,o),
(545.755,484.301,o),
(552.704,456.505,cs)
);
},
{
alignment = -1;
pos = (141,0);
ref = "iMatra-kannada.alt";
}
);
width = 609;
}
);
},
{
color = 5;
glyphname = "hi-kannada";
layers = (
{
layerId = "181B3FD6-98F3-4D7B-8C67-56E528B8E974";
shapes = (
{
closed = 1;
nodes = (
(347,702,o),
(388,580,o),
(406,459,cs),
(412,418,o),
(414,388,o),
(412,368,c),
(441,406,o),
(484,468,o),
(568,468,cs),
(690,468,o),
(747,371,o),
(754,278,cs),
(763,152,o),
(743,-2,o),
(584,-1,cs),
(499,-1,o),
(436,104,o),
(417,170,c),
(388,77,o),
(313,8,o),
(210,8,cs),
(68,8,o),
(40,129,o),
(41,245,cs),
(41,328,o),
(79,453,o),
(182,446,cs),
(239,442,o),
(278,380,o),
(298,324,cs),
(308,296,o),
(309,273,o),
(286,310,cs),
(270,336,o),
(237,386,o),
(187,394,cs),
(112,406,o),
(88,294,o),
(88,240,cs),
(88,150,o),
(124,64,o),
(212,62,cs),
(305,60,o),
(366,150,o),
(380,235,cs),
(406,392,o),
(384,736,o),
(150,651,cs),
(54,616,o),
(98,544,o),
(144,544,cs),
(177,544,o),
(196,563,o),
(225,580,cs),
(255,598,o),
(259,582,o),
(237,560,cs),
(206,529,o),
(162,502,o),
(103,523,cs),
(66,536,o),
(50,560,o),
(50,597,cs),
(50,661,o),
(144,702,o),
(199,702,cs)
);
},
{
closed = 1;
nodes = (
(440,132,o),
(489,56,o),
(580,58,cs),
(668,59,o),
(708,113,o),
(718,193,cs),
(731,285,o),
(690,423,o),
(591,423,cs),
(501,423,o),
(440,297,o),
(440,220,cs)
);
}
);
width = 796;
}
);
},
{
color = 3;
glyphname = "ghu-kannada";
layers = (
{
layerId = "181B3FD6-98F3-4D7B-8C67-56E528B8E974";
shapes = (
{
closed = 1;
nodes = (
(1019,515,o),
(1032,477,o),
(1027,420,cs),
(1009,216,o),
(771,208,o),
(754,358,cs),
(750,396,o),
(770,403,o),
(780,383,cs),
(839,268,o),
(987,330,o),
(987,435,cs),
(987,478,o),
(970,515,o),
(954,550,cs),
(931,600,o),
(974,608,o),
(996,562,cs)
);
},
{
alignment = -1;
ref = "gha-kannada";
}
);
width = 1069;
}
);
},
{
color = 3;
glyphname = "ju-kannada";
layers = (
{
layerId = "181B3FD6-98F3-4D7B-8C67-56E528B8E974";
shapes = (
{
closed = 1;
nodes = (
(877.954,565.126,o),
(890.855,526.559,o),
(886.017,470.317,cs),
(868.279,266.237,o),
(629.622,258.202,o),
(613.496,407.646,cs),
(608.658,446.213,o),
(629.622,452.64,o),
(639.297,433.357,cs),
(698.961,317.658,o),
(845.703,380.329,o),
(845.703,484.779,cs),
(845.703,528.166,o),
(829.578,565.126,o),
(813.452,600.478,cs),
(790.877,650.293,o),
(832.803,658.327,o),
(855.379,611.727,cs)
);
},
{
alignment = -1;
ref = "ja-kannada";
}
);
width = 928;
}
);
},
{
color = 3;
glyphname = "ghuu-kannada";
layers = (
{
layerId = "181B3FD6-98F3-4D7B-8C67-56E528B8E974";
shapes = (
{
closed = 1;
nodes = (
(767.721,525.572,o),
(770.43,480.414,o),
(776.753,447.901,cs),
(787.59,390.099,o),
(809.266,305.202,o),
(884.228,305.202,cs),
(929.386,305.202,o),
(951.965,322.362,o),
(955.578,365.713,cs),
(960.997,423.515,o),
(990.801,493.962,o),
(1060.344,504.8,cs),
(1096.47,510.219,o),
(1141.628,498.478,o),
(1164.207,462.351,cs),
(1186.786,424.419,o),
(1184.076,383.777,o),
(1184.076,331.393,cs),
(1184.076,300.686,o),
(1186.786,263.657,o),
(1181.367,233.852,cs),
(1177.754,211.274,o),
(1111.824,217.596,o),
(1128.081,289.848,cs),
(1133.5,316.04,o),
(1183.173,468.673,o),
(1085.632,468.673,cs),
(1005.251,468.673,o),
(998.026,422.612,o),
(989.898,352.166,cs),
(983.576,297.073,o),
(935.708,252.819,o),
(881.519,252.819,cs),
(793.009,252.819,o),
(727.079,455.126,o),
(687.34,494.865,cs),
(671.986,510.219,o),
(690.049,537.313,o),
(746.045,529.185,cs)
);
},
{
alignment = -1;
ref = "gha-kannada";
}
);
width = 1225;
}
);
},
{
color = 3;
glyphname = "juu-kannada.alt";
layers = (
{
layerId = "181B3FD6-98F3-4D7B-8C67-56E528B8E974";
shapes = (
{
closed = 1;
nodes = (
(564.5,586.541,o),
(603.336,582.025,o),
(632.237,519.707,cs),
(659.331,461.002,o),
(664.75,377.008,o),
(739.712,377.008,cs),
(866.154,377.008,o),
(768.613,554.027,o),
(915.828,576.606,cs),
(951.954,582.025,o),
(997.112,570.284,o),
(1019.691,534.158,cs),
(1042.27,496.225,o),
(1039.561,455.583,o),
(1039.561,403.2,cs),
(1039.561,372.492,o),
(1042.27,335.463,o),
(1036.851,305.659,cs),
(1033.239,283.08,o),
(967.308,289.402,o),
(983.565,361.655,cs),
(988.984,387.846,o),
(1038.658,540.48,o),
(941.117,540.48,cs),
(788.483,540.48,o),
(895.959,315.593,o),
(737.003,324.625,cs),
(582.563,333.657,o),
(582.563,526.932,o),
(542.824,566.671,cs),
(527.471,582.025,o),
(486.828,598.282,o),
(542.824,590.153,cs)
);
},
{
alignment = -1;
ref = "ja-kannada";
}
);
width = 1081;
}
);
},
{
color = 3;
glyphname = "jho-kannada";
layers = (
{
layerId = "181B3FD6-98F3-4D7B-8C67-56E528B8E974";
shapes = (
{
closed = 1;
nodes = (
(585.976,564.159,o),
(597.264,585.049,o),
(615.002,588.263,cs),
(631.128,591.477,o),
(660.154,583.442,o),
(671.441,562.552,cs),
(700.467,507.917,o),
(735.943,356.865,o),
(732.718,260.449,cs),
(729.493,125.467,o),
(660.154,0.127,o),
(542.437,0.127,cs),
(469.873,0.127,o),
(400.533,35.479,o),
(392.47,111.005,cs),
(387.633,149.571,o),
(408.596,155.999,o),
(418.271,136.716,cs),
(442.459,90.115,o),
(466.648,67.618,o),
(516.637,67.618,cs),
(632.74,67.618,o),
(690.792,167.247,o),
(692.405,274.912,cs),
(692.405,340.796,o),
(666.604,408.287,o),
(644.028,454.888,cs),
(619.84,504.703,o),
(585.976,520.772,o),
(585.976,549.697,cs)
);
},
{
closed = 1;
nodes = (
(723.043,54.762,o),
(745.619,-12.729,o),
(745.619,-51.295,cs),
(745.619,-83.434,o),
(726.268,-104.324,o),
(710.143,-104.324,cs),
(677.892,-104.324,o),
(673.054,-65.757,o),
(673.054,-44.867,cs),
(673.054,0.127,o),
(697.242,54.762,o),
(697.242,93.329,cs),
(697.242,99.756,o),
(697.242,139.93,o),
(708.53,139.93,cs),
(719.818,139.93,o),
(723.043,101.363,o),
(723.043,94.936,cs)
);
},
{
closed = 1;
nodes = (
(342.481,549.697,o),
(342.481,564.159,o),
(342.481,535.234,c),
(334.418,535.234,o),
(337.643,535.234,o),
(329.581,535.234,cs),
(324.743,535.234,o),
(315.068,528.807,o),
(324.743,517.558,c),
(400.533,448.46,o),
(450.522,361.686,o),
(450.522,260.449,cs),
(450.522,130.288,o),
(389.245,-1.48,o),
(245.728,-1.48,cs),
(100.599,-1.48,o),
(39.322,136.716,o),
(45.772,260.449,cs),
(52.222,403.466,o),
(142.525,482.206,o),
(195.739,517.558,c),
(205.414,528.807,o),
(205.414,535.234,o),
(195.739,535.234,cs),
(168.326,535.234,o),
(107.049,535.234,o),
(79.635,535.234,cs),
(16.746,535.234,o),
(39.322,599.512,o),
(76.41,599.512,cs),
(160.263,599.512,o),
(257.016,599.512,o),
(342.481,599.512,c)
);
},
{
closed = 1;
nodes = (
(100.599,165.64,o),
(145.75,70.832,o),
(253.791,70.832,cs),
(387.633,70.832,o),
(418.271,157.606,o),
(418.271,260.449,cs),
(418.271,353.651,o),
(358.607,482.206,o),
(269.916,482.206,cs),
(160.263,482.206,o),
(100.599,353.651,o),
(100.599,260.449,cs)
);
},
{
closed = 1;
nodes = (
(400.533,599.512,o),
(424.721,663.789,o),
(450.522,662.182,cs),
(460.197,662.182,o),
(471.485,655.754,o),
(466.648,625.222,cs),
(458.585,567.373,o),
(397.308,535.234,o),
(344.094,535.234,cs),
(224.765,536.841,o),
(340.869,535.234,o),
(274.754,535.234,cs),
(265.079,535.234,o),
(265.079,599.512,o),
(274.754,599.512,cs),
(315.068,599.512,o),
(263.466,599.512,o),
(344.094,599.512,cs)
);
},
{
closed = 1;
nodes = (
(690.792,186.531,o),
(708.53,247.594,o),
(718.205,218.669,c),
(714.98,186.531,o),
(782.707,53.155,o),
(892.361,53.155,cs),
(1019.752,53.155,o),
(1056.841,202.6,o),
(1056.841,289.374,cs),
(1056.841,397.038,o),
(985.889,523.986,o),
(908.486,525.593,cs),
(874.623,525.593,o),
(839.147,525.593,o),
(806.896,525.593,cs),
(777.87,525.593,o),
(777.87,589.87,o),
(803.671,589.87,cs),
(889.136,589.87,o),
(952.025,589.87,o),
(1037.49,589.87,c),
(1037.49,567.373,o),
(1037.49,557.731,o),
(1037.49,525.593,c),
(1024.59,525.593,o),
(1014.915,525.593,o),
(1005.239,525.593,c),
(1058.454,461.316,o),
(1085.867,406.68,o),
(1092.317,321.513,cs),
(1101.993,186.531,o),
(1055.229,-11.122,o),
(884.298,-11.122,cs),
(806.896,-11.122,o),
(744.006,62.797,o),
(708.53,139.93,c)
);
},
{
alignment = -1;
pos = (911,-10);
ref = "oMatra-kannada";
}
);
width = 1761;
}
);
},
{
color = 3;
glyphname = "ttau-kannada";
layers = (
{
layerId = "181B3FD6-98F3-4D7B-8C67-56E528B8E974";
shapes = (
{
closed = 1;
nodes = (
(638.605,795.437,o),
(830.243,793.853,o),
(1023.464,795.437,cs),
(1205.599,795.437,o),
(1310.129,622.805,o),
(1281.621,448.589,cs),
(1262.615,337.724,o),
(1173.923,241.113,o),
(1050.388,266.454,cs),
(971.199,282.292,o),
(903.097,350.394,o),
(896.761,429.583,cs),
(888.843,524.61,o),
(931.605,586.378,o),
(1010.794,595.88,cs),
(1083.648,605.383,o),
(1129.577,565.789,o),
(1124.826,492.935,cs),
(1123.242,458.091,o),
(1108.988,428.,o),
(1067.81,420.081,cs),
(1020.296,410.578,o),
(991.788,448.589,o),
(980.702,464.427,cs),
(971.199,477.097,o),
(955.361,442.254,o),
(961.697,410.578,cs),
(974.367,345.643,o),
(1040.886,320.302,o),
(1091.567,320.302,cs),
(1186.594,320.302,o),
(1254.696,402.659,o),
(1248.361,516.691,cs),
(1240.442,641.81,o),
(1143.832,732.086,o),
(1051.972,732.086,cs),
(828.659,732.086,ls),
(798.567,732.086,o),
(847.664,700.41,o),
(847.664,627.556,cs),
(847.664,532.529,o),
(762.14,535.697,o),
(724.129,535.697,cs),
(708.291,535.697,o),
(361.443,535.697,o),
(347.189,535.697,cs),
(302.843,535.697,o),
(302.843,600.632,o),
(347.189,600.632,cs),
(358.275,600.632,o),
(741.551,600.632,o),
(749.47,600.632,cs),
(790.648,600.632,o),
(801.734,633.891,o),
(801.734,673.486,cs),
(801.734,730.502,o),
(751.053,732.086,o),
(708.291,732.086,cs),
(621.183,732.086,o),
(530.908,732.086,o),
(445.383,732.086,cs),
(408.956,732.086,o),
(408.956,795.437,o),
(445.383,795.437,cs)
);
},
{
alignment = -1;
pos = (40,0);
ref = "tta-kannada.base";
}
);
width = 1327;
}
);
},
{
color = 3;
glyphname = "mau-kannada";
layers = (
{
layerId = "181B3FD6-98F3-4D7B-8C67-56E528B8E974";
shapes = (
{
closed = 1;
nodes = (
(938.605,789.437,o),
(1130.243,787.853,o),
(1323.464,789.437,cs),
(1505.599,789.437,o),
(1611.712,616.805,o),
(1581.621,442.589,cs),
(1564.199,331.724,o),
(1473.923,235.113,o),
(1350.388,260.454,cs),
(1271.199,276.292,o),
(1203.097,344.394,o),
(1196.761,423.583,cs),
(1188.843,518.61,o),
(1231.605,580.378,o),
(1310.794,589.88,cs),
(1383.648,599.383,o),
(1429.577,559.789,o),
(1424.826,486.935,cs),
(1423.242,452.091,o),
(1408.988,422.,o),
(1367.81,414.081,cs),
(1320.296,404.578,o),
(1291.788,442.589,o),
(1280.702,458.427,cs),
(1271.199,471.097,o),
(1255.361,436.254,o),
(1261.697,404.578,cs),
(1274.367,339.643,o),
(1340.886,314.302,o),
(1391.567,314.302,cs),
(1486.594,314.302,o),
(1554.696,396.659,o),
(1548.361,510.691,cs),
(1540.442,635.81,o),
(1443.832,726.086,o),
(1351.972,726.086,cs),
(1128.659,726.086,ls),
(1098.567,726.086,o),
(1147.664,694.41,o),
(1147.664,621.556,cs),
(1147.664,526.529,o),
(1062.14,529.697,o),
(1024.129,529.697,cs),
(1008.291,529.697,o),
(889.508,529.697,o),
(875.254,529.697,cs),
(830.908,529.697,o),
(830.908,594.632,o),
(875.254,594.632,cs),
(886.34,594.632,o),
(1041.551,594.632,o),
(1049.47,594.632,cs),
(1090.648,594.632,o),
(1101.734,627.891,o),
(1101.734,667.486,cs),
(1101.734,724.502,o),
(1051.053,726.086,o),
(1008.291,726.086,cs),
(921.183,726.086,o),
(830.908,726.086,o),
(745.383,726.086,cs),
(708.956,726.086,o),
(708.956,789.437,o),
(745.383,789.437,cs)
);
},
{
alignment = -1;
ref = "ma-kannada";
}
);
width = 1627;
}
);
},
{
color = 3;
glyphname = "yau-kannada";
layers = (
{
layerId = "181B3FD6-98F3-4D7B-8C67-56E528B8E974";
shapes = (
{
closed = 1;
nodes = (
(990.605,784.437,o),
(1239.259,782.853,o),
(1432.48,784.437,cs),
(1614.615,784.437,o),
(1719.145,611.805,o),
(1690.637,437.589,cs),
(1671.631,326.724,o),
(1582.94,230.113,o),
(1459.405,255.454,cs),
(1380.215,271.292,o),
(1312.113,339.394,o),
(1305.778,418.583,cs),
(1297.859,513.61,o),
(1340.621,575.378,o),
(1419.81,584.88,cs),
(1492.664,594.383,o),
(1538.594,554.789,o),
(1533.842,481.935,cs),
(1532.259,447.091,o),
(1518.004,417.,o),
(1476.826,409.081,cs),
(1429.313,399.578,o),
(1400.805,437.589,o),
(1389.718,453.427,cs),
(1380.215,466.097,o),
(1364.378,431.254,o),
(1370.713,399.578,cs),
(1383.383,334.643,o),
(1449.902,309.302,o),
(1500.583,309.302,cs),
(1595.61,309.302,o),
(1663.712,391.659,o),
(1657.377,505.691,cs),
(1649.458,630.81,o),
(1552.848,721.086,o),
(1460.988,721.086,cs),
(1237.675,721.086,ls),
(1207.583,721.086,o),
(1256.68,689.41,o),
(1256.68,616.556,cs),
(1256.68,521.529,o),
(1171.156,524.697,o),
(1133.145,524.697,cs),
(1117.307,524.697,o),
(1017.529,524.697,o),
(1003.275,524.697,cs),
(958.929,524.697,o),
(958.929,589.632,o),
(1003.275,589.632,cs),
(1014.362,589.632,o),
(1150.567,589.632,o),
(1158.486,589.632,cs),
(1199.664,589.632,o),
(1210.751,622.891,o),
(1210.751,662.486,cs),
(1210.751,719.502,o),
(1160.07,721.086,o),
(1117.307,721.086,cs),
(1030.199,721.086,o),
(882.908,721.086,o),
(797.383,721.086,cs),
(760.956,721.086,o),
(760.956,784.437,o),
(797.383,784.437,cs)
);
},
{
alignment = -1;
ref = "ya-kannada";
}
);
width = 1736;
}
);
},
